<svg xmlns="http://www.w3.org/2000/svg" xmlns:xlink="http://www.w3.org/1999/xlink" viewBox="0 0 65 21" fill="#fff" fill-rule="evenodd" stroke="#000" stroke-linecap="round" stroke-linejoin="round"><style><![CDATA[.B{fill-rule:nonzero}.C{stroke-width:.225}.D{stroke-width:.096}]]></style><use xlink:href="#Ab" x=".5" y=".5"/><defs><linearGradient id="A" y2="108.04%" x2="51.50%" y1="-14.26%" x1="48.45%"><stop offset="0%" stop-color="#693594"/><stop offset="10.6%" stop-color="#892e83"/><stop offset="26.5%" stop-color="#b4246c"/><stop offset="40.9%" stop-color="#d31d5c"/><stop offset="53.1%" stop-color="#e61952"/><stop offset="61.6%" stop-color="#ed174e"/><stop offset="100%" stop-color="#f9e57e"/></linearGradient><linearGradient id="B" y2="134.96%" x2="52.00%" y1="25.26%" x1="49.42%"><stop offset="0%" stop-color="#693594"/><stop offset="10.6%" stop-color="#892e83"/><stop offset="26.5%" stop-color="#b4246c"/><stop offset="40.9%" stop-color="#d31d5c"/><stop offset="53.1%" stop-color="#e61952"/><stop offset="61.6%" stop-color="#ed174e"/><stop offset="100%" stop-color="#f9e57e"/></linearGradient><linearGradient id="C" y2="108.62%" x2="51.69%" y1="-15.75%" x1="48.25%"><stop offset="0%" stop-color="#693594"/><stop offset="10.6%" stop-color="#892e83"/><stop offset="26.5%" stop-color="#b4246c"/><stop offset="40.9%" stop-color="#d31d5c"/><stop offset="53.1%" stop-color="#e61952"/><stop offset="61.6%" stop-color="#ed174e"/><stop offset="100%" stop-color="#f9e57e"/></linearGradient><linearGradient id="D" y2="133.74%" x2="52.74%" y1="14.51%" x1="49.03%"><stop offset="0%" stop-color="#693594"/><stop offset="10.6%" stop-color="#892e83"/><stop offset="26.5%" stop-color="#b4246c"/><stop offset="40.9%" stop-color="#d31d5c"/><stop offset="53.1%" stop-color="#e61952"/><stop offset="61.6%" stop-color="#ed174e"/><stop offset="100%" stop-color="#f9e57e"/></linearGradient><linearGradient id="E" y2="108.61%" x2="51.60%" y1="-16.91%" x1="48.43%"><stop offset="0%" stop-color="#693594"/><stop offset="10.6%" stop-color="#892e83"/><stop offset="26.5%" stop-color="#b4246c"/><stop offset="40.9%" stop-color="#d31d5c"/><stop offset="53.1%" stop-color="#e61952"/><stop offset="61.6%" stop-color="#ed174e"/><stop offset="100%" stop-color="#f9e57e"/></linearGradient><linearGradient id="F" y2="155.15%" x2="52.28%" y1="5.14%" x1="49.10%"><stop offset="0%" stop-color="#693594"/><stop offset="10.6%" stop-color="#892e83"/><stop offset="26.5%" stop-color="#b4246c"/><stop offset="40.9%" stop-color="#d31d5c"/><stop offset="53.1%" stop-color="#e61952"/><stop offset="61.6%" stop-color="#ed174e"/><stop offset="100%" stop-color="#f9e57e"/></linearGradient><linearGradient id="G" y2="111.21%" x2="51.43%" y1="-20.50%" x1="48.60%"><stop offset="0%" stop-color="#693594"/><stop offset="10.6%" stop-color="#892e83"/><stop offset="26.5%" stop-color="#b4246c"/><stop offset="40.9%" stop-color="#d31d5c"/><stop offset="53.1%" stop-color="#e61952"/><stop offset="61.6%" stop-color="#ed174e"/><stop offset="100%" stop-color="#f9e57e"/></linearGradient><linearGradient id="H" y2="139.45%" x2="51.87%" y1="-8.51%" x1="48.80%"><stop offset="0%" stop-color="#693594"/><stop offset="10.6%" stop-color="#892e83"/><stop offset="26.5%" stop-color="#b4246c"/><stop offset="40.9%" stop-color="#d31d5c"/><stop offset="53.1%" stop-color="#e61952"/><stop offset="61.6%" stop-color="#ed174e"/><stop offset="100%" stop-color="#f9e57e"/></linearGradient><linearGradient id="I" y2="35.75%" x2="49.86%" y1="-40.57%" x1="48.99%"><stop offset="0%" stop-color="#f9e57e"/><stop offset="10.6%" stop-color="#f7db7d"/><stop offset="34.9%" stop-color="#f3c87a"/><stop offset="52%" stop-color="#f2c179"/><stop offset="71%" stop-color="#f5d17b"/><stop offset="100%" stop-color="#f9e57e"/></linearGradient><linearGradient id="J" y2="83.71%" x2="47.13%" y1="-95.93%" x1="61.22%"><stop offset="0%" stop-color="#f9e57e"/><stop offset="10.6%" stop-color="#f7db7d"/><stop offset="34.9%" stop-color="#f3c87a"/><stop offset="52%" stop-color="#f2c179"/><stop offset="71%" stop-color="#f5d17b"/><stop offset="100%" stop-color="#f9e57e"/></linearGradient><linearGradient id="K" y2="31.81%" x2="50.18%" y1="-61.41%" x1="49.11%"><stop offset="0%" stop-color="#f9e57e"/><stop offset="10.6%" stop-color="#f7db7d"/><stop offset="34.9%" stop-color="#f3c87a"/><stop offset="52%" stop-color="#f2c179"/><stop offset="71%" stop-color="#f5d17b"/><stop offset="100%" stop-color="#f9e57e"/></linearGradient><linearGradient id="L" y2="132.32%" x2="44.02%" y1="-133.30%" x1="61.93%"><stop offset="0%" stop-color="#f9e57e"/><stop offset="10.6%" stop-color="#f7db7d"/><stop offset="34.9%" stop-color="#f3c87a"/><stop offset="52%" stop-color="#f2c179"/><stop offset="71%" stop-color="#f5d17b"/><stop offset="100%" stop-color="#f9e57e"/></linearGradient><linearGradient id="M" y2="28.44%" x2="49.83%" y1="-128.12%" x1="48.21%"><stop offset="0%" stop-color="#f9e57e"/><stop offset="10.6%" stop-color="#f7db7d"/><stop offset="34.9%" stop-color="#f3c87a"/><stop offset="52%" stop-color="#f2c179"/><stop offset="71%" stop-color="#f5d17b"/><stop offset="100%" stop-color="#f9e57e"/></linearGradient><linearGradient id="N" y2="25.64%" x2="50.07%" y1="-164.14%" x1="48.10%"><stop offset="0%" stop-color="#f9e57e"/><stop offset="10.6%" stop-color="#f7db7d"/><stop offset="34.9%" stop-color="#f3c87a"/><stop offset="52%" stop-color="#f2c179"/><stop offset="71%" stop-color="#f5d17b"/><stop offset="100%" stop-color="#f9e57e"/></linearGradient><linearGradient id="O" y2="150.76%" x2="51.56%" y1="-95.48%" x1="49.67%"><stop offset="0%" stop-color="#f9e57e"/><stop offset="10.6%" stop-color="#f7db7d"/><stop offset="34.9%" stop-color="#f3c87a"/><stop offset="52%" stop-color="#f2c179"/><stop offset="71%" stop-color="#f5d17b"/><stop offset="100%" stop-color="#f9e57e"/></linearGradient><linearGradient id="P" y2="93.33%" x2="50.33%" y1="-265.27%" x1="47.37%"><stop offset="0%" stop-color="#f9e57e"/><stop offset="10.6%" stop-color="#f7db7d"/><stop offset="34.9%" stop-color="#f3c87a"/><stop offset="52%" stop-color="#f2c179"/><stop offset="71%" stop-color="#f5d17b"/><stop offset="100%" stop-color="#f9e57e"/></linearGradient><linearGradient id="Q" y2="-33.64%" x2="63.27%" y1="136.75%" x1="36.73%"><stop offset="0%" stop-color="#693594"/><stop offset="10.6%" stop-color="#892e83"/><stop offset="26.5%" stop-color="#b4246c"/><stop offset="40.9%" stop-color="#d31d5c"/><stop offset="53.1%" stop-color="#e61952"/><stop offset="61.6%" stop-color="#ed174e"/><stop offset="100%" stop-color="#f9e57e"/></linearGradient><linearGradient id="R" y2="-93.02%" x2="111.12%" y1="47.81%" x1="51.22%"><stop offset="0%" stop-color="#693594"/><stop offset="10.6%" stop-color="#892e83"/><stop offset="26.5%" stop-color="#b4246c"/><stop offset="40.9%" stop-color="#d31d5c"/><stop offset="53.1%" stop-color="#e61952"/><stop offset="61.6%" stop-color="#ed174e"/><stop offset="100%" stop-color="#f9e57e"/></linearGradient><linearGradient id="S" y2="-25.99%" x2="66.38%" y1="154.69%" x1="28.86%"><stop offset="0%" stop-color="#693594"/><stop offset="10.6%" stop-color="#892e83"/><stop offset="26.5%" stop-color="#b4246c"/><stop offset="40.9%" stop-color="#d31d5c"/><stop offset="53.1%" stop-color="#e61952"/><stop offset="61.6%" stop-color="#ed174e"/><stop offset="100%" stop-color="#f9e57e"/></linearGradient><linearGradient id="T" y2="-60.75%" x2="98.59%" y1="88.88%" x1="39.43%"><stop offset="0%" stop-color="#693594"/><stop offset="10.6%" stop-color="#892e83"/><stop offset="26.5%" stop-color="#b4246c"/><stop offset="40.9%" stop-color="#d31d5c"/><stop offset="53.1%" stop-color="#e61952"/><stop offset="61.6%" stop-color="#ed174e"/><stop offset="100%" stop-color="#f9e57e"/></linearGradient><linearGradient id="U" y2="-44.84%" x2="63.24%" y1="198.53%" x1="30.12%"><stop offset="0%" stop-color="#693594"/><stop offset="10.6%" stop-color="#892e83"/><stop offset="26.5%" stop-color="#b4246c"/><stop offset="40.9%" stop-color="#d31d5c"/><stop offset="53.1%" stop-color="#e61952"/><stop offset="61.6%" stop-color="#ed174e"/><stop offset="100%" stop-color="#f9e57e"/></linearGradient><linearGradient id="V" y2="-60.89%" x2="82.77%" y1="145.12%" x1="23.27%"><stop offset="0%" stop-color="#693594"/><stop offset="10.6%" stop-color="#892e83"/><stop offset="26.5%" stop-color="#b4246c"/><stop offset="40.9%" stop-color="#d31d5c"/><stop offset="53.1%" stop-color="#e61952"/><stop offset="61.6%" stop-color="#ed174e"/><stop offset="100%" stop-color="#f9e57e"/></linearGradient><linearGradient id="W" y2="-20.88%" x2="59.78%" y1="227.24%" x1="27.85%"><stop offset="0%" stop-color="#693594"/><stop offset="10.6%" stop-color="#892e83"/><stop offset="26.5%" stop-color="#b4246c"/><stop offset="40.9%" stop-color="#d31d5c"/><stop offset="53.1%" stop-color="#e61952"/><stop offset="61.6%" stop-color="#ed174e"/><stop offset="100%" stop-color="#f9e57e"/></linearGradient><linearGradient id="X" y2="155.36%" x2="50.98%" y1="55.22%" x1="50.08%"><stop offset="0%" stop-color="#f9e57e"/><stop offset="10.6%" stop-color="#f7db7d"/><stop offset="34.9%" stop-color="#f3c87a"/><stop offset="52%" stop-color="#f2c179"/><stop offset="71%" stop-color="#f5d17b"/><stop offset="100%" stop-color="#f9e57e"/></linearGradient><linearGradient id="Y" y2="205.20%" x2="40.94%" y1="4.28%" x1="52.86%"><stop offset="0%" stop-color="#f9e57e"/><stop offset="10.6%" stop-color="#f7db7d"/><stop offset="34.9%" stop-color="#f3c87a"/><stop offset="52%" stop-color="#f2c179"/><stop offset="71%" stop-color="#f5d17b"/><stop offset="100%" stop-color="#f9e57e"/></linearGradient><linearGradient id="Z" y2="224.31%" x2="39.98%" y1="-12.92%" x1="54.65%"><stop offset="0%" stop-color="#f9e57e"/><stop offset="10.6%" stop-color="#f7db7d"/><stop offset="34.9%" stop-color="#f3c87a"/><stop offset="52%" stop-color="#f2c179"/><stop offset="71%" stop-color="#f5d17b"/><stop offset="100%" stop-color="#f9e57e"/></linearGradient><linearGradient id="a" y2="342.96%" x2="36.11%" y1="-111.13%" x1="58.48%"><stop offset="0%" stop-color="#f9e57e"/><stop offset="10.6%" stop-color="#f7db7d"/><stop offset="34.9%" stop-color="#f3c87a"/><stop offset="52%" stop-color="#f2c179"/><stop offset="71%" stop-color="#f5d17b"/><stop offset="100%" stop-color="#f9e57e"/></linearGradient><linearGradient id="b" y2="137.13%" x2="50.82%" y1="-112.96%" x1="48.95%"><stop offset="0%" stop-color="#f9e57e"/><stop offset="10.6%" stop-color="#f7db7d"/><stop offset="34.9%" stop-color="#f3c87a"/><stop offset="52%" stop-color="#f2c179"/><stop offset="71%" stop-color="#f5d17b"/><stop offset="100%" stop-color="#f9e57e"/></linearGradient><linearGradient id="c" y2="146.43%" x2="50.73%" y1="2.85%" x1="49.58%"><stop offset="0%" stop-color="#f9e57e"/><stop offset="10.6%" stop-color="#f7db7d"/><stop offset="34.9%" stop-color="#f3c87a"/><stop offset="52%" stop-color="#f2c179"/><stop offset="71%" stop-color="#f5d17b"/><stop offset="100%" stop-color="#f9e57e"/></linearGradient><linearGradient id="d" y2="121.28%" x2="1.45%" y1="8.52%" x1="105.74%"><stop offset="0%" stop-color="#7e3895"/><stop offset="7.1%" stop-color="#9b2f82"/><stop offset="16%" stop-color="#b9266f"/><stop offset="25.4%" stop-color="#d02061"/><stop offset="35.5%" stop-color="#e01b56"/><stop offset="46.8%" stop-color="#ea1850"/><stop offset="61.6%" stop-color="#ed174e"/><stop offset="100%" stop-color="#f9e57e"/></linearGradient><linearGradient id="e" y2="104.73%" x2="10.31%" y1="11.09%" x1="99.00%"><stop offset="0%" stop-color="#7e3895"/><stop offset="7.1%" stop-color="#9b2f82"/><stop offset="16%" stop-color="#b9266f"/><stop offset="25.4%" stop-color="#d02061"/><stop offset="35.5%" stop-color="#e01b56"/><stop offset="46.8%" stop-color="#ea1850"/><stop offset="61.6%" stop-color="#ed174e"/><stop offset="100%" stop-color="#f9e57e"/></linearGradient><linearGradient id="f" y2="100.17%" x2="12.99%" y1="12.61%" x1="87.22%"><stop offset="0%" stop-color="#7e3895"/><stop offset="7.1%" stop-color="#9b2f82"/><stop offset="16%" stop-color="#b9266f"/><stop offset="25.4%" stop-color="#d02061"/><stop offset="35.5%" stop-color="#e01b56"/><stop offset="46.8%" stop-color="#ea1850"/><stop offset="61.6%" stop-color="#ed174e"/><stop offset="100%" stop-color="#f9e57e"/></linearGradient><linearGradient id="g" y2="97.00%" x2="21.40%" y1="14.10%" x1="80.03%"><stop offset="0%" stop-color="#7e3895"/><stop offset="7.1%" stop-color="#9b2f82"/><stop offset="16%" stop-color="#b9266f"/><stop offset="25.4%" stop-color="#d02061"/><stop offset="35.5%" stop-color="#e01b56"/><stop offset="46.8%" stop-color="#ea1850"/><stop offset="61.6%" stop-color="#ed174e"/><stop offset="100%" stop-color="#f9e57e"/></linearGradient><linearGradient id="h" y2="99.77%" x2="25.96%" y1="-5.11%" x1="76.15%"><stop offset="0%" stop-color="#7e3895"/><stop offset="9.6%" stop-color="#863893"/><stop offset="24.7%" stop-color="#9d398f"/><stop offset="43.3%" stop-color="#c13a88"/><stop offset="61.6%" stop-color="#ec3c80"/><stop offset="100%" stop-color="#f9e57e"/></linearGradient><linearGradient id="i" y2="97.23%" x2="35.20%" y1="35.25%" x1="54.70%"><stop offset="0%" stop-color="#7e3895"/><stop offset="7.1%" stop-color="#9b2f82"/><stop offset="16%" stop-color="#b9266f"/><stop offset="25.4%" stop-color="#d02061"/><stop offset="35.5%" stop-color="#e01b56"/><stop offset="46.8%" stop-color="#ea1850"/><stop offset="61.6%" stop-color="#ed174e"/><stop offset="100%" stop-color="#f9e57e"/></linearGradient><linearGradient id="j" y2="90.06%" x2="41.91%" y1="31.59%" x1="56.12%"><stop offset="0%" stop-color="#7e3895"/><stop offset="7.1%" stop-color="#9b2f82"/><stop offset="16%" stop-color="#b9266f"/><stop offset="25.4%" stop-color="#d02061"/><stop offset="35.5%" stop-color="#e01b56"/><stop offset="46.8%" stop-color="#ea1850"/><stop offset="61.6%" stop-color="#ed174e"/><stop offset="100%" stop-color="#f9e57e"/></linearGradient><linearGradient id="k" y2="154.57%" x2="32.01%" y1="22.62%" x1="54.60%"><stop offset="0%" stop-color="#7e3895"/><stop offset="7.1%" stop-color="#9b2f82"/><stop offset="16%" stop-color="#b9266f"/><stop offset="25.4%" stop-color="#d02061"/><stop offset="35.5%" stop-color="#e01b56"/><stop offset="46.8%" stop-color="#ea1850"/><stop offset="61.6%" stop-color="#ed174e"/><stop offset="100%" stop-color="#f9e57e"/></linearGradient><linearGradient id="l" y2="88.57%" x2="40.31%" y1="25.10%" x1="55.90%"><stop offset="0%" stop-color="#7e3895"/><stop offset="7.1%" stop-color="#9b2f82"/><stop offset="16%" stop-color="#b9266f"/><stop offset="25.4%" stop-color="#d02061"/><stop offset="35.5%" stop-color="#e01b56"/><stop offset="46.8%" stop-color="#ea1850"/><stop offset="61.6%" stop-color="#ed174e"/><stop offset="100%" stop-color="#f9e57e"/></linearGradient><linearGradient id="m" y2="155.35%" x2="33.37%" y1="12.64%" x1="55.99%"><stop offset="0%" stop-color="#7e3895"/><stop offset="7.1%" stop-color="#9b2f82"/><stop offset="16%" stop-color="#b9266f"/><stop offset="25.4%" stop-color="#d02061"/><stop offset="35.5%" stop-color="#e01b56"/><stop offset="46.8%" stop-color="#ea1850"/><stop offset="61.6%" stop-color="#ed174e"/><stop offset="100%" stop-color="#f9e57e"/></linearGradient><linearGradient id="n" y2="83.51%" x2="46.73%" y1="7.76%" x1="54.03%"><stop offset="0%" stop-color="#7e3895"/><stop offset="7.1%" stop-color="#9b2f82"/><stop offset="16%" stop-color="#b9266f"/><stop offset="25.4%" stop-color="#d02061"/><stop offset="35.5%" stop-color="#e01b56"/><stop offset="46.8%" stop-color="#ea1850"/><stop offset="61.6%" stop-color="#ed174e"/><stop offset="100%" stop-color="#f9e57e"/></linearGradient><linearGradient id="o" y2="115.33%" x2="44.60%" y1="16.08%" x1="52.65%"><stop offset="0%" stop-color="#7e3895"/><stop offset="7.1%" stop-color="#9b2f82"/><stop offset="16%" stop-color="#b9266f"/><stop offset="25.4%" stop-color="#d02061"/><stop offset="35.5%" stop-color="#e01b56"/><stop offset="46.8%" stop-color="#ea1850"/><stop offset="61.6%" stop-color="#ed174e"/><stop offset="100%" stop-color="#f9e57e"/></linearGradient><linearGradient id="p" y2="118.97%" x2="44.43%" y1="11.61%" x1="53.14%"><stop offset="0%" stop-color="#7e3895"/><stop offset="7.1%" stop-color="#9b2f82"/><stop offset="16%" stop-color="#b9266f"/><stop offset="25.4%" stop-color="#d02061"/><stop offset="35.5%" stop-color="#e01b56"/><stop offset="46.8%" stop-color="#ea1850"/><stop offset="61.6%" stop-color="#ed174e"/><stop offset="100%" stop-color="#f9e57e"/></linearGradient><linearGradient id="q" y2="159.90%" x2="37.38%" y1="1.18%" x1="55.59%"><stop offset="0%" stop-color="#7e3895"/><stop offset="7.1%" stop-color="#9b2f82"/><stop offset="16%" stop-color="#b9266f"/><stop offset="25.4%" stop-color="#d02061"/><stop offset="35.5%" stop-color="#e01b56"/><stop offset="46.8%" stop-color="#ea1850"/><stop offset="61.6%" stop-color="#ed174e"/><stop offset="100%" stop-color="#f9e57e"/></linearGradient><linearGradient id="r" y2="157.27%" x2="39.46%" y1="-0.82%" x1="54.91%"><stop offset="0%" stop-color="#7e3895"/><stop offset="7.1%" stop-color="#9b2f82"/><stop offset="16%" stop-color="#b9266f"/><stop offset="25.4%" stop-color="#d02061"/><stop offset="35.5%" stop-color="#e01b56"/><stop offset="46.8%" stop-color="#ea1850"/><stop offset="61.6%" stop-color="#ed174e"/><stop offset="100%" stop-color="#f9e57e"/></linearGradient><linearGradient id="s" y2="89.95%" x2="44.58%" y1="15.54%" x1="54.65%"><stop offset="0%" stop-color="#7e3895"/><stop offset="7.1%" stop-color="#9b2f82"/><stop offset="16%" stop-color="#b9266f"/><stop offset="25.4%" stop-color="#d02061"/><stop offset="35.5%" stop-color="#e01b56"/><stop offset="46.8%" stop-color="#ea1850"/><stop offset="61.6%" stop-color="#ed174e"/><stop offset="100%" stop-color="#f9e57e"/></linearGradient><linearGradient id="t" y2="160.32%" x2="41.15%" y1="-2.99%" x1="54.20%"><stop offset="0%" stop-color="#7e3895"/><stop offset="7.1%" stop-color="#9b2f82"/><stop offset="16%" stop-color="#b9266f"/><stop offset="25.4%" stop-color="#d02061"/><stop offset="35.5%" stop-color="#e01b56"/><stop offset="46.8%" stop-color="#ea1850"/><stop offset="61.6%" stop-color="#ed174e"/><stop offset="100%" stop-color="#f9e57e"/></linearGradient><linearGradient id="u" y2="92.21%" x2="45.24%" y1="17.51%" x1="53.69%"><stop offset="0%" stop-color="#7e3895"/><stop offset="7.1%" stop-color="#9b2f82"/><stop offset="16%" stop-color="#b9266f"/><stop offset="25.4%" stop-color="#d02061"/><stop offset="35.5%" stop-color="#e01b56"/><stop offset="46.8%" stop-color="#ea1850"/><stop offset="61.6%" stop-color="#ed174e"/><stop offset="100%" stop-color="#f9e57e"/></linearGradient><linearGradient id="v" y2="155.27%" x2="41.70%" y1="-4.35%" x1="53.82%"><stop offset="0%" stop-color="#7e3895"/><stop offset="7.1%" stop-color="#9b2f82"/><stop offset="16%" stop-color="#b9266f"/><stop offset="25.4%" stop-color="#d02061"/><stop offset="35.5%" stop-color="#e01b56"/><stop offset="46.8%" stop-color="#ea1850"/><stop offset="61.6%" stop-color="#ed174e"/><stop offset="100%" stop-color="#f9e57e"/></linearGradient><linearGradient id="w" y2="98.65%" x2="45.13%" y1="20.91%" x1="52.86%"><stop offset="0%" stop-color="#7e3895"/><stop offset="7.1%" stop-color="#9b2f82"/><stop offset="16%" stop-color="#b9266f"/><stop offset="25.4%" stop-color="#d02061"/><stop offset="35.5%" stop-color="#e01b56"/><stop offset="46.8%" stop-color="#ea1850"/><stop offset="61.6%" stop-color="#ed174e"/><stop offset="100%" stop-color="#f9e57e"/></linearGradient><linearGradient id="x" y2="-83.25%" x2="116.75%" y1="73.49%" x1="18.92%"><stop offset="0%" stop-color="#693594"/><stop offset="10.6%" stop-color="#892e83"/><stop offset="26.5%" stop-color="#b4246c"/><stop offset="40.9%" stop-color="#d31d5c"/><stop offset="53.1%" stop-color="#e61952"/><stop offset="61.6%" stop-color="#ed174e"/><stop offset="100%" stop-color="#f9e57e"/></linearGradient><linearGradient id="y" y2="-58.59%" x2="110.45%" y1="79.89%" x1="27.65%"><stop offset="0%" stop-color="#693594"/><stop offset="10.6%" stop-color="#892e83"/><stop offset="26.5%" stop-color="#b4246c"/><stop offset="40.9%" stop-color="#d31d5c"/><stop offset="53.1%" stop-color="#e61952"/><stop offset="61.6%" stop-color="#ed174e"/><stop offset="100%" stop-color="#f9e57e"/></linearGradient><linearGradient id="z" y2="-54.34%" x2="91.19%" y1="76.95%" x1="38.01%"><stop offset="0%" stop-color="#693594"/><stop offset="10.6%" stop-color="#892e83"/><stop offset="26.5%" stop-color="#b4246c"/><stop offset="40.9%" stop-color="#d31d5c"/><stop offset="53.1%" stop-color="#e61952"/><stop offset="61.6%" stop-color="#ed174e"/><stop offset="100%" stop-color="#f9e57e"/></linearGradient><linearGradient id="AA" y2="-44.39%" x2="87.78%" y1="82.66%" x1="32.79%"><stop offset="0%" stop-color="#693594"/><stop offset="10.6%" stop-color="#892e83"/><stop offset="26.5%" stop-color="#b4246c"/><stop offset="40.9%" stop-color="#d31d5c"/><stop offset="53.1%" stop-color="#e61952"/><stop offset="61.6%" stop-color="#ed174e"/><stop offset="100%" stop-color="#f9e57e"/></linearGradient><linearGradient id="AB" y2="-52.03%" x2="85.15%" y1="78.54%" x1="40.52%"><stop offset="0%" stop-color="#693594"/><stop offset="10.6%" stop-color="#892e83"/><stop offset="26.5%" stop-color="#b4246c"/><stop offset="40.9%" stop-color="#d31d5c"/><stop offset="53.1%" stop-color="#e61952"/><stop offset="61.6%" stop-color="#ed174e"/><stop offset="100%" stop-color="#f9e57e"/></linearGradient><linearGradient id="AC" y2="-34.28%" x2="78.70%" y1="87.65%" x1="34.04%"><stop offset="0%" stop-color="#693594"/><stop offset="10.6%" stop-color="#892e83"/><stop offset="26.5%" stop-color="#b4246c"/><stop offset="40.9%" stop-color="#d31d5c"/><stop offset="53.1%" stop-color="#e61952"/><stop offset="61.6%" stop-color="#ed174e"/><stop offset="100%" stop-color="#f9e57e"/></linearGradient><linearGradient id="AD" y2="-44.45%" x2="78.04%" y1="77.99%" x1="41.11%"><stop offset="0%" stop-color="#693594"/><stop offset="10.6%" stop-color="#892e83"/><stop offset="26.5%" stop-color="#b4246c"/><stop offset="40.9%" stop-color="#d31d5c"/><stop offset="53.1%" stop-color="#e61952"/><stop offset="61.6%" stop-color="#ed174e"/><stop offset="100%" stop-color="#f9e57e"/></linearGradient><linearGradient id="AE" y2="-43.52%" x2="80.00%" y1="82.13%" x1="40.72%"><stop offset="0%" stop-color="#693594"/><stop offset="10.6%" stop-color="#892e83"/><stop offset="26.5%" stop-color="#b4246c"/><stop offset="40.9%" stop-color="#d31d5c"/><stop offset="53.1%" stop-color="#e61952"/><stop offset="61.6%" stop-color="#ed174e"/><stop offset="100%" stop-color="#f9e57e"/></linearGradient><linearGradient id="AF" y2="-29.36%" x2="77.63%" y1="98.19%" x1="34.00%"><stop offset="0%" stop-color="#693594"/><stop offset="10.6%" stop-color="#892e83"/><stop offset="26.5%" stop-color="#b4246c"/><stop offset="40.9%" stop-color="#d31d5c"/><stop offset="53.1%" stop-color="#e61952"/><stop offset="61.6%" stop-color="#ed174e"/><stop offset="100%" stop-color="#f9e57e"/></linearGradient><linearGradient id="AG" y2="-51.10%" x2="78.25%" y1="85.72%" x1="40.18%"><stop offset="0%" stop-color="#693594"/><stop offset="10.6%" stop-color="#892e83"/><stop offset="26.5%" stop-color="#b4246c"/><stop offset="40.9%" stop-color="#d31d5c"/><stop offset="53.1%" stop-color="#e61952"/><stop offset="61.6%" stop-color="#ed174e"/><stop offset="100%" stop-color="#f9e57e"/></linearGradient><linearGradient id="AH" y2="-27.01%" x2="74.65%" y1="106.26%" x1="32.33%"><stop offset="0%" stop-color="#693594"/><stop offset="10.6%" stop-color="#892e83"/><stop offset="26.5%" stop-color="#b4246c"/><stop offset="40.9%" stop-color="#d31d5c"/><stop offset="53.1%" stop-color="#e61952"/><stop offset="61.6%" stop-color="#ed174e"/><stop offset="100%" stop-color="#f9e57e"/></linearGradient><linearGradient id="AI" y2="-48.54%" x2="78.04%" y1="90.00%" x1="39.39%"><stop offset="0%" stop-color="#693594"/><stop offset="10.6%" stop-color="#892e83"/><stop offset="26.5%" stop-color="#b4246c"/><stop offset="40.9%" stop-color="#d31d5c"/><stop offset="53.1%" stop-color="#e61952"/><stop offset="61.6%" stop-color="#ed174e"/><stop offset="100%" stop-color="#f9e57e"/></linearGradient><linearGradient id="AJ" y2="-28.49%" x2="73.18%" y1="113.25%" x1="31.33%"><stop offset="0%" stop-color="#693594"/><stop offset="10.6%" stop-color="#892e83"/><stop offset="26.5%" stop-color="#b4246c"/><stop offset="40.9%" stop-color="#d31d5c"/><stop offset="53.1%" stop-color="#e61952"/><stop offset="61.6%" stop-color="#ed174e"/><stop offset="100%" stop-color="#f9e57e"/></linearGradient><linearGradient id="AK" y2="-52.58%" x2="72.29%" y1="97.56%" x1="40.32%"><stop offset="0%" stop-color="#693594"/><stop offset="10.6%" stop-color="#892e83"/><stop offset="26.5%" stop-color="#b4246c"/><stop offset="40.9%" stop-color="#d31d5c"/><stop offset="53.1%" stop-color="#e61952"/><stop offset="61.6%" stop-color="#ed174e"/><stop offset="100%" stop-color="#f9e57e"/></linearGradient><linearGradient id="AL" y2="-23.47%" x2="69.03%" y1="127.80%" x1="28.26%"><stop offset="0%" stop-color="#693594"/><stop offset="10.6%" stop-color="#892e83"/><stop offset="26.5%" stop-color="#b4246c"/><stop offset="40.9%" stop-color="#d31d5c"/><stop offset="53.1%" stop-color="#e61952"/><stop offset="61.6%" stop-color="#ed174e"/><stop offset="100%" stop-color="#f9e57e"/></linearGradient><linearGradient id="AM" y2="-45.53%" x2="68.76%" y1="105.16%" x1="39.42%"><stop offset="0%" stop-color="#693594"/><stop offset="10.6%" stop-color="#892e83"/><stop offset="26.5%" stop-color="#b4246c"/><stop offset="40.9%" stop-color="#d31d5c"/><stop offset="53.1%" stop-color="#e61952"/><stop offset="61.6%" stop-color="#ed174e"/><stop offset="100%" stop-color="#f9e57e"/></linearGradient><linearGradient id="AN" y2="-46.05%" x2="67.68%" y1="108.99%" x1="38.58%"><stop offset="0%" stop-color="#693594"/><stop offset="10.6%" stop-color="#892e83"/><stop offset="26.5%" stop-color="#b4246c"/><stop offset="40.9%" stop-color="#d31d5c"/><stop offset="53.1%" stop-color="#e61952"/><stop offset="61.6%" stop-color="#ed174e"/><stop offset="100%" stop-color="#f9e57e"/></linearGradient><linearGradient id="AO" y2="-33.38%" x2="65.90%" y1="117.39%" x1="39.21%"><stop offset="0%" stop-color="#693594"/><stop offset="10.6%" stop-color="#892e83"/><stop offset="26.5%" stop-color="#b4246c"/><stop offset="40.9%" stop-color="#d31d5c"/><stop offset="53.1%" stop-color="#e61952"/><stop offset="61.6%" stop-color="#ed174e"/><stop offset="100%" stop-color="#f9e57e"/></linearGradient><linearGradient id="AP" y2="-50.56%" x2="99.21%" y1="87.50%" x1="31.92%"><stop offset="0%" stop-color="#693594"/><stop offset="10.6%" stop-color="#892e83"/><stop offset="26.5%" stop-color="#b4246c"/><stop offset="40.9%" stop-color="#d31d5c"/><stop offset="53.1%" stop-color="#e61952"/><stop offset="61.6%" stop-color="#ed174e"/><stop offset="100%" stop-color="#f9e57e"/></linearGradient><linearGradient id="AQ" y2="-32.99%" x2="90.09%" y1="105.59%" x1="24.91%"><stop offset="0%" stop-color="#693594"/><stop offset="10.6%" stop-color="#892e83"/><stop offset="26.5%" stop-color="#b4246c"/><stop offset="40.9%" stop-color="#d31d5c"/><stop offset="53.1%" stop-color="#e61952"/><stop offset="61.6%" stop-color="#ed174e"/><stop offset="100%" stop-color="#f9e57e"/></linearGradient><linearGradient id="AR" y2="198.61%" x2="-150.22%" y1="0.73%" x1="141.05%"><stop offset="0%" stop-color="#d4e5ee"/><stop offset="7.2%" stop-color="#ccdee8"/><stop offset="18.6%" stop-color="#b5cbd7"/><stop offset="32.7%" stop-color="#90abbc"/><stop offset="48.8%" stop-color="#5e8096"/><stop offset="55.4%" stop-color="#476c85"/><stop offset="59.4%" stop-color="#5c7e95"/><stop offset="68.5%" stop-color="#87a3b5"/><stop offset="77.3%" stop-color="#a9c0ce"/><stop offset="85.7%" stop-color="#c1d4df"/><stop offset="93.5%" stop-color="#cfe1ea"/><stop offset="100%" stop-color="#d4e5ee"/></linearGradient><linearGradient id="AS" y2="158.74%" x2="29.40%" y1="-268.72%" x1="110.68%"><stop offset="0%" stop-color="#d4e5ee"/><stop offset="7.2%" stop-color="#ccdee8"/><stop offset="18.6%" stop-color="#b5cbd7"/><stop offset="32.7%" stop-color="#90abbc"/><stop offset="48.8%" stop-color="#5e8096"/><stop offset="55.4%" stop-color="#476c85"/><stop offset="59.4%" stop-color="#5c7e95"/><stop offset="68.5%" stop-color="#87a3b5"/><stop offset="77.3%" stop-color="#a9c0ce"/><stop offset="85.7%" stop-color="#c1d4df"/><stop offset="93.5%" stop-color="#cfe1ea"/><stop offset="100%" stop-color="#d4e5ee"/></linearGradient><linearGradient id="AT" y2="303.14%" x2="-26.33%" y1="-125.92%" x1="103.00%"><stop offset="0%" stop-color="#d4e5ee"/><stop offset="7.2%" stop-color="#ccdee8"/><stop offset="18.6%" stop-color="#b5cbd7"/><stop offset="32.7%" stop-color="#90abbc"/><stop offset="48.8%" stop-color="#5e8096"/><stop offset="55.4%" stop-color="#476c85"/><stop offset="59.4%" stop-color="#5c7e95"/><stop offset="68.5%" stop-color="#87a3b5"/><stop offset="77.3%" stop-color="#a9c0ce"/><stop offset="85.7%" stop-color="#c1d4df"/><stop offset="93.5%" stop-color="#cfe1ea"/><stop offset="100%" stop-color="#d4e5ee"/></linearGradient><linearGradient id="AU" y2="218.42%" x2="-222.00%" y1="-23.92%" x1="155.95%"><stop offset="0%" stop-color="#d4e5ee"/><stop offset="7.2%" stop-color="#ccdee8"/><stop offset="18.6%" stop-color="#b5cbd7"/><stop offset="32.7%" stop-color="#90abbc"/><stop offset="48.8%" stop-color="#5e8096"/><stop offset="55.4%" stop-color="#476c85"/><stop offset="59.4%" stop-color="#5c7e95"/><stop offset="68.5%" stop-color="#87a3b5"/><stop offset="77.3%" stop-color="#a9c0ce"/><stop offset="85.7%" stop-color="#c1d4df"/><stop offset="93.5%" stop-color="#cfe1ea"/><stop offset="100%" stop-color="#d4e5ee"/></linearGradient><linearGradient id="AV" y2="215.95%" x2="-46.54%" y1="-21.10%" x1="99.34%"><stop offset="0%" stop-color="#d4e5ee"/><stop offset="7.2%" stop-color="#ccdee8"/><stop offset="18.6%" stop-color="#b5cbd7"/><stop offset="32.7%" stop-color="#90abbc"/><stop offset="48.8%" stop-color="#5e8096"/><stop offset="55.4%" stop-color="#476c85"/><stop offset="59.4%" stop-color="#5c7e95"/><stop offset="68.5%" stop-color="#87a3b5"/><stop offset="77.3%" stop-color="#a9c0ce"/><stop offset="85.7%" stop-color="#c1d4df"/><stop offset="93.5%" stop-color="#cfe1ea"/><stop offset="100%" stop-color="#d4e5ee"/></linearGradient><linearGradient id="AW" y2="218.81%" x2="-121.12%" y1="-18.82%" x1="115.54%"><stop offset="0%" stop-color="#d4e5ee"/><stop offset="7.2%" stop-color="#ccdee8"/><stop offset="18.6%" stop-color="#b5cbd7"/><stop offset="32.7%" stop-color="#90abbc"/><stop offset="48.8%" stop-color="#5e8096"/><stop offset="55.4%" stop-color="#476c85"/><stop offset="59.4%" stop-color="#5c7e95"/><stop offset="68.5%" stop-color="#87a3b5"/><stop offset="77.3%" stop-color="#a9c0ce"/><stop offset="85.7%" stop-color="#c1d4df"/><stop offset="93.5%" stop-color="#cfe1ea"/><stop offset="100%" stop-color="#d4e5ee"/></linearGradient><linearGradient id="AX" y2="665.95%" x2="17.55%" y1="-1172.31%" x1="106.91%"><stop offset="0%" stop-color="#d4e5ee"/><stop offset="7.2%" stop-color="#ccdee8"/><stop offset="18.6%" stop-color="#b5cbd7"/><stop offset="32.7%" stop-color="#90abbc"/><stop offset="48.8%" stop-color="#5e8096"/><stop offset="55.4%" stop-color="#476c85"/><stop offset="59.4%" stop-color="#5c7e95"/><stop offset="68.5%" stop-color="#87a3b5"/><stop offset="77.3%" stop-color="#a9c0ce"/><stop offset="85.7%" stop-color="#c1d4df"/><stop offset="93.5%" stop-color="#cfe1ea"/><stop offset="100%" stop-color="#d4e5ee"/></linearGradient><linearGradient id="AY" y2="148.52%" x2="33.20%" y1="-262.06%" x1="102.95%"><stop offset="0%" stop-color="#d4e5ee"/><stop offset="7.2%" stop-color="#ccdee8"/><stop offset="18.6%" stop-color="#b5cbd7"/><stop offset="32.7%" stop-color="#90abbc"/><stop offset="48.8%" stop-color="#5e8096"/><stop offset="55.4%" stop-color="#476c85"/><stop offset="59.4%" stop-color="#5c7e95"/><stop offset="68.5%" stop-color="#87a3b5"/><stop offset="77.3%" stop-color="#a9c0ce"/><stop offset="85.7%" stop-color="#c1d4df"/><stop offset="93.5%" stop-color="#cfe1ea"/><stop offset="100%" stop-color="#d4e5ee"/></linearGradient><linearGradient id="AZ" y2="106.76%" x2="27.68%" y1="-175.46%" x1="120.24%"><stop offset="0%" stop-color="#d4e5ee"/><stop offset="7.2%" stop-color="#ccdee8"/><stop offset="18.6%" stop-color="#b5cbd7"/><stop offset="32.7%" stop-color="#90abbc"/><stop offset="48.8%" stop-color="#5e8096"/><stop offset="55.4%" stop-color="#476c85"/><stop offset="59.4%" stop-color="#5c7e95"/><stop offset="68.5%" stop-color="#87a3b5"/><stop offset="77.3%" stop-color="#a9c0ce"/><stop offset="85.7%" stop-color="#c1d4df"/><stop offset="93.5%" stop-color="#cfe1ea"/><stop offset="100%" stop-color="#d4e5ee"/></linearGradient><linearGradient id="Aa" y2="104.28%" x2="3.93%" y1="-159.78%" x1="164.15%"><stop offset="0%" stop-color="#d4e5ee"/><stop offset="7.2%" stop-color="#ccdee8"/><stop offset="18.6%" stop-color="#b5cbd7"/><stop offset="32.7%" stop-color="#90abbc"/><stop offset="48.8%" stop-color="#5e8096"/><stop offset="55.4%" stop-color="#476c85"/><stop offset="59.4%" stop-color="#5c7e95"/><stop offset="68.5%" stop-color="#87a3b5"/><stop offset="77.3%" stop-color="#a9c0ce"/><stop offset="85.7%" stop-color="#c1d4df"/><stop offset="93.5%" stop-color="#cfe1ea"/><stop offset="100%" stop-color="#d4e5ee"/></linearGradient></defs><symbol id="Ab" overflow="visible"><g stroke="#d9d9d9" fill="#dcddde" class="B"><path d="M63.255 16.684c-5.115-.704-23.996-1.657-32.42-3.037-6.776-1.108-13.392-3.125-19.707-5.243-1.633-.548-4.527-1.673-6.374-2.667C3.584 4.842.768 3.516 0 2.258 12.24 8.07 17.164 9.67 31.53 12.577c5.822 1.196 27.016 2.912 31.726 4.107z" class="C"/><g class="D"><path d="M39.65 15.893l-.4-.433-.36-.36-.332-.288-.29-.19-.264-.086.448.028.264.03.26.028.264.03.264.03.264.014.23.03.36.332.347.317.304.318.275.318.274.302.505.59.264.275.26.274.275.245.29.245.332.226.347.217.4.202.434.188.49.158-.548.188-.535.045-.535-.087-.535-.216-.52-.29-.52-.375-.492-.43-.5-.463-.463-.475-.434-.477z"/><path d="M41.79 16.6l-.347-.4-.36-.4-.362-.4-.36-.36-.375-.332.143.014h.16l.145.015.158.014.16.014.158.03.158.013.16.015.158.014.173.014.16.03.346.028.174.014h.173l.174.015.13.202.158.246.203.288.217.304.264.332.275.332.29.346.304.332.318.318.317.304.334.274.318.226.318.187.318.13.303.075h.3l-.637.103-.592.014-.55-.057-.52-.13-.477-.202-.434-.246-.434-.29-.4-.332-.4-.346-.36-.375z"/><path d="M44.446 17.424l-.347-.375-.36-.448-.376-.5-.4-.534-.406-.606h.246l.23.015.463.057.226.03.23.027h.534l.233.23.216.245.217.23.217.26.217.245.202.264.217.245.204.264.432.5.23.245.218.232.737.65.275.188-.36.044-.347.03-.332-.014-.332-.058-.333-.075-.318-.13-.317-.16-.333-.217-.332-.245-.333-.288zm1.462-.77l-.304-.36-.29-.36-.275-.317-.264-.275-.232-.23 1.546.144.174.226.188.23.173.232.173.226.174.23.19.232.173.226.188.23.203.216.203.226.202.218.232.215.23.217.246.217.264.203.274.2-.274.146-.302.058-.305-.044-.317-.13-.318-.19-.332-.264-.332-.288-.334-.346-.317-.362-.334-.374z"/><path d="M47.74 17.348l-.334-.388-.318-.415-.318-.432-.304-.434-.303-.415.26.043.202.014.145.014.26.03h.13l.19.014.246.014.275.4.274.36.275.348.304.303.29.274.29.264.303.226.29.203.29.172.3.16.274.115.264.102.264.087.232.057.23.03.203.014-.453.3-.415.19-.415.087h-.405l-.4-.075-.375-.13-.36-.204-.362-.258-.347-.318-.348-.332zm1.3-.263l-.303-.303-.29-.318-.275-.346-.275-.362-.264-.375.29.015.318.028.303.03.304.015.264.03.216.014.16.015.072.014.03.03.075.075.116.115.144.145.158.174.203.203.218.216.245.232.276.23.288.245.3.232.318.23.332.216.332.202.347.174.347.143-.463.057-.447.03-.434-.03-.415-.057-.39-.086-.4-.13-.36-.16-.347-.202-.347-.216-.318-.245z"/><path d="M50.962 16.997l-.318-.29-.304-.303-.29-.29-.264-.3-.245-.29h.173l.217.015.226.013h.245l.232.028.23.015.187.015.16.028v.03l.058.075.143.13.203.16.246.202.288.23.32.246.333.245.347.258.346.26.332.245.32.216.29.202.264.158.203.115.144.072-.4.076-.377.03-.4-.043-.4-.072-.4-.128-.375-.16-.376-.188-.377-.23-.347-.244-.346-.264z"/><path d="M52.36 16.664l-.377-.318-.332-.26-.245-.216-.16-.143-.072-.06.188.015.42.027.216.015.232.027.462.03.246.014.26.16.26.16.507.332.264.172.246.188.26.174.246.174.51.36.26.173.246.174.52.318.246.16.264.144-.23.23-.304.1-.376.001-.415-.1-.463-.173-.475-.244-.505-.29-.492-.317-.49-.347-.463-.345z"/><path d="M55.396 17.424l-.404-.275-.448-.303-.477-.332-.52-.346-.58-.36.246.015.274.015h.245l.245.014.217.014.174.015.115.015.044.013.03.043.087.087.13.115.173.16.217.187.246.22.264.215.303.23.304.226.318.232.318.2.333.203.317.172.318.145.304.1.275.06-.246.086-.245.044-.245.014-.246-.038-.245-.073-.264-.1-.274-.145-.29-.174-.318-.202-.332-.226z"/><path d="M55.454 16.792l-.275-.264-.246-.216-.187-.188-.145-.13-.088-.088.232.015.218.015.215.014.217.028.202.015.218.014.226.028.23.015.173.158.19.158.36.333.188.188.188.174.202.174.204.174.404.318.218.143.2.13.232.113.217.1.23.073.23.057-.332.13-.36.057-.377-.027-.4-.1-.404-.145-.4-.188-.405-.23-.376-.264-.36-.26-.347-.275zm2.182.46l-.55-.5-.264-.264-.264-.245-.264-.232.16.015.173.03.39.03.217.028.23.015.246.028.23.014.072.174.1.173.102.16.13.158.143.145.318.288.187.116.19.115.203.1.216.1.217.072.457.115.246.03.245.015-.288.202-.288.13-.29.058-.29.015-.3-.057-.288-.088-.29-.13-.288-.174-.275-.188-.29-.226z"/><path d="M58.82 17.28l-.232-.186-.202-.204-.173-.216-.13-.245-.087-.246.173.015.174.014.188.03.19.015.187.014.415.03.246.014.1.144.116.145.115.13.115.116.116.115.13.087.13.102.13.087.143.075.16.072.158.075.174.058.173.058.187.057.203.043.204.058-.246.1-.264.073-.274.043-.304.001-.29-.015-.318-.044-.606-.172-.3-.13-.275-.145z"/><path d="M60.395 17.148l-.203-.145-.203-.158-.173-.174-.13-.174-.115-.188.245.03.145.014.13.014.13.015.116.014h.202v.057l.13.115.217.16.29.188.346.187.347.19.347.143.304.087-.087.087-.13.057-.158.03h-.173l-.202-.014-.216-.043-.232-.073-.23-.076-.23-.102-.232-.116z"/><path d="M61.045 16.82l-.174-.13-.158-.116-.116-.087-.075-.058-.014-.03 1.126.13.087.057.145.073.173.087.19.087.202.102.188.076.173.075.145.043-.03.202-.072.13-.115.06-.158.03-.19-.03-.217-.075-.216-.087-.232-.115-.232-.13-.217-.143z"/><path d="M63.08 17.09h-.203l-.264-.076-.264-.13-.275-.143-.246-.13-.202-.086.246.015.217.015.202.013.188.014.174.015.188.013.188.03.218.043-.044.275z"/><path d="M63.167 16.194l-.203-.073-.274-.012-.29.057-.29.073-.246.087-.19.058.247.043.216.03.188.043.19.03.173.043.173.043.203.044.217.057.015-.318zM41.135 11.93l-.405.376-.404.36-.404.347-.405.332-.415.304.145.028.16.014.158.015.145.03.16.015.158.014.173.014.16.015.16.013.174.015.173.03.333.03.172.028.188.014.173.03.144-.2.187-.247.217-.29.26-.3.274-.318.304-.318.332-.318.332-.304.362-.29.36-.26.36-.232.376-.187.36-.145.36-.087.36-.015.332.057-.635-.245-.604-.16-.563-.043-.535.03-.52.113-.476.174-.463.246-.447.275-.434.32-.415.347z"/><path d="M43.893 11.585l-.4.362-.415.415-.415.478-.447.535-.477.592.264.015.23.027.217.015.2.03.203.03.216.03.247.043.288.044.264-.216.245-.23.264-.246.23-.247.5-.5.23-.246.245-.245.246-.23.26-.217.246-.217.26-.217.274-.188.29-.16.29-.158.304-.13-.362-.13-.347-.086-.33-.057-.348-.03-.33.03-.347.072-.332.1-.347.16-.36.203-.362.264z"/><path d="M45.122 12.71l-.347.36-.317.332-.592.568-.264.216 1.575.187.202-.23.202-.232.188-.23.2-.23.203-.23.2-.245.418-.453.462-.433.246-.203.26-.188.274-.187.29-.16.303-.144.318-.13-.274-.226-.305-.116-.332-.028-.332.075-.36.144-.36.203-.375.264-.376.303-.376.332-.375.347z"/><path d="M46.985 12.334l-.708.766-.346.42-.346.415-.347.415.275.015.226.014.188.015.346.057.19.028.216.03.26.043.303-.4.288-.347.303-.318.29-.275.302-.23.29-.203.275-.174.29-.144.275-.113.26-.087.275-.072.264-.058.245-.03.246-.028h.245.23l-.434-.415-.415-.302-.405-.2-.405-.116-.404-.014-.4.058-.4.145-.376.188-.375.264-.36.303z"/><path d="M48.55 12.935l-.33.264-.333.3-.317.317-.304.348-.303.376.303.044.347.038.695.087.317.043.245.03.19.014h.075l.028-.028.073-.058.1-.1.13-.13.16-.158.187-.16.217-.187.245-.203.274-.19.29-.202.318-.19.346-.187.347-.16.375-.144.4-.13.405-.087-.478-.174-.447-.13-.448-.075-.415-.03h-.415l-.404.058-.4.088-.376.13-.375.158-.347.203z"/><path d="M50.727 13.472l-.375.245-.333.26-.332.274-.302.275-.274.275.187.014.23.03.535.058.275.028.246.03.217.014h.158v-.03l.072-.075.143-.1.217-.145.264-.158.304-.19.347-.203.36-.2.36-.204.376-.203.377-.187.346-.172.32-.146.287-.116.232-.073.187-.043-.4-.158-.4-.116-.415-.043h-.405l-.415.044-.415.087-.404.13-.415.16-.4.188-.4.203z"/><path d="M52.245 14.136l-.434.274-.36.232-.275.173-.187.13-.087.044.203.044.226.03.246.028.264.014.274.03.275.028.52.087.275-.13.26-.13.275-.143.26-.145.264-.13.26-.144.275-.145.26-.143.264-.132.26-.144.275-.13.26-.115.264-.13.274-.115.274-.113.275-.1-.203-.318-.303-.188-.376-.07h-.433l-.477.1-.52.16-.55.217-.534.246-.55.275-.505.29zm3.237.503l-.303.203-.274.19-.217.174-.158.116-.087.073.23.028.217.03.187.03.19.014.202.014.187.03.217.03.226.028.203-.128.203-.13.217-.16.216-.145.226-.16.23-.16.23-.16.462-.29.245-.116.246-.115.232-.088.244-.075.232-.044h.23l.23.014-.318-.226-.36-.13-.376-.057H58.3l-.42.075-.433.13-.415.158-.415.19-.4.217-.39.217z"/><path d="M55.528 13.902l-.433.232-.477.245-.52.26-.566.29-.622.3.232.015.264.028.264.03.264.042.23.03.172.03.13.013.058-.013.03-.03.102-.075.13-.113.173-.13.216-.16.264-.174.275-.19.303-.19.664-.375.36-.16.36-.145.362-.115.36-.074.347-.038h.346l-.246-.16-.26-.115-.246-.058-.26-.028-.264.014-.274.057-.304.102-.316.116-.347.16-.362.174zm2.14.648l-.318.204-.318.202-.606.435-.303.187.173.03.188.015.217.044.23.027.245.03.264.027.245.03.246.03.087-.188.1-.16.115-.16.145-.144.144-.13.158-.102.19-.102.188-.087.202-.075.216-.058.217-.043.23-.03.245-.014h.246l.505.057-.264-.29-.274-.216-.275-.144-.29-.087-.29-.014-.303.03-.318.073-.303.102-.317.16-.304.158zm2.827.764l-.226.102-.218.115-.202.144-.16.16-.143.173.13.03.318.057.16.028.144.014.116.015h.115l.058-.03.143-.087.246-.116.29-.128.332-.113.375-.102.36-.058.362.014-.073-.116-.115-.104-.16-.085-.173-.06-.202-.043-.23-.014h-.23l-.264.014-.245.043-.264.06z"/><path d="M61.116 15.862l-.202.087-.174.087-.144.058-.075.058-.03.014 1.156.2.102-.043.158-.044.174-.058.203-.058.202-.043.202-.028h.188l.16.028.014-.226-.057-.174-.102-.116-.158-.072-.187-.03-.217.015-.23.03-.264.058-.5.174zm-2.21-1.056l-.264.144-.245.174-.202.202-.158.23-.13.264.19.015.172.03.19.013.203.03.202.03.216.014.23.044.245.027.087-.128.1-.116.115-.1.13-.102.144-.087.158-.087.16-.072.174-.057.174-.058.188-.043.173-.03.19-.015.188-.014h.187l.19.015.174.028-.23-.188-.245-.145-.275-.13-.304-.087-.304-.058-.303-.038H60.1l-.317.027-.303.06-.303.102zM9.686 11.15l.073.318.16.3.245.26.347.202.453.145-.073-.218-.044-.226-.043-.226-.03-.264-.015-.264v-.274l.014-.264.014-.275.03-.275.028-.274.044-.264.058-.246.043-.245.058-.217.075-.217.058-.188-.072-.028-.058-.015-.075-.03-.06-.014-.058-.03-.068-.015-.072-.03-.075-.03-.03.044-.073.116-.1.187-.13.23-.146.274-.143.304-.13.347-.114.346-.086.362-.03.347z"/><path d="M11.62 13.2l.187.1.204.075.174.03.158.014h.145l-.174-.462-.072-.264-.058-.264-.057-.29-.044-.288-.044-.29-.03-.303-.015-.304v-.32l.015-.303.028-.318.043-.303.06-.318.075-.29.087-.304-.172-.058-.175-.057-.16-.058-.158-.043-.13-.043-.143-.043-.115-.03-.102-.03-.202.792-.144.722-.075.62-.014.55.03.477.087.404.115.347.13.288.174.23.188.187zm.954.288l.216.29.275.217.317.114.362.015.418-.115-.158-.26-.158-.274-.13-.29-.116-.274-.087-.303-.088-.3-.057-.303-.058-.304-.03-.303-.015-.317v-.303l.028-.318.03-.318.057-.304.058-.318.087-.303-.145-.057-.173-.058-.52-.173-.143-.058-.13-.044-.1-.028-.087.29-.086.362-.06.405-.027.447-.015.492v.5l.044.5.073.478.103.447.13.415zm.753-1.88l-.03-.49v-.5l.043-.49.087-.477.13-.448.16.057.16.058.172.043.175.058.173.058.188.058.174.057.187.057v.303.332l.015.377.03.78.014.405.044.415.043.39.06.4.057.36.088.347.1.304.116.26.145.218.16.158.174.1-.39.03-.376-.058-.332-.143-.303-.202-.29-.275-.246-.332-.202-.375-.19-.415-.145-.448-.113-.477z"/><path d="M16.13 10.634l.015.347.014.36.001.754.03.766.03.377.043.375.073.347.076.318.115.303.13.274.16.232.202.187-.418-.1-.347-.144-.29-.2-.245-.232-.202-.275-.16-.317-.115-.347-.088-.362-.06-.404-.043-.415-.03-.896-.03-.94v-.48l-.03-.492.145.058.145.043.13.043.146.03.144.043.13.043.144.044.143.058.03.29z"/><path d="M16.16 12.3l-.001-1.433-.03-.434-.03-.404.16.043.144.043.13.044.146.043.143.043.13.043.145.03.16.043-.015.043-.028.1-.03.16-.043.203-.028.26-.03.29-.015.332.015.376.043.4.073.432.13.453.158.462.232.477.29.505.347.5.434.505-.577-.028-.492-.115-.404-.187-.333-.246-.264-.317-.19-.36-.16-.404-.102-.448-.058-.462-.043-.475z"/><path d="M17.272 13.16l-.113-.566-.072-.564-.015-.577.057-.55.116-.55 1.37.44-.014.23-.014.275.014.302.03.347.043.36.072.4.073.404.116.415.13.415.158.405.174.404.217.4.23.376.275.346.303.318.333.274-.4.072-.4-.028-.375-.13-.376-.203-.36-.273-.347-.332-.318-.404-.3-.448-.245-.477-.217-.52z"/><path d="M20.81 12.093l.028.362.014.376.044.375.03.39.044.375.058.376.075.36.088.347.116.345.13.318.16.304.188.26.202.245.245.217-.29.043-.303-.015-.303-.075-.303-.13-.303-.19-.304-.226-.29-.288-.29-.36-.264-.4-.23-.463-.218-.505-.187-.577-.146-.622-.115-.663-.074-.738-.03-.78.216.075.275.072.305.1.317.087.304.102.303.086.264.075.203.043.03.332z"/><path d="M20.927 13.61l-.044-.49-.014-.492-.03-.448-.028-.415-.044-.376.202.043.175.043.158.058.158.043.175.044.16.038.187.058.217.057.044.392.042.374.044.376.06.36.044.362.058.346.075.332.074.332.1.318.116.317.144.304.16.303.202.302.217.3.264.274.3.274-.65.03-.55-.058-.477-.158-.376-.246-.317-.303-.26-.36-.187-.404-.145-.462-.116-.462-.075-.506z"/><path d="M22.483 13.942l-.073-.5-.075-.462-.044-.434-.044-.405-.03-.347.204.044.173.042.16.044.16.03.143.043.16.028.187.058.218.043.072.564.087.535.102.5.1.462.113.415.13.404.144.346.145.333.145.303.16.274.174.232.16.216.173.202.174.16.188.144.174.13-.578.03-.498-.073-.448-.158-.39-.245-.332-.304-.29-.36-.232-.418-.202-.448-.173-.462-.13-.5z"/><path d="M24.02 14.244l-.116-.476-.102-.453-.072-.434-.057-.39-.06-.348.174.03.174.044.174.043.174.044.174.043.173.042.173.043.188.044.014.273.044.304.058.318.1.346.102.375.144.36.145.4.16.377.19.376.203.36.2.332.218.317.216.304.232.264.245.216.233.174-.55.03-.49-.075-.434-.16-.404-.23-.332-.302-.304-.347-.264-.405-.232-.432-.202-.453-.16-.476z"/><path d="M25.362 14.084l-.145-.476-.087-.405-.073-.332-.043-.245v-.143l.216.038.203.043.202.058.202.043.202.057.19.043.188.044.19.03.072.245.162.62.103.376.116.4.13.404.145.404.16.42.174.404.188.375.203.362.216.318.247.273.245.216.275.16.288.087-.566.073-.52-.075-.477-.187-.434-.29-.405-.36-.347-.433-.317-.5-.3-.505-.23-.538-.203-.52z"/><path d="M27.153 14.776l-.145-.463-.115-.433-.088-.4-.087-.346-.076-.274.158.03.16.014.143.028.13.03.145.03.13.03.115.028.13.015.044.332.075.347.088.346.086.333.113.346.13.332.144.318.347.635.203.303.232.288.226.264.275.264.274.226.304.216.332.202-.52.116h-.46l-.42-.1-.4-.202-.332-.275-.304-.332-.274-.403-.246-.434-.204-.462-.188-.476z"/><path d="M28.512 15.554l-.216-.447-.174-.477-.145-.505-.13-.52-.087-.533.188.043.19.03.202.043.187.028.188.03.174.043.19.03.174.043.087.304.072.317.087.304.074.303.087.303.086.303.115.29.13.304.16.29.175.303.217.29.26.29.3.275.346.29.405.29.448.274h-.433l-.42-.043-.404-.1-.39-.145-.36-.2-.362-.245-.317-.288-.317-.318-.275-.362-.264-.4z"/><path d="M30.057 15.872l-.216-.46-.187-.492-.16-.505-.115-.52-.088-.52.16.03.174.044.172.028.174.028.174.03.19.043.188.03.19.044.057.36.087.36.113.362.145.346.172.346.19.346.217.333.245.318.264.318.29.288.305.274.33.264.347.226.375.218.377.187.404.158-.564.044-.548-.03-.505-.087-.478-.145-.447-.187-.42-.245-.4-.3-.346-.346-.318-.36-.29-.405z"/><path d="M31.546 15.94l-.245-.415-.202-.446-.174-.463-.13-.478-.087-.5.158.028.145.014.26.03.13.014.144.03.173.028.204.03.203.42.174.39.333.723.174.332.16.303.174.288.188.274.203.275.23.245.26.264.29.226.333.245.376.226.418.23.477.226-.477-.028-.462-.075-.463-.116-.447-.172-.42-.203-.415-.244-.4-.275-.36-.318-.332-.346-.318-.375z"/><path d="M33.02 16.058l-.26-.453-.246-.447-.218-.447-.203-.463-.187-.447.13.014.174.03.434.057.23.043.203.03.172.03.13.013.174.405.19.405.218.375.216.36.246.332.26.332.275.304.303.304.303.274.334.26.346.26.362.23.375.216.404.202.405.188.434.174-.708.03-.665-.027-.592-.1-.55-.16-.505-.216-.447-.26-.42-.302-.375-.347-.347-.375-.318-.404z"/><path d="M34.882 16.403l-.377-.434-.332-.448-.303-.475-.26-.505-.217-.52.217.03.217.028.226.014.23.03.202.014.173.03.144.03.072.043.264.202.264.217.55.52.274.29.29.303.29.318.3.318.29.332.604.635.318.317.318.318.32.287.318.29.333.26-.39-.014-.404-.058-.434-.1-.447-.158-.448-.186-.453-.232-.448-.274-.448-.303-.434-.346-.42-.36zm2.312.07l-.448-.5-.448-.476-.462-.476-.463-.434-.462-.39h.16l.187.028.217.014.216.044.232.03.23.043.216.043.19.028.722.664.348.347.347.347.332.345.333.347.332.347.32.317.318.317.318.3.303.26.303.23.304.202.29.174.29.13.29.087-.376.247-.39.1-.4.001-.405-.1-.404-.203-.405-.275-.415-.346-.415-.4-.852-.9z"/><path d="M38.452 16.297l-.724-.807-.375-.4-.4-.36-.404-.346.144.015.173.014.218.028.216.015.218.028.174.014.144.015h.087l.245.057.245.115.245.16.26.216.264.26.275.304.29.318.3.346.332.36.333.36.376.376.39.362.42.36.448.332.477.302.52.275-.593.001-.563-.058-.506-.145-.492-.186-.448-.232-.415-.29-.406-.317-.375-.347-.376-.375-.36-.4zM11.544 3.694l.216-.275.247-.203.318-.115.4-.015.447.115-.145.145-.13.173-.13.217-.115.23-.115.264-.102.264-.1.29-.102.303-.086.29-.075.304-.073.303-.075.29-.058.3-.057.274-.043.245-.043.23-.075-.014-.048-.022-.075-.03-.058-.014-.057-.03-.054-.028-.072-.014-.085-.03v-.058l-.015-.158-.014-.245-.015-.304-.015-.36.028-.795.038-.415.087-.4.116-.376zm2.326-.782l.16.03.158.057.144.075.13.087.115.087-.202.188-.2.216-.174.203-.186.226-.16.232-.16.245-.144.246-.13.26-.13.274-.23.578-.1.304-.086.318-.087.318-.086.332-.073.347-.172-.03-.13-.014-.09-.03-.054-.03-.057-.014-.06-.03-.058-.015-.087-.028.188-.943.202-.795.202-.68.2-.563.204-.453.2-.36.2-.264.19-.187.202-.13.173-.058z"/><path d="M14.577 3.24l.318-.16.332-.058.333.058.318.19.332.33-.26.188-.245.217-.232.216-.216.217-.217.226-.187.264-.174.264-.158.26-.16.3-.13.29-.13.304-.1.317-.1.332-.073.347-.075.362-.058.375-.157-.043-.174-.057-.19-.058-.188-.072-.174-.075-.158-.058-.13-.057-.087-.03.043-.346.074-.4.115-.434.143-.462L13 5.5l.216-.462.226-.448.26-.415.275-.376.29-.318z"/><path d="M14.493 5.54l-.216.462-.187.492-.144.52-.116.52-.057.534.347.088.174.057.174.06.188.075.19.043.172.058.19.028.13-.332.115-.362.145-.36.13-.36.143-.376.158-.376.16-.36.158-.346.172-.333.19-.304.2-.288.204-.246.226-.217.232-.173.245-.13.264-.075-.347-.23-.347-.13-.36-.043-.347.043-.36.115-.347.19-.333.264-.318.304-.287.347-.29.405z"/><path d="M16.038 6.335l-.172.462-.172.48-.158.477-.174.448-.187.42.16.014.145.043.145.043.145.058.143.045.145.057.16.043.16.028.014-.057.014-.145.043-.188.043-.264.075-.303.102-.347.115-.376.16-.4.186-.4.217-.4.274-.39.303-.36.362-.346.404-.29.463-.26.52-.19-.55-.244-.49-.13-.434-.014-.4.073-.347.158-.304.245-.273.304-.245.36-.217.404-.187.448z"/><path d="M17.382 6.13l-.304.506-.26.534-.203.578-.128.592-.075.636 1.488.388.086-.245.116-.3.115-.303.144-.332.173-.347.175-.36.203-.362.216-.36.246-.36.273-.347.29-.317.303-.305.33-.274.362-.232.376-.203.404-.16-.333-.245-.376-.158-.404-.058-.404.015-.434.086-.433.174-.415.232-.415.3-.404.36-.376.406z"/><path d="M20.273 9.25l.16-.376.158-.39.16-.39.173-.376.188-.375.188-.376.2-.346.216-.32.232-.303.246-.274.245-.246.275-.203.303-.16.303-.115-.26-.174-.288-.13-.304-.087-.332-.03-.346.03-.362.087-.36.144-.375.217-.377.274-.375.347-.375.434-.36.49-.347.578-.346.65-.318.752-.302.823.216.043.274.058.275.087.304.087.288.1.275.072.245.075.202.058.144-.36z"/><path d="M20.966 7.746l-.2.505-.203.49-.188.477-.173.434-.172.4.202.03.174.042.16.03.318.087.173.043.188.03.216.043.19-.4.173-.39.174-.375.173-.36.173-.36.187-.332.19-.332.187-.304.217-.304.226-.274.23-.26.26-.246.3-.232.302-.202.347-.188.36-.173-.592-.317-.534-.188-.492-.043-.447.073-.39.173-.376.264-.317.333-.304.405-.264.448-.245.477z"/><path d="M22.512 8.22l-.246.476-.226.478-.203.433-.172.42-.16.36.216.043.19.043.174.043.158.03.173.043.174.043.202.03.23.044.264-.58.26-.534.244-.5.245-.453.232-.404.216-.362.443-.62.23-.246.232-.217.226-.188.245-.158.247-.116.258-.1.276-.058.288-.043-.536-.288-.505-.144-.477-.028-.462.075-.415.174-.404.264-.376.318-.347.376-.317.434-.302.444z"/><path d="M24 8.635l-.232.448-.226.453-.19.434-.172.4-.158.362.174.043.16.043.16.03.144.044.158.03.158.028.174.043.188.03.087-.288.13-.32.158-.318.188-.347.202-.347.5-.694.274-.347.288-.317.304-.32.3-.285.303-.246.318-.23.303-.188.303-.144.304-.087-.52-.245-.493-.116h-.46l-.453.088-.404.173-.383.242-.36.318-.347.36-.302.404-.29.434z"/><path d="M25.07 9.476l-.245.447-.202.39-.16.33-.087.246-.043.145.216.043.188.043.564.13.174.028.19.03.188.03.13-.245.145-.303.173-.333.203-.347.215-.4.232-.4.244-.376.264-.4.274-.362.29-.332.302-.303.303-.246.318-.203.318-.13.33-.057.333.013-.535-.287-.52-.13-.52.015-.5.145-.477.23-.462.332-.434.392-.404.433-.375.464-.332.476z"/><path d="M26.904 9.418l-.26.462-.415.84-.158.346-.145.29.174.03.144.043.13.043.116.043.13.043.115.043.116.03.13.028.13-.36.158-.36.16-.347.174-.346.203-.347.2-.318.23-.318.245-.304.264-.29.288-.264.29-.232.318-.217.347-.19.347-.158.376-.116.404-.087-.486-.314-.46-.173-.434-.043-.434.075-.404.174-.4.26-.36.318-.345.4-.318.42-.303.446z"/><path d="M28.305 9.17l-.318.42-.303.462-.264.505-.264.535-.215.566.375.058.19.043.188.058.187.043.188.058.188.043.19.028.13-.318.13-.332.13-.318.13-.333.158-.318.16-.304.19-.317.202-.29.245-.275.26-.275.304-.246.332-.232.376-.203.415-.188.475-.16.52-.13-.42-.16-.415-.1-.433-.03-.405.03-.415.088-.39.13-.4.202-.4.246-.36.29-.346.347z"/><path d="M29.763 9.472l-.317.434-.288.476-.246.505-.226.52-.202.566.174.03.174.03.592.087.203.028.404.057.102-.404.145-.375.158-.376.2-.362.217-.332.245-.318.264-.303.29-.275.317-.264.346-.216.362-.204.375-.174.404-.13.42-.116.433-.075.448-.03-.55-.226-.55-.15-.505-.075-.505-.014-.477.075-.462.13-.433.188-.42.246-.374.304-.375.347z"/><path d="M31.122 9.948l-.303.4-.264.434-.226.462-.19.505-.143.536.174.013.145.014.144.03.145.03.144.028.144.03.174.043.187.03.246-.415.23-.405.2-.36.19-.36.202-.318.188-.303.188-.29.216-.264.23-.245.26-.217.3-.202.318-.188.375-.16.404-.144.477-.13.534-.116-.49-.075-.476-.043-.476.015-.463.058-.46.116-.434.145-.415.188-.405.232-.376.275-.36.318z"/><path d="M32.567 10.294l-.303.415-.275.433-.26.463-.23.462-.23.477.116.014.158.014.174.043.19.03.187.043.174.043.158.014.13.015.216-.434.23-.4.264-.376.274-.346.29-.333.303-.304.332-.274.347-.264.36-.233.376-.216.39-.188.404-.188.415-.16.433-.145.453-.13.46-.113-.722-.172-.68-.1-.62-.028-.577.06-.535.115-.49.174-.447.216-.405.3-.39.318-.346.362z"/><path d="M34.36 10.422l-.433.4-.4.434-.36.462-.317.506-.274.55.203.015.2.03.203.043.202.043.174.043.145.044.115.014.075-.014.3-.174.287-.203.303-.23.318-.264.318-.275.33-.3.347-.29.346-.303.362-.304.36-.304.376-.303.376-.275.4-.275.375-.246.404-.23.39-.203-.404-.075-.42-.014-.462.015-.476.072-.478.102-.5.145-.49.188-.5.232-.5.275-.462.32z"/><path d="M36.468 10.955l-.506.448-.52.453-.52.42-.52.4-.52.347.158.028.19.014.23.015.23.014.245.014h.463l.188-.001.4-.29.754-.604.346-.318.347-.304.333-.304.33-.304.332-.29.347-.26.332-.245.347-.217.36-.19.376-.16.4-.13.405-.073.415-.044-.36-.36-.4-.216-.405-.087-.415.03-.433.116-.462.217-.463.3-.5.332-.997.824z"/><path d="M37.566 11.504l-.42.376-.836.723-.448.318-.447.304.143.014.188.028.218.03.217.014.216.03.19.027.143.015.087.014h.26l.264-.075.274-.13.29-.187.29-.232.318-.274 1.04-.955.39-.346.415-.333.434-.318.475-.305.49-.274.52-.246.563-.19-.603-.143-.563-.057-.534.03-.507.103-.476.174-.462.217-.447.275-.433.304-.83.695z"/><path d="M38.766 12.27l-.433.375-.4.318-.36.245-.318.145-.274.044.226.03.246.043.274.043.29.044.29.028.29.043.275.014.246.014.404-.304.36-.29.33-.29.317-.274.29-.275.274-.274.29-.26.274-.245.275-.23.303-.218.317-.203.347-.187.376-.174.404-.145.462-.13.505-.116-.534-.304-.564-.128h-.55l-.566.116-.564.217-.564.303-.548.362-.534.4-.506.434-.49.434zM9.276 2.222l.013-.174.014-.173.03-.173.042-.174.043-.158-.226.303-.174.333-.13.318-.075.332-.03.347v.347l.044.346.073.347.086.346.113.333.26.664.145.318.13.318.13.288.13.29-.028-.057-.014-.102-.016-.1v-.13l-.014-.16v-.332-.187l-.015-.19v-.188l-.015-.2-.015-.188-.014-.173-.03-.173-.028-.16-.044-.144-.072-.144-.058-.16-.057-.16-.043-.158-.044-.174-.043-.187-.03-.173-.016-.19-.014-.173-.013-.19z"/><path d="M7.993 8.406l.246-.144.23-.146.247-.128.26-.146.264-.144-.226.226-.232.233-.23.226-.23.217-.245.226-.246.203-.245.204-.26.188-.245.174-.264.144-.245.13-.26.102-.264.087-.26.043-.26.014-.264-.014.275-.16.275-.174.52-.318.245-.144.246-.16.232-.145.226-.158.246-.144.23-.145zm1.255-2.513l.13.172.145.16.13.173.13.173.13.174-.058-.187-.073-.19-.075-.203-.174-.404-.1-.19-.113-.188L9.2 5.2l-.144-.174-.174-.143-.188-.145-.203-.13-.23-.102-.246-.087-.288-.058-.304-.03.202.116.19.13.187.13.347.26.16.144.16.158.16.144.29.318z"/><path d="M10.013 5.544l.088.528.043.264.057.264.06.274.03-.317.043-.304.058-.635.014-.304.014-.304-.015-.304-.015-.288-.03-.29-.044-.26-.073-.264-.087-.245-.1-.216-.145-.203-.16-.174-.187-.158.058.29.043.29.058.29.044.264.03.274.043.264.03.264.043.264.028.26.044.264zM8.73 5.386l.245.264.232.264.2.216.175.204.145.158-.03-.433-.058-.375-.075-.318-.116-.288-.115-.245-.146-.217-.144-.202-.16-.19-.144-.187-.16-.187-.144-.203-.116-.23-.115-.26-.087-.29-.073-.347-.028-.39-.26.244-.157.275-.075.29-.015.304.058.303.116.318.16.318.19.317.217.303.226.303z"/><path d="M10.17 3.695l.057-.264.073-.264.1-.264.086-.264.115-.264-.415.405-.346.4-.245.362-.172.347-.116.332-.057.303-.014.304.03.274.074.264.07.245.102.232.102.2.087.203.086.173.058.173.03.145v-.304l.015-.29.013-.288.015-.3.014-.275L9.96 5l.03-.274.028-.26.044-.26.043-.275zM8.15 7.872l.448-.03.664-.087-.188.087-.19.076-.202.088-.203.075-.217.073-.444.116-.226.03-.23.015h-.245L6.87 8.3l-.247-.057-.245-.075-.245-.102-.245-.143-.247-.173.23.043.232.044.462.057.226.014.232.014h.444l.23-.015h.216z"/><path d="M5.163 9.636l-.146.1-.13.116-.116.116-.115.115-.102.13.1-.346.16-.305.186-.26.232-.245.26-.203.3-.19.317-.158.332-.13.697-.234.36-.088.36-.087.36-.073.347-.076.318-.058.318-.072-.16.058-.216.115-.264.175-.317.188-.318.202-.332.19-.318.174-.3.116-.174.03-.158.028-.174.043-.172.044-.175.073-.172.057-.16.073-.173.087-.16.087-.158.1zm3.12-1.072l.333-.174.302-.158.29-.146.245-.13.187-.113-.2.42-.203.347-.216.275-.202.246-.217.188-.216.174-.65.39-.218.144-.216.145-.202.174-.203.212-.202.264-.188.304-.188.375-.13-.332-.044-.318.044-.318.116-.29.172-.275.23-.274.274-.264.303-.232.318-.23.332-.202z"/><path d="M8.515 10.573l-.087.245-.075.264-.072.245-.058.264-.057.275-.145-.55-.075-.477-.015-.434.043-.375.086-.318.13-.29.158-.246.173-.203.203-.19.202-.158.216-.13.202-.115.187-.115.174-.1.242-.218-.16.246-.16.246-.158.245-.143.23-.13.23-.13.245-.13.232-.115.23-.115.246-.1.245z"/></g></g><g stroke="#231f20"><path d="M63.27 15.314c-5.115-.704-23.996-1.657-32.42-3.037-6.775-1.108-13.392-3.125-19.707-5.243C9.51 6.486 6.617 5.36 4.77 4.367 3.6 3.472.783 2.14.015.888c12.24 5.812 17.17 7.412 31.53 10.32 5.822 1.196 27.016 2.912 31.726 4.112z" fill="#231f20" class="B C"/><g class="D"><path d="M39.664 14.523l-.39-.433-.36-.36-.332-.288-.29-.19-.264-.086.448.028.264.03.26.028.52.06.264.014.23.03.36.332.347.317.304.318.275.318.274.302.506.59.52.55.275.245.29.245.332.226.347.218.4.202.434.187.49.158-.548.188-.535.044-.535-.087-.535-.216-.52-.29-.52-.375-.492-.432-.5-.462-.463-.475-.434-.478z" fill="url(#A)" class="B"/><path d="M41.804 15.23l-.347-.39-.36-.4-.362-.4-.36-.36-.375-.332.143.014h.16l.145.015.318.028.158.03.16.014.158.015.158.014.174.014.16.03.52.038h.174l.174.015.13.202.158.246.203.288.217.304.264.332.275.332.29.346.304.332.318.318.317.303.334.274.318.23.318.187.318.13.303.075h.3l-.637.102-.592.014-.55-.057-.52-.13-.477-.2-.434-.246-.434-.29-.4-.332-.4-.346-.36-.375z" fill="url(#B)" class="B"/><path d="M44.462 16.05l-.347-.375-.36-.448-.376-.5-.4-.534-.405-.607.245-.001.23.015.232.03.23.03.226.03.23.027h.534l.233.23.216.245.217.232.216.26.217.245.202.264.217.245.204.264.216.245.217.245.23.245.218.232.737.65.275.19-.36.044-.347.03-.332-.014-.332-.058-.333-.075-.318-.13-.317-.16-.333-.216-.332-.245-.333-.288z" fill="url(#C)" class="B"/><path d="M45.92 15.283l-.304-.36-.29-.36-.275-.317-.264-.275-.232-.232 1.546.144.174.23.188.226.173.232.174.23.173.232.19.23.174.23.188.23.203.216.203.226.203.218.23.215.23.216.246.217.264.202.274.2-.274.146-.303.058-.304-.044-.318-.13-.318-.19-.332-.264-.332-.288-.333-.346-.317-.36-.334-.375z" fill="url(#D)" class="B"/><path d="M47.756 15.975l-.333-.39-.318-.415-.318-.432-.304-.434-.303-.415.26.043.202.014.145.014.26.03h.13l.19.014.246.014.275.4.274.36.275.347.304.303.29.274.29.264.303.226.29.202.29.173.3.158.274.115.264.1.264.087.232.057.23.028.203.014-.453.29-.415.19-.415.087h-.405l-.4-.072-.375-.13-.36-.203-.362-.26-.347-.317-.348-.332z" fill="url(#E)" class="B"/><path d="M49.055 15.715l-.303-.303-.29-.318-.275-.346-.275-.362-.264-.375.29.015.318.028.303.03.304.014.264.03.216.013.158.015.073.014.03.03.075.075.116.116.144.145.16.174.202.202.218.216.244.232.276.23.288.245.3.232.318.226.332.216.332.202.347.174.347.143-.463.058-.447.03-.434-.03-.415-.057-.39-.086-.4-.13-.36-.16-.347-.202-.347-.216-.318-.245z" fill="url(#F)" class="B"/><path d="M50.977 15.627l-.318-.29-.304-.303-.29-.29-.264-.29-.245-.29h.173l.217.015.226.014h.245l.232.027.23.015.187.015.16.03v.03l.058.075.143.13.203.158.246.202.288.23.32.246.333.244.347.26.346.264.332.245.32.217.29.202.264.16.203.115.144.072-.4.072-.376.03-.4-.043-.4-.075-.4-.13-.375-.16-.376-.187-.377-.226-.347-.245-.346-.264z" fill="url(#G)" class="B"/><path d="M52.378 15.294L52 14.976l-.332-.26-.245-.217-.16-.143-.072-.058.188.014.203.014.217.014.216.015.232.027.462.03.246.014.26.158.26.16.26.172.245.16.264.172.246.188.26.173.246.174.51.36.26.174.246.173.52.318.246.16.264.145-.23.23-.304.1h-.376l-.415-.1-.463-.174-.475-.244-.505-.3-.492-.317-.49-.347-.462-.345z" fill="url(#H)" class="B"/><path d="M55.41 16.053l-.404-.275-.448-.303-.477-.332-.52-.346-.58-.36.246.015.274.015h.245l.245.014.217.014.174.014.115.015.044.014.03.043.087.087.13.116.173.16.216.188.246.218.264.215.603.462.318.23.318.2.333.203.317.172.318.145.304.1.275.058-.246.087-.245.044-.245.014-.246-.038-.245-.073-.264-.1-.274-.144-.29-.174-.318-.202-.332-.23z" fill="url(#I)" class="B"/><path d="M55.47 15.42l-.275-.264-.246-.216-.187-.19-.145-.128-.088-.088.232.014.218.015.215.014.217.028.202.015.218.014.226.028.23.014.173.158.19.158.173.16.19.174.188.188.188.174.202.174.204.173.404.318.218.143.2.13.232.113.217.1.23.073.23.057-.332.13-.36.057-.376-.027-.4-.1-.404-.144-.4-.188-.405-.226-.376-.264-.36-.264-.347-.274z" fill="url(#J)" class="B"/><path d="M57.65 15.88l-.55-.5-.264-.264-.264-.245-.264-.232.16.015.174.03.39.03.217.028.23.015.246.028.23.014.072.174.1.173.102.16.13.16.143.144.318.288.188.115.19.116.203.1.216.1.217.076.23.058.226.057.246.03.245.015-.288.202-.288.13-.29.058-.29.015-.3-.057-.288-.088-.29-.13-.29-.173-.275-.188-.29-.23z" fill="url(#K)" class="B"/><path d="M58.835 15.91l-.232-.187-.202-.203-.173-.216-.13-.246-.087-.246.173.015.174.014.188.03.375.03.203.014.217.015.246.014.1.145.116.144.115.13.115.115.116.115.13.087.13.102.13.087.143.075.318.15.173.058.174.057.187.057.203.043.204.058-.246.1-.264.073-.274.043h-.304l-.29-.014-.318-.043-.303-.087-.303-.086-.3-.13-.275-.145z" fill="url(#L)" class="B"/><path d="M60.41 15.778l-.203-.145-.203-.158-.173-.174-.13-.173-.115-.188.245.03.144.014.13.014.245.03h.202v.058l.13.115.217.16.29.188.693.375.347.143.304.087-.087.087-.13.057-.158.03h-.174l-.202-.014-.216-.043-.232-.073-.23-.076-.23-.102-.232-.116z" fill="url(#M)" class="B"/><path d="M61.06 15.447l-.174-.13-.158-.116-.116-.087-.075-.058-.014-.03 1.126.128.087.057.146.073.173.087.19.087.202.1.188.075.173.072.145.043-.03.203-.072.13-.115.06-.158.03-.19-.028-.217-.073-.216-.086-.232-.116-.232-.13-.217-.143z" fill="url(#N)" class="B"/><path d="M63.096 15.72h-.203l-.264-.075-.264-.13-.275-.144-.246-.13-.202-.087.246.015.216.015.202.014.188.014.174.015.188.014.188.03.218.043-.044.275z" fill="url(#O)" class="B"/><path d="M63.183 14.823l-.203-.072-.274-.013-.29.057-.29.073-.245.087-.19.058.246.042.216.03.187.043.19.028.173.043.174.044.203.044.217.058.015-.318z" fill="url(#P)" class="B"/><path d="M41.15 10.564l-.405.376-.404.36-.404.347-.405.333-.415.304.145.027.158.014.158.015.145.03.16.015.158.014.173.014.16.015.16.013.174.015.173.03.333.03.172.028.188.014.173.03.144-.202.187-.246.217-.29.26-.29.274-.318.304-.318.332-.318.332-.304.362-.29.36-.26.36-.232.376-.187.36-.145.36-.087.36-.015.332.058-.635-.246-.604-.16-.566-.043-.535.03-.52.113-.476.174-.463.246-.447.275-.434.318-.415.347z" fill="url(#Q)" class="B"/><path d="M43.908 10.215l-.4.362-.418.415-.415.477-.447.535-.477.592.264.015.23.027.217.015.404.057.216.03.247.043.288.044.264-.216.245-.23.264-.247.23-.246.5-.5.23-.246.245-.246.246-.23.26-.216.246-.217.26-.217.274-.188.29-.16.29-.16.304-.13-.362-.13-.347-.085-.33-.058-.348-.03-.33.03-.347.073-.332.1-.347.16-.36.203-.362.26z" fill="url(#R)" class="B"/><path d="M45.137 11.338l-.347.36-.317.332-.317.303-.275.26-.264.217 1.575.187.202-.23.202-.232.19-.232.2-.226.203-.23.202-.246.216-.232.202-.217.462-.433.246-.203.26-.188.274-.187.29-.16.303-.144.318-.13-.274-.23-.305-.115-.332-.028-.332.075-.36.145-.36.203-.375.26-.376.304-.376.332-.375.347z" fill="url(#S)" class="B"/><path d="M47 10.96l-.708.766-1.038 1.257.275.015.226.013.188.015.174.03.173.03.19.028.216.03.26.042.303-.4.29-.347.303-.318.29-.274.302-.23.29-.204.275-.174.29-.144.275-.113.26-.087.275-.073.264-.057.245-.03.246-.028h.245.23l-.434-.42-.415-.302-.405-.202-.405-.115-.404-.014-.4.058-.4.145-.376.188-.375.264-.36.303z" fill="url(#T)" class="B"/><path d="M48.56 11.57l-.33.264-.333.29-.317.318-.304.348-.303.376.303.043.347.042.695.087.317.043.245.03.19.014h.075l.028-.03.073-.058.1-.1.13-.13.16-.158.187-.16.217-.187.245-.203.274-.19.29-.202.318-.19.346-.187.347-.16.375-.144.4-.13.405-.086-.478-.174-.448-.13-.448-.075-.415-.03h-.415l-.404.06-.4.087-.376.13-.375.16-.347.203z" fill="url(#U)" class="B"/><path d="M50.742 12.102l-.375.246-.333.26-.332.274-.302.274-.274.275.187.014.23.03.264.028.55.058.246.03.216.014h.16v-.03l.072-.072.143-.1.217-.145.264-.16.304-.19.347-.203.36-.2.36-.204.376-.203.722-.36.32-.146.287-.116.232-.073.187-.044-.4-.158-.39-.115-.415-.043h-.405l-.415.044-.415.086-.404.13-.415.16-.4.188-.4.203z" fill="url(#V)" class="B"/><path d="M52.26 12.766l-.434.274-.36.232-.275.174-.187.13-.087.044.203.044.226.03.246.028.264.015.274.03.275.028.52.087.275-.13.26-.13.275-.143.26-.145.264-.13.26-.145.275-.145.26-.144.264-.132.26-.144.275-.13.26-.116.264-.13.274-.115.274-.113.275-.1-.203-.318-.303-.188-.376-.07h-.433l-.477.1-.52.16-.55.217-.534.246-.55.275-.505.29z" fill="url(#W)" class="B"/><path d="M55.496 13.27l-.303.202-.274.19-.217.174-.158.115-.087.073.23.028.216.03.187.03.19.014.202.014.187.03.217.03.226.028.203-.13.203-.13.216-.16.217-.144.226-.16.232-.158.23-.16.462-.29.244-.116.246-.115.23-.088.245-.075.232-.044h.23l.23.014-.318-.226-.36-.13-.376-.057h-.404l-.42.075-.433.13-.415.16-.415.19-.78.434z" fill="url(#X)" class="B"/><path d="M55.54 12.53l-.433.232-.477.245-.52.26-.566.288-.622.29.232.015.264.028.264.03.264.042.23.03.172.03.13.013.058-.013.03-.03.102-.075.13-.113.173-.13.216-.16.264-.173.275-.19.303-.19.332-.188.333-.187.36-.16.36-.145.362-.115.36-.074.347-.042h.347l-.247-.16-.26-.115-.246-.058-.26-.028-.264.014-.274.057-.304.102-.316.116-.347.16-.362.174z" fill="url(#Y)" class="B"/><path d="M57.678 13.18l-.318.204-.318.202-.303.216-.304.218-.303.187.173.03.188.014.217.044.23.027.245.03.264.028.245.03.246.028.087-.187.102-.16.115-.16.145-.145.145-.13.158-.102.19-.102.188-.087.202-.075.216-.058.217-.043.23-.03.245-.014h.246l.505.057-.264-.29-.274-.216-.275-.144-.29-.087-.29-.014-.303.03-.318.072-.303.102-.317.16-.304.16z" fill="url(#Z)" class="B"/><path d="M60.51 13.943l-.226.102-.218.116-.2.145-.16.16-.143.173.13.03.16.03.158.03.16.028.144.014.116.015h.115l.058-.03.143-.087.246-.115.29-.13.332-.113.375-.1.36-.058.362.014-.073-.115-.115-.1-.16-.086-.173-.06-.202-.043-.23-.014h-.23l-.264.014-.245.043-.264.06z" fill="url(#a)" class="B"/><path d="M61.128 14.492l-.202.087-.174.087-.144.058-.075.057-.03.014 1.156.2.102-.042.158-.044.174-.058.203-.058.202-.043.202-.028h.188l.16.028.014-.226-.057-.174-.102-.116-.158-.075-.187-.03-.217.015-.23.03-.264.058-.245.087-.245.088z" fill="url(#b)" class="B"/><path d="M58.92 13.44l-.264.145-.245.173-.202.202-.158.23-.13.264.19.015.172.03.19.014.203.03.202.03.216.014.23.043.245.027.087-.128.1-.116.115-.1.13-.102.145-.087.158-.087.16-.073.174-.057.174-.058.187-.044.174-.03.19-.015.188-.014h.187l.19.014.174.028-.23-.188-.246-.144-.275-.13-.304-.088-.304-.058-.303-.038h-.318l-.317.027-.303.06-.303.102z" fill="url(#c)" class="B"/><path d="M9.7 9.78l.073.318.16.3.245.26.347.202.453.145-.073-.218-.044-.226-.043-.23-.03-.264-.015-.264v-.273l.014-.264.014-.275.03-.275.028-.273.044-.264.058-.245.043-.246.058-.217.075-.216.06-.188-.075-.028-.058-.015-.075-.03-.06-.014-.058-.03-.057-.015-.072-.03-.075-.03-.03.044-.073.116-.1.188-.13.23-.146.274-.143.304-.13.347-.114.346-.086.362-.03.347z" fill="url(#d)" class="B"/><path d="M11.638 11.83l.187.1.204.072.174.03.158.014h.145l-.174-.463-.072-.26-.058-.264-.057-.29-.044-.288-.044-.29-.028-.303-.016-.304v-.318l.015-.303.028-.318.043-.303.058-.318.075-.29.087-.304-.172-.058-.175-.057-.16-.058-.157-.043-.13-.043-.143-.044-.115-.03-.102-.03-.202.795-.144.722-.075.62-.014.55.03.477.087.404.115.347.13.288.174.23.188.187z" fill="url(#e)" class="B"/><path d="M12.593 12.117l.216.29.275.217.317.115.362.015.418-.116-.16-.264-.158-.274-.13-.288-.116-.274-.087-.303-.088-.29-.057-.304-.058-.303-.03-.303-.014-.317v-.304l.028-.318.03-.317.057-.304.058-.32.087-.302-.144-.058-.347-.115-.174-.058-.173-.056-.143-.058-.13-.045-.1-.028-.087.29-.086.362-.06.405-.027.447-.015.49.001.5.044.5.072.477.103.448.13.415z" fill="url(#f)" class="B"/><path d="M13.342 10.24l-.03-.49v-.5l.043-.49.087-.477.13-.448.16.057.16.058.172.043.175.058.173.058.188.058.174.058.188.057v.303.332l.015.377.03.78.014.404.044.415.043.39.06.39.057.36.088.347.1.304.116.26.145.218.158.158.174.1-.39.03-.376-.058-.332-.143-.303-.202-.29-.275-.246-.332-.202-.375-.19-.415-.145-.448-.113-.477z" fill="url(#g)" class="B"/><path d="M16.143 9.268l.015.347.014.36v.754l.03.766.03.376.043.375.073.347.075.318.115.303.13.274.16.233.202.187-.418-.1-.347-.144-.29-.2-.245-.232-.203-.275-.16-.317-.116-.347-.088-.362-.06-.404-.043-.415-.03-.896-.03-.94V8.8l-.03-.492.145.058.145.043.13.043.146.03.144.043.13.043.145.044.143.058.03.29z" fill="url(#h)" class="B"/><path d="M16.174 10.93l-.001-1.433-.03-.434-.03-.404.158.043.145.043.13.044.146.043.144.043.13.043.145.03.16.043-.015.043-.028.102-.03.16-.043.203-.028.26-.03.3-.015.332.015.376.043.4.074.432.13.453.16.462.232.477.29.505.347.5.434.505-.577-.028-.492-.115-.404-.187-.333-.245-.264-.318-.19-.36-.158-.404-.102-.448-.058-.463-.043-.475z" fill="url(#i)" class="B"/><path d="M17.287 11.795l-.113-.566-.072-.564-.015-.578.057-.548.116-.55 1.372.433-.014.23-.014.275.014.302.03.347.043.36.072.4.073.405.116.415.13.415.158.405.174.404.217.4.23.375.275.347.303.317.333.274-.4.072-.4-.027-.375-.13-.376-.203-.36-.273-.347-.332-.32-.404-.3-.448-.245-.477-.217-.52z" fill="url(#j)" class="B"/><path d="M20.827 10.723l.028.362.014.375.044.375.03.39.044.375.058.376.075.36.088.347.116.346.13.317.16.305.188.26.202.245.245.217-.29.043-.303-.014-.303-.075-.303-.13-.303-.19-.304-.23-.29-.288-.29-.36-.264-.4-.23-.463-.218-.505-.187-.576-.146-.623-.115-.663-.073-.738-.03-.78.216.075.275.075.305.1.317.086.304.102.303.086.264.075.203.043.03.332z" fill="url(#k)" class="B"/><path d="M20.942 12.24l-.044-.49-.014-.492-.03-.448-.028-.415-.044-.375.202.043.175.044.158.058.157.042.175.044.16.042.187.058.218.057.086.766.044.376.06.36.044.362.058.346.075.332.074.332.1.318.116.317.144.304.16.304.202.302.217.29.264.274.3.274-.65.03-.55-.058-.477-.158-.377-.247-.317-.302-.26-.36-.187-.405-.145-.46-.116-.462-.075-.507z" fill="url(#l)" class="B"/><path d="M22.502 12.57l-.073-.5-.075-.463-.044-.434-.044-.405-.03-.346.204.044.173.042.16.043.16.03.143.043.16.028.187.057.218.043.072.565.087.535.102.5.102.462.113.415.13.404.144.347.145.333.144.303.16.274.174.23.16.216.174.202.174.158.188.145.174.13-.578.03-.505-.072-.448-.158-.39-.245-.332-.304-.288-.36-.232-.417-.203-.448-.173-.462-.13-.5z" fill="url(#m)" class="B"/><path d="M24.034 12.873l-.116-.475-.102-.453-.072-.434-.057-.39-.06-.347.174.03.174.044.174.043.348.087.173.042.173.043.188.044.014.274.044.304.058.318.1.346.102.376.144.36.145.4.16.377.19.376.203.36.2.332.218.317.216.304.232.264.245.216.233.174-.55.03-.49-.076-.434-.16-.404-.226-.332-.303-.304-.347-.264-.404-.232-.432-.202-.453-.16-.476z" fill="url(#n)" class="B"/><path d="M25.377 12.713l-.145-.475-.087-.405-.072-.332-.043-.245v-.143l.216.042.203.043.202.057.202.044.202.057.19.043.188.043.19.03.072.245.162.62.103.376.116.4.13.404.145.404.16.42.174.404.187.375.203.362.216.318.247.273.245.217.275.158.288.087-.566.073-.52-.075-.477-.187-.434-.29-.405-.36-.347-.433-.317-.5-.3-.505-.232-.534-.203-.52z" fill="url(#o)" class="B"/><path d="M27.168 13.406l-.145-.463-.116-.433-.088-.4-.087-.346-.076-.274.16.03.16.014.143.028.13.03.145.03.13.03.115.028.13.015.045.332.075.347.088.346.086.333.113.346.13.332.144.318.347.635.203.303.232.29.226.264.275.264.274.226.304.217.332.202-.52.116h-.46l-.42-.1-.4-.202-.332-.275-.304-.332-.274-.403-.246-.434-.204-.462-.188-.475z" fill="url(#p)" class="B"/><path d="M28.527 14.184l-.216-.447-.174-.476-.145-.505-.13-.52-.087-.533.188.043.19.03.202.044.187.028.188.03.173.042.19.03.174.044.087.303.072.318.087.304.074.303.087.303.086.303.115.29.13.303.16.29.175.303.217.29.26.29.3.275.346.29.405.29.448.274-.433.001-.42-.043-.404-.1-.39-.144-.36-.2-.36-.245-.318-.288-.317-.318-.275-.362-.264-.39z" fill="url(#q)" class="B"/><path d="M30.072 14.5l-.216-.46-.187-.492-.16-.505-.115-.52-.088-.52.16.03.174.044.346.057.174.03.19.043.188.03.19.043.057.36.087.36.113.362.144.346.172.346.19.346.217.333.245.318.264.318.29.287.305.274.33.264.347.23.375.217.377.188.404.158-.564.044-.548-.03-.505-.087-.478-.143-.447-.188-.42-.245-.4-.3-.346-.346-.318-.36-.29-.405z" fill="url(#r)" class="B"/><path d="M31.56 14.572l-.245-.415-.202-.447-.174-.462-.13-.478-.087-.5.158.028.145.014.13.015.13.015.13.014.144.03.173.028.204.028.203.42.173.388.333.723.174.332.16.303.173.288.188.274.203.275.23.245.26.264.29.226.334.245.376.226.418.23.477.226-.477-.028-.462-.076-.463-.115-.447-.173-.42-.202-.415-.244-.4-.275-.36-.317-.332-.346-.318-.375z" fill="url(#s)" class="B"/><path d="M33.034 14.687l-.26-.453-.246-.446-.218-.448-.203-.462-.187-.448.13.014.174.03.216.03.217.03.23.043.203.03.172.03.13.014.173.405.19.405.218.375.216.36.246.332.26.332.275.303.303.304.303.274.334.26.346.264.362.23.375.216.404.202.405.187.434.173-.708.03-.665-.028-.592-.1-.55-.16-.505-.216-.447-.26-.42-.302-.374-.347-.347-.375-.318-.405z" fill="url(#t)" class="B"/><path d="M34.898 15.033l-.377-.434-.332-.448-.303-.476-.26-.505-.217-.52.217.03.217.028.226.014.23.03.202.014.173.03.144.03.072.043.264.202.264.217.55.52.274.29.29.302.29.318.3.32.29.332.604.635.318.317.318.318.32.288.318.29.333.26-.4-.014-.404-.058-.434-.1-.447-.158-.448-.187-.453-.23-.448-.274-.448-.303-.434-.346-.415-.36z" fill="url(#u)" class="B"/><path d="M37.21 15.102l-.448-.5-.448-.477-.462-.477-.463-.433-.462-.39h.16l.187.028.217.014.216.044.232.03.23.043.216.043.19.028.722.664.348.347.347.347.332.345.665.694.64.634.318.3.303.26.303.232.304.202.29.174.29.13.29.087-.376.247-.39.1h-.4l-.405-.1-.404-.202-.405-.275-.415-.346-.415-.4-.852-.9z" fill="url(#v)" class="B"/><path d="M38.466 14.928l-.724-.807-.375-.4-.4-.36-.404-.346.144.015.173.014.218.028.216.015.218.027.174.014.144.015h.087l.245.057.245.115.245.16.26.216.264.26.275.304.29.318.3.345.332.36.333.36.376.376.39.362.42.36.448.332.477.302.52.275h-.593l-.563-.057-.506-.145-.492-.186-.448-.232-.415-.288-.406-.317-.376-.347-.376-.375-.36-.4z" fill="url(#w)" class="B"/><path d="M11.56 2.324l.216-.274.247-.203.318-.116.4-.015.447.115-.145.145-.13.174-.13.216-.116.23-.115.264-.102.264-.1.29-.102.303-.086.29-.075.304-.073.303-.075.29-.058.3-.057.274-.043.245-.043.232-.075-.014-.058-.014-.075-.03-.06-.014-.057-.03-.06-.028-.072-.014-.085-.03V5.71l-.015-.16-.014-.245-.015-.304-.015-.36.028-.794.038-.415.087-.4.116-.376z" fill="url(#x)" class="B"/><path d="M13.886 1.54l.16.03.158.058.144.076.13.087.115.087-.202.188-.2.216-.174.203-.186.23-.16.232-.16.244-.144.246-.13.264-.13.274-.23.578-.1.304-.086.317-.087.318-.086.333-.073.347-.172-.03-.13-.014-.088-.03-.058-.03-.057-.014-.06-.03-.058-.015-.087-.028.188-.943.202-.792.202-.68.2-.563.204-.448.2-.36.2-.264.19-.187.202-.13.173-.058z" fill="url(#y)" class="B"/><path d="M14.593 1.874l.318-.16.332-.057.333.057.318.19.332.33-.26.188-.245.217-.232.217-.216.217-.216.226-.187.264-.174.264-.158.26-.16.3-.13.29-.13.303-.1.318-.1.332-.073.347-.075.362-.06.375-.157-.043-.174-.057-.19-.058-.188-.075-.174-.075-.158-.058-.13-.057-.087-.03.043-.346.074-.39.115-.434.143-.462.19-.477.216-.463.226-.447.26-.42.275-.376.29-.318z" fill="url(#z)" class="B"/><path d="M14.507 4.17l-.216.462-.187.492-.144.52-.115.52-.057.534.174.043.173.044.174.057.174.058.188.072.19.043.172.058.188.028.13-.332.115-.362.145-.36.13-.36.143-.376.158-.376.16-.36.16-.346.172-.333.19-.304.2-.29.204-.245.226-.217.232-.174.244-.13.264-.075-.347-.23-.347-.13-.36-.044-.347.044-.36.115-.347.19-.333.264-.318.303-.287.347-.29.405z" fill="url(#AA)" class="B"/><path d="M16.05 4.964l-.172.462-.172.477-.158.476-.174.448-.187.415.158.014.145.044.144.043.145.057.143.045.145.057.158.043.16.028.014-.057.014-.144.043-.188.043-.264.075-.303.102-.347.115-.376.158-.4.186-.4.217-.4.274-.4.303-.36.362-.346.404-.29.463-.26.52-.19-.55-.244-.49-.13-.434-.014-.4.073-.347.158-.304.245-.273.304-.245.36-.217.404-.187.448z" fill="url(#AB)" class="B"/><path d="M17.398 4.76l-.304.506-.26.534-.203.578-.13.592-.076.636 1.488.388.086-.245.116-.3.115-.303.144-.332.174-.347.172-.36.203-.362.216-.36.246-.36.273-.347.288-.318.303-.304.33-.275.362-.23.376-.203.404-.158-.333-.245-.376-.158-.404-.058-.404.015-.434.087-.433.174-.415.232-.415.3-.404.36-.376.406z" fill="url(#AC)" class="B"/><path d="M20.288 7.878l.16-.376.158-.39.16-.39.173-.376.188-.376.188-.376.2-.346.216-.318.232-.303.246-.274.245-.246.275-.202.303-.16.303-.115-.26-.174-.288-.13-.304-.087-.332-.028-.346.03-.362.087-.36.144-.375.218-.377.274-.375.347-.375.434-.36.492-.347.578-.346.65-.318.75-.302.824.216.043.274.057.275.087.304.087.288.1.275.075.245.075.202.057.144-.36z" fill="url(#AD)" class="B"/><path d="M20.98 6.377l-.2.505-.202.5-.19.477-.173.433-.172.39.202.03.174.042.16.03.16.043.16.043.173.043.188.03.216.042.19-.4.173-.39.174-.375.346-.723.187-.332.19-.332.187-.304.217-.304.226-.274.23-.26.26-.246.3-.232.302-.202.347-.188.36-.174-.592-.317-.534-.188-.492-.043-.447.073-.39.173-.376.26-.317.333-.304.405-.26.448-.245.477z" fill="url(#AE)" class="B"/><path d="M22.527 6.85l-.246.477-.226.477-.203.433-.172.415-.16.36.216.043.19.043.174.043.158.03.173.044.174.043.202.03.23.043.264-.578.26-.534.244-.49.245-.448.232-.404.216-.362.443-.62.23-.245.232-.217.226-.188.245-.158.247-.116.258-.1.276-.06.288-.043-.536-.288-.505-.144-.477-.03-.462.072-.415.174-.404.264-.376.318-.347.377-.317.434-.303.448z" fill="url(#AF)" class="B"/><path d="M24.015 7.268l-.23.448-.226.453-.19.434-.172.4-.158.362.174.043.16.043.16.03.144.044.158.03.16.028.173.043.188.03.087-.29.13-.318.16-.318.187-.347.202-.347.5-.694.274-.347.29-.317.304-.32.303-.29.303-.246.318-.23.304-.188.302-.144.304-.087-.52-.245-.493-.116h-.46l-.453.088-.404.173-.4.247-.36.318-.347.36-.303.404-.29.433z" fill="url(#AG)" class="B"/><path d="M25.085 8.106l-.245.447-.202.39-.16.332-.087.246-.043.144.216.044.188.043.377.087.187.044.174.028.19.03.188.03.13-.245.145-.303.173-.333.203-.347.215-.4.232-.4.244-.376.264-.4.274-.362.29-.332.302-.303.303-.246.318-.202.318-.13.33-.057.333.013-.535-.288-.52-.13-.52.015-.5.145-.477.23-.462.332-.434.392-.404.433-.375.463-.332.477z" fill="url(#AH)" class="B"/><path d="M26.92 8.047l-.26.462-.415.84-.158.346-.145.29.174.03.144.043.13.043.116.043.13.043.115.044.116.03.13.027.13-.36.158-.36.16-.347.174-.346.203-.347.2-.318.232-.318.245-.304.264-.29.288-.26.29-.232.318-.217.347-.19.347-.158.376-.116.404-.087-.477-.317-.462-.173-.434-.043-.434.075-.404.173-.4.26-.36.318-.345.4-.318.42-.303.447z" fill="url(#AI)" class="B"/><path d="M28.32 7.8l-.318.42-.303.462-.264.505-.264.535-.215.566.375.058.19.044.188.058.187.043.188.058.188.044.19.028.13-.318.13-.333.13-.318.13-.333.158-.318.16-.304.19-.318.202-.29.245-.275.26-.274.304-.246.332-.23.376-.202.415-.188.475-.16.52-.13-.42-.16-.415-.1-.433-.03-.405.03-.415.087-.39.13-.4.202-.4.246-.36.3-.346.347z" fill="url(#AJ)" class="B"/><path d="M29.778 8.102l-.317.434-.288.477-.246.505-.226.52-.202.566.174.03.174.03.202.03.4.058.203.028.404.057.102-.404.145-.375.158-.376.2-.362.217-.332.245-.318.264-.304.29-.275.317-.264.346-.216.362-.204.375-.173.404-.13.42-.115.433-.072.448-.03-.55-.226-.55-.145-.505-.075-.505-.014-.477.075-.463.13-.433.188-.42.246-.374.304-.375.347z" fill="url(#AK)" class="B"/><path d="M31.137 8.578l-.303.4-.264.434-.226.462-.19.506-.143.535.174.014.145.014.144.03.145.03.144.028.144.03.174.043.187.03.246-.42.23-.405.2-.36.19-.36.202-.318.188-.303.188-.29.216-.264.23-.246.26-.217.3-.202.318-.188.375-.16.404-.144.477-.13.534-.112-.49-.075-.475-.043-.477.015-.463.058-.46.115-.434.145-.415.188-.405.23-.375.275-.36.318z" fill="url(#AL)" class="B"/><path d="M32.582 8.924l-.303.42-.275.433-.26.463-.23.462-.23.477.116.014.158.014.174.044.19.03.187.043.174.043.158.014.13.015.215-.433.23-.39.264-.376.273-.346.29-.333.303-.304.332-.274.347-.264.36-.232.376-.216.4-.188.404-.188.415-.16.433-.144.453-.13.46-.116-.722-.172-.68-.1-.62-.028-.577.058-.534.116-.49.174-.447.216-.405.3-.39.317-.346.362z" fill="url(#AM)" class="B"/><path d="M34.375 9.052l-.433.39-.4.434-.36.462-.317.506-.274.55.203.015.2.03.203.043.202.043.174.043.145.044.115.014.075-.014.3-.174.288-.203.303-.232.318-.264.318-.275.33-.29.347-.3.346-.303.362-.304.36-.304.376-.303.376-.275.4-.275.375-.246.404-.23.39-.203-.404-.075-.42-.014-.462.014-.476.073-.478.102-.5.145-.49.188-.5.232-.5.275-.462.318z" fill="url(#AN)" class="B"/><path d="M36.483 9.585l-.506.448-.52.448-.52.42-.52.4-.52.347.158.028.19.014.23.015.23.014.245.014h.463l.188-.001.4-.29.754-.608.346-.317.347-.304.333-.304.33-.303.332-.29.346-.26.332-.246.347-.217.36-.19.376-.16.39-.13.405-.072.415-.044-.36-.36-.4-.216-.405-.087-.415.03-.433.116-.462.217-.463.3-.5.33-.997.824z" fill="url(#AO)" class="B"/><path d="M37.58 10.134l-.42.376-.415.36-.418.362-.453.318-.447.305.143.014.188.028.218.03.217.014.216.03.19.027.143.015.087.014h.26l.264-.075.274-.13.29-.187.29-.232.318-.275 1.04-.955.39-.346.415-.333.434-.318.475-.304.49-.275.52-.245.564-.19-.604-.143-.563-.057-.534.03-.507.102-.476.174-.462.217-.447.275-.433.304-.837.694z" fill="url(#AP)" class="B"/><path d="M38.78 10.9l-.433.374-.4.318-.36.245-.318.145-.274.044.226.03.246.043.274.043.288.044.29.028.29.044.275.014.246.014.404-.304.36-.29.33-.29.317-.275.29-.275.274-.274.29-.264.274-.245.275-.23.303-.217.317-.203.347-.187.376-.174.404-.144.462-.13.505-.115-.535-.304-.564-.13h-.55l-.566.113-.564.217-.564.303-.55.362-.534.4-.506.434-.49.434z" fill="url(#AQ)" class="B"/><path d="M9.29.85l.013-.174.014-.174.03-.172L9.4.158 9.434 0l-.23.303-.174.333-.13.318-.075.332-.03.346v.347l.044.346.073.347.086.346.113.333.258.664.145.318.13.317.13.29.13.29-.028-.058-.014-.1-.016-.1v-.13l-.014-.16v-.332-.187l-.015-.19v-.188l-.015-.202-.015-.188-.014-.174-.03-.173-.028-.158-.044-.144L9.6 2.6l-.058-.158-.057-.16-.043-.158-.044-.174-.043-.187-.03-.174-.016-.19-.014-.173-.013-.188z" fill="url(#AR)" class="B"/><path d="M8.008 7.036l.246-.144.226-.146.247-.13.26-.145.264-.144-.226.226-.23.232-.232.23-.23.217-.245.226-.246.202-.245.204-.26.188-.245.173-.264.144-.245.13-.26.1-.264.087-.26.043-.26.014-.264-.013.275-.16.275-.174.26-.16.264-.158.245-.144.246-.16.232-.145.226-.158.246-.145.23-.144z" fill="url(#AS)" class="B"/><path d="M9.264 4.522l.13.172.144.16.13.174.13.173.13.174-.058-.187-.073-.19-.075-.203-.174-.404-.1-.19-.113-.188-.13-.187-.144-.173-.174-.143-.188-.145-.203-.13-.23-.1-.246-.087-.288-.057-.304-.03.202.116.19.13.187.13.173.13.174.13.158.144.16.16.16.144.29.318z" fill="url(#AT)" class="B"/><path d="M10.028 4.17l.045.264.087.528.057.264.06.274.03-.318.043-.303.03-.318.03-.317.014-.304.014-.303-.015-.304-.015-.288-.03-.29-.044-.264-.073-.264-.086-.246-.102-.216-.145-.202-.16-.174-.187-.158.058.29.043.29.058.29.044.264.03.274.043.264.03.264.043.264.028.264.044.264z" fill="url(#AU)" class="B"/><path d="M8.743 4.02l.245.264.232.264.2.216.175.204.144.158-.03-.433-.058-.376-.072-.318-.116-.288-.115-.245-.146-.217-.144-.202-.16-.19-.144-.187-.16-.187-.144-.203-.116-.23-.115-.264-.087-.29-.073-.347-.028-.4-.26.245-.157.275-.075.29-.015.304.058.303.116.318.16.318.188.317.217.303.226.304z" fill="url(#AV)" class="B"/><path d="M10.186 2.324l.057-.264.073-.264.1-.264.086-.264.115-.264-.415.405-.346.4-.245.362-.172.347-.116.332-.057.304-.014.304.03.274.074.264.07.245.102.23.102.2.087.203.086.173.058.174.03.145v-.304l.015-.288.013-.288.015-.3.014-.275.03-.274.03-.274.028-.264.044-.264.043-.274z" fill="url(#AW)" class="B"/><path d="M8.167 6.5l.448-.03.448-.06.216-.028-.188.087-.188.072-.202.087-.203.075-.216.073-.217.057-.226.06-.226.03-.23.015h-.246l-.245-.015-.247-.057-.246-.072-.245-.102-.245-.143-.247-.173.23.043.232.044.226.03.23.028.226.014.232.014h.448l.23-.015h.216z" fill="url(#AX)" class="B"/><path d="M5.18 8.266l-.146.1-.13.116-.116.115-.115.116-.102.13.1-.346.16-.305.186-.26.232-.246.26-.202.3-.19.317-.158.332-.13.347-.115.347-.116.722-.174.36-.073.347-.076.318-.058.318-.072-.16.058-.216.115-.264.175-.317.188-.318.202-.332.19-.318.173-.3.116-.173.03-.158.028-.174.043-.172.043-.175.073-.172.057-.16.075-.173.087-.158.087-.16.1z" fill="url(#AY)" class="B"/><path d="M8.298 7.194l.334-.173.302-.16.29-.146.245-.13.187-.116-.2.42-.203.347-.216.274-.202.246-.217.188-.217.174-.433.264-.215.13-.218.144-.216.145-.202.174-.203.216-.202.264-.187.304-.188.375-.13-.332-.044-.318.044-.317.116-.29.172-.275.23-.274.274-.264.303-.232.318-.23.332-.202z" fill="url(#AZ)" class="B"/><path d="M8.53 9.202l-.087.245-.075.264-.072.245-.058.264-.057.275-.145-.55-.075-.477-.015-.434.043-.375.087-.318.13-.29.158-.246.173-.203.203-.19.202-.16.217-.13.203-.115.187-.115.174-.1.13-.115.113-.103-.16.246-.16.246-.158.245-.143.232-.13.23-.13.245-.13.232-.115.23-.115.246-.1.245z" fill="url(#Aa)" class="B"/></g></g></symbol></svg>