<svg xmlns="http://www.w3.org/2000/svg" xmlns:xlink="http://www.w3.org/1999/xlink" viewBox="0 0 64.954 64.954" fill="#fff" fill-rule="evenodd" stroke="#000" stroke-linecap="round" stroke-linejoin="round"><use xlink:href="#A" x=".977" y=".977"/><symbol id="A" overflow="visible"><g stroke="none"><path d="M26.234 28.94l2.316 2.302-2.316 2.302H9.937v7.668L0 31.24l9.937-9.802v7.5z" fill="#932279"/><path d="M33.613 26.234L31.31 28.55l-2.302-2.316V9.937H21.34L31.31 0l9.802 9.937h-7.5z" fill="#efa724"/><path d="M36.318 33.613l-2.316-2.302 2.316-2.302H52.61V21.34l9.937 9.97-9.937 9.802v-7.5z" fill="#262577"/><path d="M28.94 36.318l2.302-2.316 2.302 2.316v16.297h7.668l-9.97 9.937-9.802-9.937h7.5z" fill="#9ccd2a"/></g><g stroke="#fff"><g fill-rule="nonzero" stroke-width="1.415"><path d="M9.356 9.356h19.8v19.8h-19.8z" fill="#9ccd2a"/><path d="M33.398 9.356h19.8v19.8h-19.8z" fill="#932279"/><path d="M33.398 33.398h19.8v19.8h-19.8z" fill="#efa724"/><path d="M9.356 33.398h19.8v19.8h-19.8z" fill="#262577"/></g><path d="M.276 31.276l14-14 14 14-14 14zm17-17l14-14 14 14-14 14zm17 17l14-14 14 14-14 14zm-17 17l14-14 14 14-14 14z" fill="none" stroke-width="1.415"/></g></symbol></svg>