<svg xmlns="http://www.w3.org/2000/svg" xmlns:xlink="http://www.w3.org/1999/xlink" viewBox="0 0 66.959 65.959" fill="#fff" fill-rule="evenodd" stroke="#000" stroke-linecap="round" stroke-linejoin="round"><use xlink:href="#A" x=".479" y=".479"/><symbol id="A" overflow="visible"><path d="M53.375 57.902c-2.326-1.246-3.655-2.632-3.95-4.146-.284-1.466.37-3.098 2-4.988a24.61 24.61 0 0 0 6.045-16.179c0-13.594-11.06-24.655-24.654-24.655h-.22c-13.595 0-24.652 11.06-24.652 24.655-.005 5.947 2.142 11.694 6.046 16.18 1.644 1.903 2.28 3.468 2.01 4.92-.283 1.512-1.614 2.927-3.96 4.2-3.598-3-6.78-7.004-8.74-11.022a33.14 33.14 0 0 1-2.436-6.844A32.69 32.69 0 0 1 0 32.591c-.008-4.358.862-8.673 2.56-12.687A32.48 32.48 0 0 1 9.554 9.546c2.967-2.977 6.485-5.35 10.357-6.983C23.93.86 28.198 0 32.598 0h.22c4.36-.01 8.674.863 12.688 2.562a32.51 32.51 0 0 1 10.357 6.982 32.5 32.5 0 0 1 6.984 10.357c1.698 4.014 2.57 8.33 2.562 12.687a32.76 32.76 0 0 1-.855 7.443 32.34 32.34 0 0 1-2.437 6.843c-1.962 4.02-5.14 8.025-8.744 11.025M41.35 64c-.38-.24-1.672-1.2-2.933-2.948-1.2-1.67-2.634-4.44-2.56-8.15.048-2.233.495-4.406 1.342-6.46.834-2.035 2.026-3.9 3.546-5.54l.01-.012.335-.388c.575-.666 1.167-1.353 1.64-2.16.573-.962.997-2.004 1.26-3.092.39-1.655.4-3.375.063-5.04-.32-1.52-.96-2.993-1.87-4.263a11.61 11.61 0 0 0-3.295-3.104 11.5 11.5 0 0 0-4.434-1.615 11.34 11.34 0 0 0-1.623-.115H32.6a11.43 11.43 0 0 0-1.621.115 11.49 11.49 0 0 0-4.434 1.615 11.63 11.63 0 0 0-3.297 3.104c-.905 1.28-1.54 2.73-1.87 4.263-.347 1.664-.325 3.384.065 5.04.25 1.054.677 2.103 1.258 3.092.475.805 1.068 1.492 1.642 2.16l.337.388.007.012c1.508 1.617 2.7 3.494 3.55 5.54a18.14 18.14 0 0 1 1.342 6.46c.077 3.71-1.35 6.48-2.557 8.15-1.265 1.747-2.556 2.7-2.936 2.948l-1.888-.568c-1.88-.63-3.697-1.432-5.43-2.393a9.27 9.27 0 0 0 4.873-8.143c0-2.257-.877-4.42-2.607-6.422-.026-.03-.053-.056-.072-.077l-.518-.567-1.388-1.626a19.46 19.46 0 0 1-3.325-7.106 19.58 19.58 0 0 1-.107-8.513 19.52 19.52 0 0 1 3.164-7.224 19.62 19.62 0 0 1 5.566-5.242 19.5 19.5 0 0 1 7.514-2.737c.906-.13 1.82-.193 2.735-.192h.245a19.26 19.26 0 0 1 2.736.192c2.667.383 5.226 1.316 7.515 2.737 2.164 1.35 4.1 3.163 5.567 5.243 1.526 2.15 2.62 4.65 3.166 7.224a19.65 19.65 0 0 1-.108 8.513 19.46 19.46 0 0 1-3.328 7.106c-.422.575-.89 1.08-1.4 1.626l-.5.553c-.006.005-.01.01-.015.013-.02.02-.048.046-.072.08-1.754 2.11-2.607 4.2-2.607 6.427 0 3.4 1.894 6.54 4.877 8.143a32.54 32.54 0 0 1-5.431 2.393l-1.89.568m-8.658-24.675c-3.546 0-6.434-2.887-6.434-6.434s2.887-6.435 6.434-6.435S39.14 29.35 39.14 32.9s-2.882 6.43-6.433 6.434" stroke="none" fill="#f0424d" fill-rule="nonzero"/></symbol></svg>