<?xml version="1.0" encoding="UTF-8" standalone="no"?>
<svg
   xmlns:dc="http://purl.org/dc/elements/1.1/"
   xmlns:cc="http://creativecommons.org/ns#"
   xmlns:rdf="http://www.w3.org/1999/02/22-rdf-syntax-ns#"
   xmlns:svg="http://www.w3.org/2000/svg"
   xmlns="http://www.w3.org/2000/svg"
   xmlns:xlink="http://www.w3.org/1999/xlink"
   xmlns:sodipodi="http://sodipodi.sourceforge.net/DTD/sodipodi-0.dtd"
   xmlns:inkscape="http://www.inkscape.org/namespaces/inkscape"
   role="img"
   viewBox="1.94 -11.06 446.20001 516.09998"
   version="1.1"
   id="svg40"
   sodipodi:docname="checkmk.svg"
   width="446.20001"
   height="516.09998"
   inkscape:version="0.92.3 (2405546, 2018-03-11)">
  <metadata
     id="metadata44">
    <rdf:RDF>
      <cc:Work
         rdf:about="">
        <dc:format>image/svg+xml</dc:format>
        <dc:type
           rdf:resource="http://purl.org/dc/dcmitype/StillImage" />
      </cc:Work>
    </rdf:RDF>
  </metadata>
  <sodipodi:namedview
     pagecolor="#ffffff"
     bordercolor="#666666"
     borderopacity="1"
     objecttolerance="10"
     gridtolerance="10"
     guidetolerance="10"
     inkscape:pageopacity="0"
     inkscape:pageshadow="2"
     inkscape:window-width="1920"
     inkscape:window-height="1038"
     id="namedview42"
     showgrid="false"
     inkscape:zoom="0.22212055"
     inkscape:cx="222.6"
     inkscape:cy="90.300002"
     inkscape:window-x="3840"
     inkscape:window-y="20"
     inkscape:window-maximized="0"
     inkscape:current-layer="svg40" />
  <title
     id="title2">Checkmk logo</title>
  <style
     id="style4">svg {enable-background:new 0 0 1355 904.4}</style>
  <defs
     id="defs7">
    <path
       id="a"
       d="M 1187.7,864.7 V 625.8 h 28.8 v 153.1 l 77.9,-83.1 h 36 l -64.8,68.7 66.1,100.1 h -34.4 l -51.7,-79.2 -29.1,30.4 v 48.8 z m -282.1,0 V 695.9 h 24.5 l 1,26.5 c 13.4,-20.9 30.1,-30.4 53,-30.4 23.6,0 39.6,10.1 46.5,29.4 14.1,-20.9 31.4,-29.4 53,-29.4 33.7,0 52.4,20.3 52.4,57.6 v 115.2 h -28.8 v -113 c 0,-22.6 -9.8,-33.4 -27.5,-33.4 -17.7,0 -32.1,11.1 -44.5,35.7 v 110.6 h -28.8 V 751.8 c 0,-22.6 -9.8,-33.4 -27.5,-33.4 -18,0 -32.1,11.1 -44.5,37.3 v 109 z m -168.2,0 V 625.8 h 18.3 v 164.6 l 93.6,-93.3 h 23.6 l -68.7,68.4 70,99.1 H 851.9 L 791,778.5 755.7,813.2 v 51.4 z m -108.6,3.9 c -43.8,0 -68.4,-24.9 -68.4,-71 v -33.4 c 0,-46.1 24.2,-71 68.1,-71 40.6,0 63.8,21.3 65.4,57.9 h -17.7 c -2,-28.1 -18,-41.9 -47.1,-41.9 -33.7,0 -50.4,18.3 -50.4,56 v 31.4 c 0,37.6 16.7,56 50.4,56 29.1,0 45.2,-13.7 47.1,-41.9 h 17.7 c -1.6,36 -24.2,57.9 -65.1,57.9 z M 400.1,769.2 h 102.4 v -3.6 c 0,-38 -16.7,-56.3 -51.4,-56.3 -34.7,0 -51,18.3 -51,56.3 z m 52.6,99.4 c -45.8,0 -71,-24.9 -71,-71 v -33.4 c 0,-46.1 24.5,-71 69.4,-71 44.9,0 69,24.9 69,71 v 20.6 h -120 v 11.5 c 0,38 17,56.3 52,56.3 30.1,0 47.1,-13.7 49.1,-37 h 17.7 c -2.3,34.4 -26.6,53 -66.2,53 z M 205.4,864.7 V 625.8 h 18.3 v 100.8 c 14.1,-22.6 33.4,-33.4 58.2,-33.4 34.7,0 52.4,20.9 52.4,60.5 V 864.6 H 316 v -109 c 0,-30.8 -11.8,-45.8 -37,-45.8 -23.6,0 -41.9,13.1 -55.3,43.5 v 111.3 z m -108.7,3.9 c -43.8,0 -68.4,-24.9 -68.4,-71 v -33.4 c 0,-46.1 24.2,-71 68.1,-71 40.6,0 63.8,21.3 65.4,57.9 h -17.7 c -2,-28.1 -18,-41.9 -47.1,-41.9 -33.7,0 -50.4,18.3 -50.4,56 v 31.4 c 0,37.6 16.7,56 50.4,56 29.1,0 45.2,-13.7 47.1,-41.9 h 17.7 c -1.6,36 -24.2,57.9 -65.1,57.9 z"
       inkscape:connector-curvature="0" />
  </defs>
  <clipPath
     id="b">
    <use
       overflow="visible"
       xlink:href="#a"
       id="use9"
       style="overflow:visible"
       x="0"
       y="0"
       width="100%"
       height="100%" />
  </clipPath>
  <g
     id="g38"
     transform="translate(-454.96,-26.76)">
    <defs
       id="defs23">
      <path
         id="e"
         d="m 533.5,203.6 v 85.7 l 105,-67.9 v 176.7 l 41.4,23.9 41.4,-23.9 V 221.5 l 105,67.9 V 203.7 L 679.9,111.9 Z M 680,15.7 903.1,144.7 V 402.8 L 680,531.8 456.9,402.9 V 144.8 Z"
         inkscape:connector-curvature="0" />
    </defs>
    <clipPath
       id="f">
      <use
         overflow="visible"
         xlink:href="#e"
         id="use25"
         style="overflow:visible"
         x="0"
         y="0"
         width="100%"
         height="100%" />
    </clipPath>
    <g
       clip-path="url(#f)"
       id="g36">
      <defs
         id="defs29">
        <path
           id="g"
           d="M -28.7,-1095.8 H 4957.5 V 1709 H -28.7 Z"
           inkscape:connector-curvature="0" />
      </defs>
      <clipPath
         id="h">
        <use
           overflow="visible"
           xlink:href="#g"
           id="use31"
           style="overflow:visible"
           x="0"
           y="0"
           width="100%"
           height="100%" />
      </clipPath>
      <path
         d="M 443.9,2.7 H 916 V 544.9 H 443.9 Z"
         clip-path="url(#h)"
         id="path34"
         inkscape:connector-curvature="0"
         style="fill:#13d389" />
    </g>
  </g>
</svg>
