<svg xmlns="http://www.w3.org/2000/svg" xmlns:xlink="http://www.w3.org/1999/xlink" viewBox="0 0 66 64" fill="#fff" fill-rule="evenodd" stroke="#000" stroke-linecap="round" stroke-linejoin="round"><use xlink:href="#A" x=".5" y=".5"/><symbol id="A" overflow="visible"><g stroke="none" fill-rule="nonzero"><path d="M32.117 61.85L6.97 49.82.7 22.64 18.002.776 45.872.7l17.44 21.76-6.12 27.22z"/><path d="M32.117 62.54a.69.69 0 0 1-.298-.068L6.672 50.44a.69.69 0 0 1-.374-.467l-6.28-27.18a.69.69 0 0 1 .131-.583L17.46.348a.69.69 0 0 1 .538-.261L45.872 0a.69.69 0 0 1 .538.258l17.44 21.76a.69.69 0 0 1 .135.582l-6.12 27.22a.69.69 0 0 1-.371.469L32.418 62.47a.69.69 0 0 1-.301.069zm-24.55-13.2l24.548 11.743 24.478-11.9 5.973-26.57L45.542 1.37l-27.206.084-16.9 21.343zm18.63-.927l-.867-1.072 6.2-5.022.867 1.072zM42.44 46.4l-1.378-.046.266-7.98 1.378.046zm-19.637-7.274L14.94 37.7l.243-1.357 7.863 1.407zm27.974-6.2l-6.106-5.14.888-1.055 6.106 5.14zm-32.3-5.285l-3.755-7.044 1.217-.65 3.755 7.044zm19.836-9.1L38 17.195l7.8-1.702.294 1.347zm-11.442-.484l-1.26-.563 3.26-7.286 1.26.563z" fill="#3c6eb4"/><g fill="#294172"><path d="M21.164 6.3l-1.23.625 5 9.84-6.3-1.347-.287 1.35 7.4 1.577 2.207 4.343.47-.593.774-.004zm21.996.065l-4.95 9.863-2.662-5.876-1.257.57 3.123 6.893-2.14 4.26h.28l.773.968L44.4 6.972zm5.113 13.595l-3.557 6.678-4.764.92.072.1-.3 1.36 17.837-3.44-.26-1.355-10.84 2.1 3.036-5.694zM6.9 24.2l-.26 1.355 10.895 2.102-5.006 4.216.9 1.055 5.86-4.932 4.985.962-.297-1.27.13-.164zm31.586 10.224l-.04.173-1.196.58L51.046 47.1l.903-1.046-8.343-7.224 6.35-1.134-.24-1.36-7.45 1.334zm-12.93.12l-13.3 11.522.903 1.042 8.4-7.263.222 6.54 1.377-.044-.257-7.655 3.974-3.44-1.277-.608zm5.715 2.814V55.4h1.376V44.354l5.016 4.057.866-1.07-5.882-4.76v-5.173l-.63.306z"/><path d="M32.03 38.407a.69.69 0 0 1-.297-.067L25.3 35.26a.69.69 0 0 1-.374-.466l-1.613-6.958a.69.69 0 0 1 .132-.584l4.442-5.595a.69.69 0 0 1 .538-.261l7.142-.022a.69.69 0 0 1 .538.258l4.47 5.57a.69.69 0 0 1 .135.583l-1.57 6.967a.69.69 0 0 1-.372.469l-6.425 3.117a.69.69 0 0 1-.301.069zm-5.846-4.237l5.844 2.793 5.827-2.827 1.424-6.32-4.053-5.052-6.476.02-4.03 5.075z"/></g></g></symbol></svg>