<?xml version="1.0" encoding="UTF-8" standalone="no"?>
<!-- Generator: Adobe Illustrator 22.1.0, SVG Export Plug-In . SVG Version: 6.00 Build 0)  -->

<svg
   xmlns:dc="http://purl.org/dc/elements/1.1/"
   xmlns:cc="http://creativecommons.org/ns#"
   xmlns:rdf="http://www.w3.org/1999/02/22-rdf-syntax-ns#"
   xmlns:svg="http://www.w3.org/2000/svg"
   xmlns="http://www.w3.org/2000/svg"
   xmlns:sodipodi="http://sodipodi.sourceforge.net/DTD/sodipodi-0.dtd"
   xmlns:inkscape="http://www.inkscape.org/namespaces/inkscape"
   version="1.1"
   id="Ebene_1"
   x="0px"
   y="0px"
   viewBox="0 0 388 387.99999"
   xml:space="preserve"
   sodipodi:docname="dovecot.svg"
   width="388"
   height="388"
   inkscape:version="0.92.3 (2405546, 2018-03-11)"><metadata
   id="metadata31"><rdf:RDF><cc:Work
       rdf:about=""><dc:format>image/svg+xml</dc:format><dc:type
         rdf:resource="http://purl.org/dc/dcmitype/StillImage" /><dc:title></dc:title></cc:Work></rdf:RDF></metadata><defs
   id="defs29" /><sodipodi:namedview
   pagecolor="#ffffff"
   bordercolor="#666666"
   borderopacity="1"
   objecttolerance="10"
   gridtolerance="10"
   guidetolerance="10"
   inkscape:pageopacity="0"
   inkscape:pageshadow="2"
   inkscape:window-width="1920"
   inkscape:window-height="1038"
   id="namedview27"
   showgrid="false"
   inkscape:zoom="1.204"
   inkscape:cx="169.41005"
   inkscape:cy="79.955716"
   inkscape:window-x="3840"
   inkscape:window-y="20"
   inkscape:window-maximized="0"
   inkscape:current-layer="g24" />
<style
   type="text/css"
   id="style2">
	.st0{fill:#4B9BD7;}
</style>
<g
   id="g24"
   transform="translate(0,187.89999)">
	
	
	
<path
   inkscape:connector-curvature="0"
   class="st0"
   d="m 300.67272,-49.82583 83.6,63.9 c 3.7,2.8 3.7,8.3 0,11.1 l -46.6,35.700005 c -3.6,2.7 -8.6,2.7 -12.1,0 l -73,-55.700005 c -3.6,-2.7 -8.5,-2.7 -12.1,0 l -74.8,57.000005 c -2.5,1.9 -6,1.9 -8.5,0 l -5.4,-4.1 c -2.6,-2 -2.6,-5.9 0,-7.9 l 130.7,-100.000005 c 5.4,-4.09999 12.8,-4.09999 18.2,0 z"
   id="path20"
   style="fill:#4b9bd7"
   sodipodi:nodetypes="ccccccccccccc" /><path
   inkscape:connector-curvature="0"
   class="st0"
   d="m 204.27272,-8.82583 -53.6,-41 c -5.4,-4.09999 -12.8,-4.09999 -18.2,0 l -130.7,99.900005 c -2.6,2 -2.6,5.9 0,7.9 l 5.4,4.1 c 2.5,1.9 6,1.9 8.5,0 l 64.8,-49.400005 c 3.6,-2.7 8.6,-2.7 12.1,0 l 42.9,32.800004 c 3.6,2.700001 8.6,2.700001 12.1,0 l 56.7,-43.300004 c 3.7,-2.7 3.7,-8.2 0,-11 z"
   id="path22"
   style="fill:#4b9bd7"
   sodipodi:nodetypes="ccccccccccccc" /></g>
</svg>