<svg xmlns="http://www.w3.org/2000/svg" xmlns:xlink="http://www.w3.org/1999/xlink" viewBox="0 0 66 64" fill="#fff" fill-rule="evenodd" stroke="#000" stroke-linecap="round" stroke-linejoin="round"><use xlink:href="#A" x=".5" y=".5"/><symbol id="A" overflow="visible"><path d="M63.27 1.052c3.4 3.4-6.03 18.295-7.62 19.886s-5.6.126-9-3.266-4.856-7.4-3.266-9c1.6-1.633 16.495-11 19.886-7.62zM15.7 4.644C10.52 1.722 3.15-1.543.807.8-1.58 3.187 1.8 10.724 4.784 15.914 7.42 11.267 11.19 7.416 15.7 4.644zM58.08 19.766c.46 1.633.377 2.972-.377 3.726-1.8 1.8-6.698-.126-11.094-4.312-.293-.293-.628-.544-.92-.88-1.6-1.6-2.847-3.266-3.6-4.856-1.55-2.763-1.926-5.2-.754-6.364.628-.628 1.633-.795 2.9-.586.795-.502 1.758-1.1 2.805-1.675C42.756 2.6 37.94 1.344 32.834 1.344c-16.997 0-30.77 13.774-30.77 30.77s13.774 30.77 30.77 30.77 30.77-13.774 30.77-30.77c0-5.484-1.423-10.634-3.977-15.113-.462.95-.98 1.873-1.55 2.763z" stroke="none" fill="#ad2829" fill-rule="nonzero"/></symbol></svg>