<svg xmlns="http://www.w3.org/2000/svg" xmlns:xlink="http://www.w3.org/1999/xlink" viewBox="0 0 143 151" fill="#fff" fill-rule="evenodd" stroke="#000" stroke-linecap="round" stroke-linejoin="round"><use xlink:href="#A" x=".5" y=".5"/><symbol id="A" overflow="visible"><path fill="#3f7a9c" d="M98.128 39.045l.582.446c3.522 2.748 6.62 6 9.186 9.675a44.9 44.9 0 0 1 2.11 3.315l6.5-3.753c-.765-1.327-1.587-2.617-2.462-3.867-2.248-3.212-4.848-6.16-7.743-8.785 1.707-1.504 3.494-3.42 5.192-5.633 5.06-6.593 7.362-13.258 5.165-14.944s-8.04 2.264-13.098 8.857c-1.698 2.213-3.086 4.435-4.097 6.474-7.06-4.546-15.293-7.444-24.16-8.156C75.746 20.43 76 17.807 76 15c0-8.3-2.23-15-5-15s-5 6.7-5 15c0 2.807.255 5.43.698 7.672-8.867.713-17.1 3.6-24.16 8.156-1.01-2.04-2.4-4.26-4.097-6.474-5.06-6.593-10.9-10.543-13.098-8.857s.106 8.35 5.165 14.944c1.698 2.213 3.485 4.128 5.192 5.633-2.896 2.626-5.495 5.573-7.744 8.785-.875 1.25-1.697 2.54-2.462 3.867l6.5 3.753a44.83 44.83 0 0 1 2.11-3.315 45.02 45.02 0 0 1 9.186-9.675l.58-.446C51.405 33.363 60.796 30 71 30s19.595 3.363 27.128 9.045zm-64.023 61.79A44.88 44.88 0 0 0 71 120a44.88 44.88 0 0 0 36.895-19.166l6.15 4.306c-2.248 3.212-4.848 6.16-7.743 8.785 1.707 1.504 3.494 3.42 5.192 5.633 5.06 6.593 7.362 13.258 5.165 14.944s-8.04-2.264-13.098-8.857c-1.698-2.213-3.086-4.435-4.097-6.474-7.06 4.546-15.293 7.444-24.16 8.156.444 2.242.698 4.865.698 7.672 0 8.3-2.23 15-5 15s-5-6.7-5-15c0-2.807.255-5.43.698-7.672-8.867-.713-17.1-3.6-24.16-8.156-1.01 2.04-2.4 4.26-4.097 6.474-5.06 6.593-10.9 10.543-13.098 8.857s.106-8.35 5.165-14.944c1.698-2.213 3.485-4.128 5.192-5.633-2.896-2.626-5.495-5.573-7.744-8.785zM105 95V57h11l8 23 8-23h10v38h-9V83l2-14-9 23h-5l-9-23 2 14v12zM73 57v38h25v-8H83V57zm-33 0v38h26v-8H50v-7h13v-8H50v-7h15v-8zM10 95V80h12v15h10V57H22v14H10V57H0v38z" stroke="none"/></symbol></svg>