<svg xmlns="http://www.w3.org/2000/svg" width="2619" height="2599" viewBox="0 0 2619 2599"><title>mysql 2</title><g fill="#00546B" fill-rule="evenodd" stroke="#FFF" stroke-width="60"><path d="M1027.005 1920.844l.291.39-.577-.799.286.41zm155.124 123.418v-5.108h-30v5.108h30zm-106.003-125.904l-.05-.037.096.072-.046-.035zm1367.253 78.476c1 1.094 2.003 2.174 3.018 3.248h11.689l11.653-11.645-1.138-3.638h-25.222v12.035zm64.448 475.996c.693.69 1.39 1.385 2.1 2.096l21.225-21.201-24.583 17.194c.426.61.843 1.243 1.258 1.911zm43.972 40.358l6.54-5.088h-30v5.088h23.46zm-259.89-585.757a575.887 575.887 0 0 0-9.695-6.456c-4.704-3.068-9.653-6.217-15.57-9.924-3.33-2.086-14.262-8.887-15.035-9.37-12.424-7.753-19.468-12.35-25.335-16.73-71.599-51.433-119.126-84.065-167.86-114.157-11.8-7.2-27.986-13.918-57.043-24.273a13397.01 13397.01 0 0 0-13.297-4.717 1583.21 1583.21 0 0 1-13.3-4.772c-12.003-4.378-21.361-8.057-29.678-11.776-7.588-3.062-17.596-6.413-32.372-10.928-2.14-.654-33.43-10.028-43.085-13.043-25.201-7.87-44.275-14.765-60.773-22.452-22.351-10.414-38.8-21.79-49.355-36.308-22.386-29.16-42.559-62.115-62.736-101.262-15.197-29.483-26.74-54.48-50.472-107.925l-1.033-2.328a9189.76 9189.76 0 0 0-9.72-21.842l-.049-.11-.048-.11c-14.469-33.086-24.821-55.18-57.446-123.56-8.696-18.228-14.28-29.983-20-42.136-15.135-32.158-27.162-58.61-38.021-83.928-7.412-16.185-11.517-26.722-22.253-55.814-2.497-6.768-4.1-11.066-5.784-15.473-6.446-16.872-12.045-29.771-18.746-42.608-121.32-234.302-300.906-431.005-519.461-569.484-80.21-50.36-157.769-88.344-237.544-113.954-19.585-5.84-37.918-7.714-80.982-9.59a3363.03 3363.03 0 0 1-10.655-.474c-29.895-1.389-49.477-3.22-69.136-7.275H518.8l-3.941-1.095c-12.3-3.418-23.913-9.335-35.713-17.553-8.58-5.976-16.396-12.453-27.22-22.155-22.13-19.835-20.459-18.384-26.002-22.334-44.75-30.27-89.266-52.174-162.354-81.782l-.665-.27-.652-.3c-13.4-6.191-31.799-12.83-47.65-16.476-9.233-2.123-17.167-3.14-23.09-2.988-2.318.06-4.088.293-5.223.601l-4.436 3.756-6.78 1.694c-.78.195-1.455.38-2.032.553l-1.184 4.739-2.883 4.324c-1.217 1.825-1.692 6.144-.352 13.327 1.441 7.725 4.555 16.375 9.427 27.118 12.094 25.757 25.187 44.686 51.934 77.775 1.445 1.789 6.73 8.312 6.434 7.946 2.623 3.241 4.608 5.7 6.556 8.13 10.398 12.963 18.233 23.206 25.762 33.906 5.504 7.767 25.59 35.587 27.808 38.686 17.576 24.549 29.842 42.716 40.728 60.95 7.475 12.525 13.852 24.422 19.148 35.896 19.412 41.816 33.048 80.33 55.356 151.474.967 3.082 1.196 3.814 3.617 11.549 21.106 67.429 31.529 97.956 46.736 133.436 13.421 31.344 35.235 69.762 58.047 103.175 3.916 5.27 8.976 10.55 18.468 19.53l4.296 4.053c11.403 10.761 17.609 17.058 24.109 25.054 8.532 10.495 14.946 21.267 19.13 33.125 7.544 14.746 8.644 32.643 5.7 54.348-2.286 16.852-7.136 36.149-14.245 58.343-3.2 9.99-6.81 20.42-10.938 31.72-3.943 10.794-19.728 51.841-22.071 58.759-41.35 130.613-34.489 316.906 14.366 432.578.883 2.06 1.8 4.22 2.835 6.678a6002.25 6002.25 0 0 0 7.38 17.545c10.351 24.302 18.028 39.036 27.257 50.942 3.119 4.024 6.326 7.557 9.676 10.627.78-7.008 1.712-15.517 2.912-26.49 5.506-50.383 8.778-75.786 14.027-104.21 6.916-37.45 15.927-69.182 28.516-97.788 6.198-15.112 14.271-29.45 24.458-44.143 7.759-11.19 15.513-21.04 28.31-36.443l2.647-3.181 2.618-3.144c2.099-2.521 3.636-4.374 5.13-6.185 9.434-11.432 15.73-19.557 21.22-27.605l15.945-23.38 24.27 14.556c10.855 6.51 18.273 16.01 23.67 27.931 3.272 7.229 5.155 13.267 8.444 25.515l.41 1.522c.154.578.28 1.043.4 1.488 2.412 8.934 3.936 13.557 5.666 17.017l.447.894.387.923c24.265 57.876 24.898 59.377 34.39 81.024 13.34 30.425 25.486 56.327 37.664 79.923 59.26 114.938 121.262 216.463 187.631 304.98l.296.394.282.403c20.185 28.847 50.318 63.204 84.227 97.164 2.065 1.764 4.426 3.587 7.637 5.923.723.526 1.484 1.075 2.458 1.773l2.61 1.872c8.516 6.111 14.779 11.054 20.063 16.385h19.255v78.06l-40.328-14.786c-17.762-6.513-34.109-16.37-50.488-29.636-12.024-9.738-22.067-19.374-38.774-36.506l-2.348-2.41-1.165-1.196c-.58-.597-.818-.84-1.16-1.191a2164.002 2164.002 0 0 0-4.587-4.699c-14.41-14.706-23.67-23.326-33.183-30.454l-.097-.073c-90.278-68.219-178.141-156.568-228.133-235.569l-1.04-1.643-.818-1.763c-9.455-20.36-19.572-41.195-32.347-66.79l-.18 1.17c-1.482 9.705-2.264 15.722-4.783 36.05-2.68 21.624-4.254 32.844-6.589 45.383-3.157 16.957-7.043 31.424-12.305 44.582-13.276 33.195-35.255 56.993-68.41 70.294-26.388 10.839-52.956 12.866-78.786 6.766-22.193-5.241-43.024-16.232-62.7-31.92-15.845-12.634-30.544-27.973-44.557-45.665-10.258-12.951-19.006-25.583-28.906-41.05l-.148-.232-.145-.236c-92.752-150.962-115.118-398.492-52.287-595.725 3.403-10.624 5.815-20.79 10.106-41.369l.47-2.253c4.746-22.78 7.16-33.17 11.06-45.848 3.743-12.17 8.074-23.012 13.354-32.833-2.323-3.94-6.196-7.954-12.978-14.075l-1.92-1.732c-9.067-8.179-13.922-13.086-19.112-20.206-21.5-29.19-39.636-60.283-65.233-109.137l-.064-.121-.062-.123c-19.87-38.781-36.7-80.633-58.567-142.36-4.358-12.302-18.89-53.938-19.672-56.165-4.351-12.392-7.996-22.63-11.504-32.272-.183-.473-.365-.947-.545-1.423-5.192-13.665-7.976-23.489-14.042-47.433-5.097-20.12-7.864-29.586-12.01-39.748-10.572-22.737-26.076-46.102-52.367-80.83 1.263 1.668-24.24-31.739-30.908-40.752l-.255-.345-.245-.351c-4.816-6.915-10.363-14.105-22.297-29.105-15.98-20.084-21.308-26.88-29.728-38.188-27.909-37.477-47.392-70.6-59.306-105.083-15.62-45.207-16.328-89.238 1.175-131.432 20.274-49.66 54.727-81.999 100.361-96.657 38.586-12.394 83.447-11.727 133.435-.409 40.747 9.227 84.077 25.356 128.755 46.779 34.756 16.664 68.595 35.705 99.173 55.024l.1.063.1.064c6.204 3.988 12.481 8.768 19.751 14.86a542.068 542.068 0 0 1 9.176 7.892c1.863 1.633 8.146 7.174 8.883 7.821 14.584 12.822 23.885 20.117 31.67 24.415 13.08.573 26.782 1.314 45.205 2.404 3.552.21 6.395.38 12.768.763 31.668 1.9 45.688 2.672 63.116 3.374l2.85.115 2.778.65c7.405 1.732 32.641 7.577 33.783 7.842 44.948 10.452 71.582 17.271 98.977 25.88 35.29 11.09 65.43 23.576 92.692 39.045l.194.11.192.113c305.737 179.545 495.269 360.718 667.956 645.723 11.348 18.57 21.539 38.271 31.635 60.63 7.732 17.124 14.14 32.688 25.227 60.669 16.65 42.019 22 55.06 31.392 75.423l.158.342.15.346c47.598 110.406 93.62 208.71 138.316 293.514l.151.286.145.29c5.272 10.548 9.466 19.568 17.77 37.9l1.698 3.752c20.001 44.14 30.797 64.299 46.578 83.576l.72.879.537.769c.159.16.412.38.767.652 1.068.82 2.627 1.775 4.677 2.817 4.305 2.188 9.642 4.264 18.818 7.414 1.249.429 5.59 1.908 6.133 2.094 11.433 3.912 17.998 6.423 24.822 9.842l.15.075.15.077c16.525 8.512 32.695 15.858 62.677 28.813.356.153 10.672 4.607 13.68 5.908 48.93 21.173 75.783 34.234 102.655 51.548 93.849 58.272 189.161 129.868 283.901 211.624l.204.176.2.18c16.437 14.706 27.565 28.023 50.116 57.805l.604.797c17.175 22.683 25.143 32.49 35.438 42.792l8.78 8.786v49.757l-21.049 6.58c-41.173 12.872-59.755 18.39-83.12 24.236-26.526 6.815-46.28 9.693-89.757 14.338-5.719.611-8.575.919-11.89 1.285-29.269 3.232-48.116 6.25-67.666 11.41-3.177.91-21.932 6.317-27.905 8.01-14.41 4.083-26.2 7.242-37.649 10.014-2.851.69-5.654 1.349-8.412 1.976 16.277 16.467 41.825 34.778 77.05 55.853 6.989 4.181 14.233 8.42 23.5 13.771 1.87 1.08 18.302 10.539 22.973 13.246 18.533 10.744 30.608 18.115 41.03 25.282l.25.172.248.177c70.507 50.618 132.553 110.294 181.928 176.266 4.455 4.428 9.18 9.01 14.984 14.554a3717.93 3717.93 0 0 0 8.437 8.028c12.845 12.2 18.718 17.854 26.047 25.19l1.854 1.857 1.504 2.15c6.008 8.59 9.968 16.763 15.187 29.706.258.64.523 1.3.844 2.103l.813 2.031c4.469 11.173 6.723 15.819 9.439 19.31l6.32 8.125v57.93l-40.075-14.29c-10.224-3.646-19.269-8.987-27.914-15.985-5.975-4.837-10.325-9.069-18.363-17.422l-1.05-1.092c-7.102-7.38-10.573-10.685-14.282-13.42-13.591-9.274-24.5-17.195-48.597-35.041-31.449-23.29-45.32-33.2-62.244-43.957-25.564-16.149-48.582-27.711-98.685-50.786l-4.806-2.213-4.822-2.223c-45-20.759-70.116-33.4-96.984-49.934l-.195-.12-.194-.124c-32.073-20.42-56.782-38.436-110.619-79.45-32.715-24.187-70.506-69.743-95.877-111.89-4.096-6.49-7.338-13.19-10.552-21.22a289.42 289.42 0 0 1-2.22-5.746c-.302-.8-.601-1.602-.999-2.67l-.476-1.282-.462-1.244c-3.929-10.542-5.969-14.558-8.164-16.753l-10.12-10.12 1.498-14.233c2.132-20.25 12.705-35.87 29.191-46.292 10.458-6.61 20.62-10.188 37.92-14.728a759.02 759.02 0 0 1 2.337-.61l2.267-.59c8.645-2.247 12.855-3.48 16.411-4.881 75.194-31.75 162.24-47.572 271.645-49.988z"/><path d="M699.167 503.716c4.17 5.958 6.63 10.705 10.828 19.825 3.461 7.518 4.87 10.034 7.267 12.828l7.23 8.429v11.104c0 48.27-14.867 84.385-46.1 107.803-.553.554-1.098 1.102-1.61 1.62l-.027.028-29.431 29.771-18.733-37.438c-4.197-8.388-8.372-17.037-13.457-27.804a4983.675 4983.675 0 0 1-6.424-13.673c-8.803-18.78-13.1-27.817-18.119-37.898-4.126-5.592-8.754-10.996-17.609-20.834l-1.522-1.69c-12.296-13.66-20.321-23.2-26.722-32.746h-16.164v-56.833l22.737-5.673c25.751-6.425 48.198-9.398 76.912-9.398h12.432l8.788 8.794c2.576 2.578 6.01 5.177 13.525 10.31l2.115 1.445c7.832 5.35 12.21 8.536 17.089 12.717 6.862 5.88 12.505 12.11 16.995 19.313z"/></g></svg>