<?xml version="1.0" encoding="UTF-8" standalone="no"?>
<svg
   xmlns:dc="http://purl.org/dc/elements/1.1/"
   xmlns:cc="http://creativecommons.org/ns#"
   xmlns:rdf="http://www.w3.org/1999/02/22-rdf-syntax-ns#"
   xmlns:svg="http://www.w3.org/2000/svg"
   xmlns="http://www.w3.org/2000/svg"
   xmlns:sodipodi="http://sodipodi.sourceforge.net/DTD/sodipodi-0.dtd"
   xmlns:inkscape="http://www.inkscape.org/namespaces/inkscape"
   id="Layer_1"
   data-name="Layer 1"
   viewBox="0 0 63.36 73.44"
   version="1.1"
   sodipodi:docname="nginx.svg"
   inkscape:version="0.92.3 (2405546, 2018-03-11)">
  <metadata
     id="metadata17">
    <rdf:RDF>
      <cc:Work
         rdf:about="">
        <dc:format>image/svg+xml</dc:format>
        <dc:type
           rdf:resource="http://purl.org/dc/dcmitype/StillImage" />
      </cc:Work>
    </rdf:RDF>
  </metadata>
  <sodipodi:namedview
     pagecolor="#ffffff"
     bordercolor="#666666"
     borderopacity="1"
     objecttolerance="10"
     gridtolerance="10"
     guidetolerance="10"
     inkscape:pageopacity="0"
     inkscape:pageshadow="2"
     inkscape:window-width="1920"
     inkscape:window-height="1038"
     id="namedview15"
     showgrid="false"
     inkscape:zoom="3.2135075"
     inkscape:cx="31.68"
     inkscape:cy="36.720001"
     inkscape:window-x="3840"
     inkscape:window-y="20"
     inkscape:window-maximized="0"
     inkscape:current-layer="Layer_1" />
  <defs
     id="defs4">
    <style
       id="style2">.cls-1{fill:#009639;}.cls-2{fill:#fff;}.cls-3{fill:#999;}</style>
  </defs>
  <title
     id="title6">NGINX-hex-source-RGB-02</title>
  <path
     class="cls-1"
     d="M.50272,54.721a3.637,3.637,0,0,0,1.36641,1.35593L29.82192,72.21549l.00087-.00087a3.66793,3.66793,0,0,0,3.71529,0L61.49175,56.07606a3.66568,3.66568,0,0,0,1.85677-3.21619V20.58275l-.00087-.00087A3.66685,3.66685,0,0,0,61.49,17.36481L33.53634,1.22625V1.22538a3.66313,3.66313,0,0,0-3.71268,0v.00087L1.87087,17.36481A3.6653,3.6653,0,0,0,.01235,20.58188l-.00087.00087V52.85987A3.64426,3.64426,0,0,0,.50185,54.721"
     id="path8" />
  <path
     class="cls-2"
     d="M22.73015,49.008a3.59488,3.59488,0,0,1-7.18976,0l.00088.00088.00349-24.67727c0-1.91174,1.68924-3.49279,4.08175-3.49279a6.39282,6.39282,0,0,1,4.90021,2.191L25.613,24.32989,40.63124,42.30253V24.432H40.6295a3.59488,3.59488,0,0,1,7.18975,0h-.00087l-.00349,24.67552c0,1.91175-1.69011,3.49279-4.08175,3.49279a6.38857,6.38857,0,0,1-4.90021-2.191L22.7284,31.13659V49.0089Z"
     id="path10" />
</svg>
