<?xml version="1.0" encoding="UTF-8"?>
<!-- Generator: Adobe Illustrator 21.0.0, SVG Export Plug-In . SVG Version: 6.00 Build 0)  -->
<svg version="1.1" xmlns="http://www.w3.org/2000/svg" xmlns:xlink="http://www.w3.org/1999/xlink" x="0px" y="0px" viewBox="0 0 16 16" style="enable-background:new 0 0 16 16;" xml:space="preserve">
<style type="text/css">
	.st0{fill:none;stroke:#3F5D6C;stroke-width:0.6618;stroke-miterlimit:10;}
	.st1{fill:#3F5D6C;}
	.st2{fill:#F9F6F4;}
	.st3{fill:none;stroke:#3F5D6C;stroke-width:0.174;stroke-miterlimit:10;}
</style>
<g id="Layer_3">
</g>
<g id="Layer_2">
	<g>
		<path class="st0" d="M10.7,5.3c0.4,0.6,0.7,1.2,0.7,2c0,1.8-1.5,3.1-3.2,3.1v0c-2,0-3.4-1.4-3.4-3.2c0-0.8,0.2-1.4,0.7-1.9"/>
		<g>
			<path class="st1" d="M8,11.6C8,11.6,8,11.6,8,11.6C8,11.6,8,11.6,8,11.6L8,11.6z"/>
			<path class="st1" d="M15.6,8c-1-1.2-3.4-2.5-5.3-3.2C9.5,4.6,8.6,4.4,8,4.4c-1,0-1.8,0.2-2.5,0.5C3.6,5.7,1.4,6.8,0.4,8     c-0.9,1,0.4,1.3,1.4,1.4c0.5,0.1,2.5,1,4.2,1.8c0.6,0.3,1.3,0.3,2,0.3c0.7,0,1.5-0.1,2.1-0.4c1.7-0.7,3.6-1.7,4.1-1.8     C15.2,9.3,16.5,9,15.6,8z M14.7,8.9c0,0-2.6,0.5-4.7,1.3c-0.8,0.3-1.4,0.5-2,0.4c-0.6,0-1.3-0.1-2.2-0.4C3.8,9.4,1.3,8.8,1.3,8.8     s-0.5,0-0.1-0.3c0,0,3.5-1.9,3.8-2c0.5-0.3,1.3-0.8,3-0.8c1.9,0,2.5,0.5,3,0.8c0.3,0.1,3.6,2,3.6,2C15,8.8,14.7,8.9,14.7,8.9z"/>
		</g>
		<g>
			<path class="st1" d="M8,6.8c-0.6,0-1.1,0.5-1.1,1s0.5,1,1.1,1s1.1-0.5,1.1-1S8.6,6.8,8,6.8L8,6.8z"/>
		</g>
		<g>
			<ellipse class="st2" cx="8" cy="7.8" rx="0.4" ry="0.4"/>
		</g>
		<line class="st3" x1="6.5" y1="7.8" x2="9.6" y2="7.8"/>
		<line class="st3" x1="8" y1="6.4" x2="8" y2="9.3"/>
	</g>
</g>
</svg>