<?xml version="1.0" encoding="UTF-8" standalone="no"?>
<!-- Created with Inkscape (http://www.inkscape.org/) -->

<svg
   xmlns:dc="http://purl.org/dc/elements/1.1/"
   xmlns:cc="http://creativecommons.org/ns#"
   xmlns:rdf="http://www.w3.org/1999/02/22-rdf-syntax-ns#"
   xmlns:svg="http://www.w3.org/2000/svg"
   xmlns="http://www.w3.org/2000/svg"
   xmlns:sodipodi="http://sodipodi.sourceforge.net/DTD/sodipodi-0.dtd"
   xmlns:inkscape="http://www.inkscape.org/namespaces/inkscape"
   width="57.633682mm"
   height="57.633957mm"
   viewBox="0 0 57.633682 57.633957"
   version="1.1"
   id="svg47"
   inkscape:version="0.92.3 (2405546, 2018-03-11)"
   sodipodi:docname="openzfs.svg">
  <defs
     id="defs41" />
  <sodipodi:namedview
     id="base"
     pagecolor="#ffffff"
     bordercolor="#666666"
     borderopacity="1.0"
     inkscape:pageopacity="0.0"
     inkscape:pageshadow="2"
     inkscape:zoom="0.98994949"
     inkscape:cx="251.78773"
     inkscape:cy="-58.287097"
     inkscape:document-units="mm"
     inkscape:current-layer="layer1"
     showgrid="false"
     inkscape:window-width="1920"
     inkscape:window-height="1038"
     inkscape:window-x="3840"
     inkscape:window-y="20"
     inkscape:window-maximized="0" />
  <metadata
     id="metadata44">
    <rdf:RDF>
      <cc:Work
         rdf:about="">
        <dc:format>image/svg+xml</dc:format>
        <dc:type
           rdf:resource="http://purl.org/dc/dcmitype/StillImage" />
        <dc:title></dc:title>
      </cc:Work>
    </rdf:RDF>
  </metadata>
  <g
     inkscape:label="Layer 1"
     inkscape:groupmode="layer"
     id="layer1"
     transform="translate(-43.754587,-40.641203)">
    <path
       inkscape:connector-curvature="0"
       style="fill:#2a667f;stroke-width:0.28222224"
       id="path4164"
       d="m 90.301307,48.920481 c -0.59796,0.60219 -1.5688,0.60042 -2.16782,0 -0.59972,-0.59796 -0.59972,-1.57233 0,-2.17029 0.59796,-0.601488 1.57057,-0.601488 2.16853,0 0.60113,0.59972 0.60113,1.57198 -5.3e-4,2.17029 m -0.3362,42.81983 c -1.04634,1.04739 -2.74355,1.04739 -3.7913,0 -1.0467,-1.0467 -1.0467,-2.74461 0,-3.79272 1.04704,-1.04704 2.74496,-1.04704 3.7913,0 1.0481,1.04811 1.04669,2.74461 0,3.79272 m -8.95809,-5.16608 c -1.04634,-1.04811 -1.04634,-2.74602 0,-3.79377 1.04669,-1.0467 2.74532,-1.0467 3.79236,0 1.04846,1.04775 1.04775,2.74566 5.3e-4,3.79377 -1.04775,1.04598 -2.74637,1.04598 -3.79306,0 m -1.37407,5.16608 c -1.04669,1.04669 -2.74567,1.04669 -3.79166,0 -1.04881,-1.04811 -1.04881,-2.74461 0,-3.79166 1.04599,-1.0481 2.74426,-1.0481 3.79166,0 1.0481,1.04705 1.04739,2.74355 0,3.79166 m -8.95915,-5.16608 c -1.04669,-1.04811 -1.04669,-2.74602 0,-3.79377 1.0474,-1.0467 2.74532,-1.0467 3.79236,5.3e-4 1.04811,1.04704 1.04811,2.74602 0,3.79306 -1.04704,1.04599 -2.74496,1.04599 -3.79236,0 m -1.37442,5.16608 c -1.04599,1.04669 -2.74532,1.04669 -3.79166,-0.001 -1.0481,-1.04881 -1.04739,-2.74355 0,-3.79166 1.04634,-1.04704 2.74567,-1.04704 3.79201,0 1.0474,1.04811 1.04846,2.74462 -2.9e-4,3.79272 m -8.95843,-5.16823 c -1.04704,-1.04599 -1.04704,-2.74461 -2.9e-4,-3.79166 1.04846,-1.04775 2.74567,-1.04775 3.79166,0 1.04775,1.04775 1.04775,2.74567 0,3.79378 -1.04529,1.04492 -2.7432,1.04598 -3.79131,-0.002 m -1.37407,5.16713 c -1.04669,1.04775 -2.74496,1.04775 -3.79095,0 -1.0481,-1.04881 -1.0481,-2.74532 0,-3.79342 1.04599,-1.04634 2.74426,-1.04634 3.79095,0 1.04599,1.0481 1.04599,2.74638 0,3.79342 m -4.1275,-44.98904 c 0.60114,-0.60149 1.57022,-0.60149 2.171,0 0.59831,0.5976 0.59831,1.57197 0,2.17099 -0.60078,0.60149 -1.57269,0.60149 -2.17029,0 -0.59902,-0.59866 -0.60008,-1.57304 -5.6e-4,-2.17099 m 3.33058,3.33163 c 0.59796,-0.59902 1.5688,-0.59902 2.16993,5.5e-4 0.59832,0.60149 0.59832,1.57198 0,2.17312 -0.60113,0.59937 -1.57197,0.59937 -2.17064,0 -0.59901,-0.60114 -0.60078,-1.57163 5.6e-4,-2.17382 m 3.32846,3.33516 c 0.59866,-0.60113 1.57092,-0.60113 2.16958,0 0.60043,0.59937 0.59866,1.57268 -2.9e-4,2.17135 -0.59831,0.60043 -1.57057,0.60043 -2.16782,0 -0.60078,-0.59867 -0.60078,-1.57269 -10e-4,-2.17135 m 10e-4,-6.66679 c 0.59902,-0.600079 1.56951,-0.60149 2.16782,5.5e-4 0.60078,0.59902 0.59902,1.57163 0,2.17029 -0.59831,0.60149 -1.57057,0.59972 -2.16782,0 -0.60078,-0.59902 -0.60008,-1.57304 0,-2.17099 m 3.32669,9.99913 c 0.60078,-0.59902 1.57198,-0.60043 2.17029,5.5e-4 0.60008,0.59937 0.60008,1.57304 0,2.17347 -0.59831,0.59937 -1.56915,0.59937 -2.17029,0 -0.59725,-0.60043 -0.59831,-1.5741 0,-2.17417 m 0.001,-6.6675 c 0.59937,-0.59831 1.56916,-0.59902 2.16888,5.5e-4 0.59937,0.60149 0.60043,1.57198 0,2.17312 -0.59831,0.59937 -1.56951,0.59937 -2.17029,0 -0.59725,-0.60114 -0.59725,-1.57339 0.001,-2.17382 m 3.32881,-3.33163 c 0.59867,-0.600079 1.56916,-0.60149 2.16994,0 0.59831,0.59795 0.59831,1.57197 0,2.17099 -0.60008,0.60149 -1.57127,0.59831 -2.16994,0 -0.59937,-0.59866 -0.59937,-1.57127 0,-2.17099 m 3.32952,9.99983 c 0.59866,-0.60113 1.57057,-0.59972 2.16958,-5.5e-4 0.59973,0.60078 0.59973,1.57374 0,2.17382 -0.59901,0.59866 -1.57021,0.59866 -2.16958,0 -0.59972,-0.60008 -0.60113,-1.57304 0,-2.17312 m 0,-6.66749 c 0.59937,-0.59973 1.57057,-0.59973 2.17029,0 0.59972,0.59972 0.59831,1.57197 -5.3e-4,2.17311 -0.59902,0.59937 -1.57092,0.59937 -2.16958,0 -0.59902,-0.60114 -0.59972,-1.57339 0,-2.17311 m 3.32846,-3.33234 c 0.60184,-0.60149 1.57092,-0.60149 2.16958,0 0.59937,0.59795 0.59937,1.57233 5.3e-4,2.17099 -0.59937,0.59972 -1.56916,0.60149 -2.17029,0 -0.59867,-0.59866 -0.59831,-1.57304 0,-2.17099 m 1.02658,30.86382 c 1.04599,-1.04705 2.74497,-1.04705 3.79166,0 1.0481,1.0474 1.0481,2.74531 0,3.79271 -1.0474,1.0474 -2.74567,1.04634 -3.79166,0 -1.04881,-1.0474 -1.04881,-2.74496 0,-3.79271 m 1.14371,-15.35774 c -0.59937,0.60219 -1.57056,0.59972 -2.16958,0 -0.59902,-0.60043 -0.59902,-1.57304 -5.3e-4,-2.17417 0.59972,-0.59831 1.57092,-0.59831 2.17029,0.003 0.59867,0.59831 0.59867,1.57127 0,2.17135 m 0,-6.66856 c -0.59937,0.60113 -1.57057,0.60113 -2.17029,8.5e-4 -0.59831,-0.59867 -0.59866,-1.57198 0,-2.17135 0.59972,-0.60078 1.57092,-0.60078 2.16959,0 0.59937,0.59866 0.59937,1.57268 5.2e-4,2.17064 m -5.49874,7.8299 c 0.59866,-0.59937 1.57056,-0.59937 2.16958,0 0.59972,0.59973 0.59972,1.57339 -2.7e-4,2.17382 -0.59866,0.59796 -1.57056,0.59796 -2.17134,-2.9e-4 -0.59761,-0.60008 -0.59761,-1.57304 0.002,-2.17346 m -0.81175,9.02985 c 1.0474,-1.04705 2.74532,-1.04705 3.79236,5.3e-4 1.0467,1.04634 1.0467,2.74426 0,3.79095 -1.04704,1.0474 -2.74496,1.0474 -3.79236,5.3e-4 -1.04669,-1.04669 -1.0474,-2.74355 0,-3.79236 m -1.37442,5.16643 c 1.04775,1.04739 1.04704,2.74532 0,3.79271 -1.04599,1.04634 -2.74602,1.04634 -3.79166,-5.3e-4 -1.0488,-1.0474 -1.04739,-2.74461 0,-3.79201 1.04564,-1.04634 2.74567,-1.04704 3.79166,0 m -1.143,-24.19702 c 0.59972,-0.60114 1.57021,-0.60114 2.17029,0 0.59831,0.59936 0.59831,1.57268 0,2.17064 -0.60008,0.60113 -1.57057,0.60113 -2.16994,8.4e-4 -0.59796,-0.59901 -0.59937,-1.57197 -2.9e-4,-2.17134 m 0,6.66785 c 0.59902,-0.60113 1.57022,-0.60113 2.17029,-0.002 0.59831,0.60043 0.59831,1.57339 0,2.17558 -0.60007,0.59937 -1.57127,0.60007 -2.17029,-0.002 -0.59902,-0.60008 -0.5976,-1.57304 0,-2.17135 m 9.98835,-3.33555 c 0.59972,-0.59902 1.57021,-0.60043 2.17064,0 0.59725,0.60078 0.59725,1.57374 -5.3e-4,2.17382 -0.59973,0.59866 -1.57022,0.59972 -2.16994,2.9e-4 -0.59901,-0.60043 -0.59901,-1.57339 0,-2.17417 m 0,-6.6675 c 0.59972,-0.59902 1.57021,-0.59831 2.16994,0 0.59796,0.60043 0.59796,1.57268 0,2.17382 -0.59973,0.59866 -1.57022,0.59936 -2.16994,-0.002 -0.59901,-0.59937 -0.59901,-1.57163 0,-2.17206 m 3.32846,3.33516 c 0.60043,-0.60113 1.57374,-0.60113 2.16994,0 0.59901,0.59867 0.59831,1.57269 0,2.17065 -0.59761,0.60113 -1.56951,0.60113 -2.16994,0 -0.59902,-0.59832 -0.59831,-1.57198 0,-2.17065 m 5.3e-4,-6.66679 c 0.59972,-0.601486 1.57163,-0.602192 2.16923,0 0.59902,0.59796 0.59902,1.57057 0,2.17029 -0.5976,0.60219 -1.56951,0.60219 -2.16923,0 -0.59902,-0.59831 -0.59902,-1.57233 0,-2.17029 m 3.33022,3.33163 c 0.59867,-0.59831 1.57233,-0.59901 2.17029,0 0.59796,0.60043 0.59796,1.57269 0,2.17206 -0.59972,0.60042 -1.57162,0.60113 -2.17029,0 -0.59937,-0.59937 -0.59937,-1.56987 0,-2.17206 m 16.584043,-5.051714 c 0,-2.422886 -1.964273,-4.388564 -4.389623,-4.388564 h -48.85515 c -2.42323,0 -4.38891,1.965678 -4.38891,4.388555 v 16.767123 h 6.54509 l -6.54509,15.32149 v 16.76788 c 0,2.42323 1.96568,4.38891 4.38891,4.38891 h 48.85515 c 2.42535,0 4.389623,-1.96568 4.389623,-4.38891 v -16.76788 h -6.544733 l 6.544733,-15.32149 z" />
  </g>
</svg>
