<?xml version="1.0" encoding="UTF-8"?>
<!-- Generator: Adobe Illustrator 16.0.0, SVG Export Plug-In . SVG Version: 6.00 Build 0)  -->
<!DOCTYPE svg PUBLIC "-//W3C//DTD SVG 1.1//EN" "http://www.w3.org/Graphics/SVG/1.1/DTD/svg11.dtd">
<svg version="1.1" id="Layer_1" xmlns="http://www.w3.org/2000/svg" xmlns:xlink="http://www.w3.org/1999/xlink" x="0px" y="0px" width="252px" height="252px" viewBox="0 0 252 252" enable-background="new 0 0 252 252" xml:space="preserve">
<polygon fill="#F48018" points="116.381,43.816 116.381,203.756 116.381,223.816 148.381,208.756 148.381,28.184 "/>
<polyline fill="#AEB0B3" points="227.204,96.616 231.62,142.48 169.737,129.016 "/>
<path fill="#AEB0B3" d="M153.999,87.394v20.317c13.398,2.319,25.385,6.727,34.95,12.64l22.627-13.984  C196.156,96.835,176.254,90.083,153.999,87.394 M52.381,155.309c0-22.674,24.707-41.769,58.383-47.598V87.386  c-51.51,6.226-90.383,34.267-90.383,67.923c0,34.869,41.725,63.709,96,68.508v-20.061C79.865,199.178,52.381,179.228,52.381,155.309  "/>
<polygon fill="#F48018" points="116.381,43.816 116.381,203.756 116.381,223.816 148.381,208.756 148.381,28.184 "/>
<polyline fill="#AEB0B3" points="227.204,96.616 231.62,142.48 169.737,129.016 "/>
<path fill="#AEB0B3" d="M153.999,87.394v20.317c13.398,2.319,25.385,6.727,34.95,12.64l22.627-13.984  C196.156,96.835,176.254,90.083,153.999,87.394 M52.381,155.309c0-22.674,24.707-41.769,58.383-47.598V87.386  c-51.51,6.226-90.383,34.267-90.383,67.923c0,34.869,41.725,63.709,96,68.508v-20.061C79.865,199.178,52.381,179.228,52.381,155.309  "/>
</svg>