<svg xmlns="http://www.w3.org/2000/svg" xmlns:xlink="http://www.w3.org/1999/xlink" viewBox="0 0 91 93" fill="#fff" fill-rule="evenodd" stroke="#000" stroke-linecap="round" stroke-linejoin="round"><use xlink:href="#A" x=".5" y=".5"/><symbol id="A" overflow="visible"><g stroke-linejoin="miter" stroke-width=".5"><path d="M4.568 45.44c12.65.3 17.036.87 26.32 1.753 5.127 10.44 4.9 8.245 7.066 20.47-8.34-9.485-20.866-19.538-33.77-22.304" fill="#b1db9e" stroke="#b1db9e"/><path d="M6.02 0c11.148 5.73 38.795 24.218 46.376 27.864 4.013-1.042 9.8-3.646 17.837-.52-8.918 1.042-16.5 10.937-25.418 17.708C36.79 24.74 23.41 13.02 17.614 6.77" fill="#85cb65" stroke="#85cb65"/><path d="M.167 26.627c15.384 3.125 20.568 4.883 31.716 8.008C39 49.5 37 56.5 35.45 65.884 28.316 48.697 15.16 32.812 0 26.562" fill="#75b35b" stroke="#75b35b"/><path d="M6.243.13c8.92 5.208 20.736 20.963 25.64 33.984 1.784 5.208 4.46 17.708 3.567 31.77 1.56 8.854 12.932 34.375 38.35 23.437-12.932 0-19.175-4.948-25.863-15.885-.446-.26-6.69-18.49-3.122-28.385C36.343 16.927 12.932 3.125 6.02 0" fill="#6fb950" stroke="#6fb950"/><path d="M69.34 82.55c10.256 0 18.506-7.03 20.512-18.23.112-.65 1.617 8.333-8.194 19.27-.725.65-6.745 1.562-12.096-1.042" fill="#b1db9e" stroke="#b1db9e"/></g><g stroke-linejoin="miter" stroke-width=".5"><path d="M76.476 42.968c2.23 1.563 3.567 2.864 4.905 4.427 1.338 1.042-.892-3.646-1.338-4.167.67-3.385-1.45-8.463-1.672-8.594C76.81 33.072 48.383 44 58.193 70.05 57.3 48.176 67.502 44 76.42 42.968z" fill="#6fb850" stroke="#6fb850"/><path d="M73.8 89.32c3.12-1.302 5.128-3.58 7.804-5.664.11-.065-18.06 2.474-23.41-13.672-1.784-2.865-8.316-26.692 20.122-35.546-1.338-2.864-6.745-6.575-8.082-7.096C61.314 28.385 51.275 33.42 45 44.5c-5 9-2.378 46.598 28.8 44.822z" fill="#77c656" stroke="#77c656"/></g><ellipse cx="76.03" cy="37.239" rx="1.338" ry="1.562" stroke="none"/></symbol></svg>