<?xml version="1.0" encoding="UTF-8" standalone="no"?>
<svg
   xmlns:dc="http://purl.org/dc/elements/1.1/"
   xmlns:cc="http://creativecommons.org/ns#"
   xmlns:rdf="http://www.w3.org/1999/02/22-rdf-syntax-ns#"
   xmlns:svg="http://www.w3.org/2000/svg"
   xmlns="http://www.w3.org/2000/svg"
   xmlns:sodipodi="http://sodipodi.sourceforge.net/DTD/sodipodi-0.dtd"
   xmlns:inkscape="http://www.inkscape.org/namespaces/inkscape"
   width="433.22543pt"
   height="410pt"
   viewBox="0 0 433.22543 410"
   version="1.1"
   id="svg26"
   sodipodi:docname="pfsense.svg"
   inkscape:version="0.92.3 (2405546, 2018-03-11)">
  <metadata
     id="metadata30">
    <rdf:RDF>
      <cc:Work
         rdf:about="">
        <dc:format>image/svg+xml</dc:format>
        <dc:type
           rdf:resource="http://purl.org/dc/dcmitype/StillImage" />
      </cc:Work>
    </rdf:RDF>
  </metadata>
  <sodipodi:namedview
     pagecolor="#ffffff"
     bordercolor="#666666"
     borderopacity="1"
     objecttolerance="10"
     gridtolerance="10"
     guidetolerance="10"
     inkscape:pageopacity="0"
     inkscape:pageshadow="2"
     inkscape:window-width="1920"
     inkscape:window-height="1038"
     id="namedview28"
     showgrid="false"
     inkscape:zoom="0.27377906"
     inkscape:cx="1565.4877"
     inkscape:cy="-178.59885"
     inkscape:window-x="3840"
     inkscape:window-y="20"
     inkscape:window-maximized="0"
     inkscape:current-layer="surface1" />
  <defs
     id="defs5">
    <clipPath
       id="clip1">
      <path
         d="m 1435,81 h 214.1406 V 399 H 1435 Z m 0,0"
         id="path2"
         inkscape:connector-curvature="0" />
    </clipPath>
  </defs>
  <g
     id="surface1">
    <path
       style="fill:#211c1e;fill-opacity:1;fill-rule:nonzero;stroke:none"
       d="m 38.3125,131.90234 c 0.34375,0.57813 1.132813,1.4961 1.457031,2.5586 0.386719,1.25 0.363282,2.62109 0.527344,3.9414 2.332031,18.59766 9.261719,35.08203 23.476563,47.66797 5.28125,4.67969 11.808593,7.94922 17.75,11.88281 2.296875,1.51563 4.546875,3.09766 6.160156,4.19532 0.46875,5.1914 0.457031,9.39843 1.296875,13.42187 1.566406,7.47266 12.109371,12.92578 19.277341,10.375 4.81641,-1.71094 9.67188,-3.3125 15.66407,-5.35937 1.35546,-4.90625 2.97265,-10.75782 4.60546,-16.65625 4.98438,-2.47266 9.96485,-4.77344 14.78907,-7.36328 27.64843,-14.83204 41.51953,-41.71875 37.7539,-72.98438 -0.6289,-5.21875 -0.73437,-10.26562 3.37891,-14.46484 1.10547,-1.12891 1.92187,-2.83985 2.22656,-4.40625 C 188.0625,97.5625 189.21875,90.371094 190.55469,82.625 189.11328,81.984375 187.72656,80.933594 186.25,80.792969 179.15625,80.117188 171.9375,78.75 164.95703,79.488281 159.77734,80.039063 156.07422,78.917969 152.07422,76.195313 132.68359,62.996094 111.58203,60.464844 89.222656,66.625 85.175781,67.738281 81.1875,68.539063 76.9375,67.996094 75.394531,67.800781 73.476563,68.109375 72.167969,68.90625 65.085938,73.226563 58.035156,77.617188 51.1875,82.300781 c -5,3.417969 -6.460937,8.285157 -4.042969,13.996094 1.351563,3.191406 0.613282,6.039065 -0.570312,9.121095 -1.78125,4.63281 -3.097656,9.44531 -4.566406,14.19531 -1.226563,3.95703 -2.386719,7.92969 -3.695313,12.28906 m 348.77344,-13.98437 c 0,-3.16406 -0.11328,-6.33594 0.0234,-9.49609 0.3125,-7.1875 -1.41796,-13.839849 -4.8789,-20.097661 -1.04297,-1.890625 -1.91406,-3.882813 -3.01953,-5.738281 -15.90625,-26.6875 -39.20703,-39.347657 -70.375,-37.027344 -2.98828,0.222656 -6.05469,0.214844 -8.92969,0.925781 -19.20703,4.734375 -34.77734,14.902344 -45.58594,31.664063 -10.18359,15.796875 -13.3164,33.179692 -10.26172,51.621092 4.58594,27.73047 20.70703,46.29688 46.46485,56.5 5.57812,2.21094 11.99218,2.64453 18.08593,3.17578 14.60547,1.27735 28.79297,0.48828 41.98438,-7.45703 16.54297,-9.96875 27.86719,-23.96875 34.73828,-41.79687 2.78125,-7.22266 1.34766,-14.83594 1.75391,-22.27344 m -84.40625,219.40234 c 1.80078,-5.125 3,-10.14062 1.3164,-15.27734 -1.66797,-5.08985 -1.41015,-10.15625 -0.51172,-15.26563 1.54688,-8.76562 1.89454,-17.5664 0.19141,-26.30468 -8.0625,-41.3086 -44.32422,-72.72266 -94.69531,-62.6836 -18.85156,3.75391 -33.5625,14.90235 -44.89063,30.32422 -14.98047,20.39453 -16.58203,43.25391 -11.65234,67.10156 0.82812,4.01172 1.01172,7.52344 -1.45313,10.875 -1.78906,2.4336 -2.47265,5.22657 -1.78906,8.03516 0.86328,3.51562 1.86719,7.10937 3.52735,10.29297 2.625,5.02734 7.19531,8.19531 12.8125,8.3789 8.48828,0.27735 15.66796,3.44532 22.8789,7.55079 21.52344,12.24609 43.94531,13.95703 67.09766,4.74609 10.375,-4.12891 19.16797,-10.60156 27.38672,-17.97266 4.78515,-4.29297 9.94531,-7.78906 16.58593,-8.47656 0.94141,-0.0977 1.82422,-0.73828 3.19532,-1.32422 M 329,0 c 3.70703,1.308594 5.90625,4.0625 7.19922,7.632813 1.52344,4.199218 2.98828,8.417968 4.58984,12.9375 9.55469,-1.507813 18.76563,-3.914063 27.50391,-8.742188 1.65234,0.707031 3.41406,1.246094 4.95703,2.148438 31.96875,18.675781 52.12109,45.792968 58.94531,82.472656 0.96094,5.152341 1.5,10.042971 -0.68359,15.136721 -0.78516,1.82031 -0.0156,4.53515 0.60547,6.67969 0.84375,2.91406 1.66015,5.71093 0.61718,9.02734 -6.98046,1.8789 -13.91406,-0.28516 -21.2539,-0.0898 -3.91406,10.65234 -8.39844,21.17578 -10.32031,32.51171 -1.11329,6.55469 0.76562,12.14844 6.14843,16.42578 1.60547,1.27344 2.85938,2.98829 4.73047,4.98829 -1.8164,1.1875 -2.90625,2.35156 -4.20703,2.67968 -7.5625,1.90625 -10.68359,7.86328 -12.17187,14.4336 -1.02344,4.52734 -3.33985,7.35937 -6.75391,9.91797 -15.58203,11.67578 -32.93359,19.27734 -52.05859,22.88281 -1.58204,0.30078 -3.1211,0.84765 -5.16016,1.41015 1.02734,2.90235 1.74219,5.44141 2.80469,7.82813 5.18359,11.62109 8.60156,23.77734 10.2539,36.33594 0.92578,7.02734 1.8125,14.21875 -0.22265,21.72265 -1.19141,0.2461 -2.44141,0.50391 -3.69141,0.76563 -11.94531,2.52734 -18.67578,7.15234 -21.30078,18.15625 -2,8.38281 1.36719,17.5 8.29687,22.58203 1.72266,1.26562 3.4336,2.53906 5.52344,4.08203 -0.9414,2.14453 -1.57031,4.19531 -2.65625,5.97266 -18.99609,31.14062 -45.77344,51.37109 -81.99609,58.30078 C 245.78906,408.75781 242.89844,409.39844 240,410 h -24 c -0.76172,-0.27734 -1.50391,-0.70313 -2.28906,-0.8125 -26.60547,-3.79297 -50.28125,-13.57813 -68.96485,-33.62109 -1.8164,-1.94922 -3.69922,-3.83594 -5.5664,-5.73829 -19.52735,-19.84375 -28.23828,-44.30468 -30.13672,-71.51562 -1.01563,-14.5625 1.02344,-28.86719 5.19531,-42.86328 0.84375,-2.83985 1.44531,-5.75 2.0625,-8.22656 -1.11719,-2.16797 -1.94531,-3.77735 -2.99219,-5.8125 -2.25,-0.4375 -4.64453,-1.1836 -7.07812,-1.32422 -7.808595,-0.44922 -15.628907,-0.8086 -23.44922,-0.94141 -4.75,-0.0781 -9.226562,-0.96875 -13.53125,-2.93359 C 33.84375,220.04687 12.054688,192.70312 2.820313,155.125 1.597656,150.15234 0.925781,145.04687 0,140 v -20 c 1.5,-0.86719 2.902344,-2.10156 4.519531,-2.53906 12.597657,-3.42188 20.078125,-12.25 25.277344,-23.558596 0.125,-0.277344 0.01563,-0.660156 0.01563,-2.039063 -3.921875,-3.425781 -8.363281,-7.308593 -13.28125,-11.609375 1.90625,-0.652343 3.296875,-1.058593 4.628906,-1.597656 6.453125,-2.625 13.070313,-4.929687 19.289063,-8.027344 6.574219,-3.277343 12.515625,-7.652343 17.015625,-13.636718 3.210937,-4.269532 4.566406,-8.738282 1.53125,-13.839844 -1.511719,-2.546875 -2.835938,-5.339844 -1.421875,-9.683594 2.003906,-1.195312 4.683594,-3.121094 7.621094,-4.488281 24.050781,-11.214844 49.070322,-13.878906 74.925772,-7.894531 18.17969,4.203125 34.20314,12.753906 48.26172,24.960937 2.98438,2.59375 6.04688,5.21875 7.09375,9.40625 1.76563,7.070313 5.67969,13.066406 9.8125,18.9375 0.96094,1.359375 1.79297,2.808594 2.42578,3.804688 5.85157,-1.972657 10.81641,-2.433594 14.51953,-7.066407 0,-2.746093 -0.0898,-5.90625 0.0156,-9.058593 0.25391,-7.613282 1.61719,-14.808594 6.91016,-20.84375 16,-18.230469 35.21875,-31.335938 58.92968,-37.328125 C 294.01172,2.402344 300.02734,1.289063 306,0"
       id="path7"
       inkscape:connector-curvature="0" />
    <path
       style="fill:#971c21;fill-opacity:1;fill-rule:nonzero;stroke:none"
       d="m 330.67578,169.83203 h -26.49609 l -0.0899,-70.093749 c 0,-6.488281 -6.52734,-5.082031 -6.875,-10.707031 -0.8789,-14.28125 6.15235,-6.53125 6.15235,-13.078125 0,-1.59375 0.37109,-3.214844 0.51953,-4.847656 0.52344,-5.691406 2.90234,-9.746094 8.36719,-11.515625 3.22265,-0.945313 12.08203,-2.382813 24.66406,-2.382813 0,0 0.3789,6.703125 0.19531,9.429688 -0.19141,2.847656 -2.46484,5.113281 -5.30859,5.367187 -0.77735,0.06641 -1.82032,0.195313 -2.83594,0.332032 -2.04688,0.269531 -3.60547,1.964843 -3.71484,4.023437 l -0.008,0.128906 c -0.11718,2.242188 1.53516,4.1875 3.76953,4.425782 1.78907,0.195312 3.5586,0.382812 4.97657,0.5625 1.4414,0.179687 2.51562,1.40625 2.51562,2.859375 v 6.078125 c 0,1.578125 -0.93359,3.007812 -2.38672,3.621093 -1.71484,0.722657 -3.44531,2.324219 -3.44531,5.492188"
       id="path9"
       inkscape:connector-curvature="0" />
    <path
       style="fill:#971c21;fill-opacity:1;fill-rule:nonzero;stroke:none"
       d="m 121.37891,162.53516 c -0.35938,-18.3125 -0.50782,-36.625 -1,-54.9336 -0.0391,-1.5 -1.23438,-4.16015 -1.80469,-6.30078 -0.22656,-0.85937 -1.30859,-1.17578 -1.94922,-0.5664 -2.33594,2.21484 -2.55859,4.28515 -2.57031,7.76171 -0.0625,15.98047 -0.004,31.96485 0.125,47.94922 0.008,1.2461 0.2539,2.48828 0.54687,3.80078 0.40625,1.84766 2.17578,3.07422 4.04297,2.77344 0.91797,-0.14844 2.61328,-0.34766 2.60938,-0.48437 M 85.582031,87.246094 c 7.1875,-0.847656 18.480469,-0.65625 24.285159,0.3125 1.59375,0.265625 2.91406,1.371094 3.45703,2.894531 v 2.285156 c 0.59375,-0.06641 6.77344,-4.242187 9.30469,-5.488281 7.09375,-3.492187 14.85546,-1.933594 21.05078,3.160156 2.05078,1.683594 5.1875,6.023438 5.1875,6.332032 0.0664,21.316402 0.19922,42.628902 0.10156,63.941402 -0.0234,4.66016 -1.10547,9.25 -3.80078,13.26953 -2.6875,4.00391 -8.1836,5.10157 -13.23047,5.21485 -6.75,0.14844 -16.625,-5.10547 -18.71484,-8.30469 v 19.89063 H 85.582031"
       id="path11"
       inkscape:connector-curvature="0" />
  </g>
</svg>
