<svg xmlns="http://www.w3.org/2000/svg" xmlns:xlink="http://www.w3.org/1999/xlink" viewBox="0 0 67.273 67.273" fill="#fff" fill-rule="evenodd" stroke="#000" stroke-linecap="round" stroke-linejoin="round"><use xlink:href="#C" x="1.136" y="1.136"/><defs><radialGradient id="A" cx="44%" cy="38%" fx="44%" fy="38%" r="82%"><stop offset="0%"/><stop offset="100%" stop-opacity=".897"/></radialGradient><linearGradient id="B" x1="50.45%" y1="-0.25%" x2="50.45%" y2="95.89%"><stop offset="0%" stop-color="#fff"/><stop offset="100%" stop-color="#fff" stop-opacity="0"/></linearGradient></defs><symbol id="C" overflow="visible"><g stroke="none" fill-rule="nonzero"><path d="M32.182 0C14.414 0 0 14.323 0 32s14.41 32 32.182 32c5.814 0 11.257-1.527 15.964-4.21L49.82 64h12.955L57.7 51.455a31.75 31.75 0 0 0 6.623-19.455c0-17.678-14.393-32-32.16-32z" fill="url(#A)"/><path d="M10.452 19.38c0-10.158 9.504-18.337 21.3-18.337S53.07 9.22 53.07 19.38s-9.504 18.337-21.31 18.337-21.31-8.178-21.31-18.337z" fill="url(#B)"/><g fill="#000"><path d="M31.346 13.21c0-2.095 1.687-3.782 3.782-3.782S38.9 11.114 38.9 13.21s-1.687 3.782-3.782 3.782-3.782-1.687-3.782-3.782z"/><path d="M28.228 15.014L49.683 18.1l-.6 3.114-21.455-3.095z"/><path d="M47.564 19.1h3.782v1.673h-3.782z"/></g><path d="M23.64 5.273c-.032 1.26-2.227.164-2.323 1.602-2.432-1.084.19 1.655-.055 1.91h-.018l-.182-.018c-.118-.045-.29-.114-.54-.273-1.7 1.355-1.74 4.166-3.49 5.723-1.148 2.5-1.427 5.173-2.268 7.757-.414 2.5-.777 4.955-.16 7.432.182 2.016-.398 4.757 1.44 6.173 2.723 2.236 4.984 5.068 7.273 7.757 3.582 4.41 6.755 9.136 9.557 14.075.186-1.22.636 2.455 1.455 2.7l-.827-7.018c-.91-5.927-3.832-11.318-4.932-17.19l-.11-.757v-.74h-.09c-.364-2.905-.49-6.027 1.62-8.296 2.155-2.173 5.36-2.72 7.955-4.227.566-.34 1.17-.61 1.8-.81 1.814-.554 3.732-.536 5.598-.234l.09.018.523.09c1.364.123 4.09.655 4.607-.29-1.886-1.605-4.6-1.493-6.893-2.123l-1.26-.182-2.273-.505-.557-.143v.018l-8.046-1.59c-.125-.117-.257-.225-.395-.325l7.848.973v-.036l.827.143v.064l5.545 1.023c.955.357 1.977.625 2.955.682 1.58.227 3.587 2.586 4.105 2.7-.255-2.5-2.732-3.59-4.786-4.318-2.402-1.168-5.99-1.125-6.37-4.355l-.325-.666-.936-1.24.036-.018c-1.277-1.507-3.075-2.605-4.986-3.023-1.896-.655-4.023-1.305-6.03-1.59-.682 2-1.44-1.586-3.077-.523-1.432.17-1.236.545-2.305-.36zm10.314 5.85c.523-.014 1.136.082 1.71.29 1.59.55 2.627 1.704 2.323 2.59s-1.846 1.143-3.44.59-2.627-1.69-2.323-2.573c.19-.552.864-.877 1.727-.9z" fill="#f60"/></g></symbol></svg>