<?xml version="1.0" encoding="utf-8"?>
<!-- Generator: Adobe Illustrator 24.1.1, SVG Export Plug-In . SVG Version: 6.00 Build 0)  -->
<svg version="1.1" id="Layer_1" xmlns="http://www.w3.org/2000/svg" xmlns:xlink="http://www.w3.org/1999/xlink" x="0px" y="0px"
	 viewBox="0 0 512 512" style="enable-background:new 0 0 512 512;" xml:space="preserve">
<style type="text/css">
	.st0{fill:#FFFFFF;}
	.st1{fill:#49A32B;}
</style>
<g>
	<path class="st0" d="M254.1,512C117.7,511.1-0.9,397.8,0,254C0.9,115.6,115.9-0.9,258.2,0c138.3,0.9,255,115.7,253.8,256.4
		C513.1,395.8,395.9,513,254.1,512z M254.1,512C117.7,511.1-0.9,397.8,0,254C0.9,115.6,115.9-0.9,258.2,0
		c138.3,0.9,255,115.7,253.8,256.4C513.1,395.8,395.9,513,254.1,512z"/>
	<path class="st1" d="M254.4,478C136.1,477.2,33.2,379,34,254.3C34.8,134.2,134.5,33.2,257.9,34C377.9,34.8,479.1,134.4,478,256.3
		C479,377.2,377.3,478.8,254.4,478z M254.4,478C136.1,477.2,33.2,379,34,254.3C34.8,134.2,134.5,33.2,257.9,34
		C377.9,34.8,479.1,134.4,478,256.3C479,377.2,377.3,478.8,254.4,478z"/>
	<path class="st0" d="M338.7,255.9c-0.6,10.6-9.8,19.4-18.9,17.8h-0.1c-10.1,0-18.3-8.2-18.3-18.2c0.3-10.1,8.7-18.1,18.9-17.9
		C330.2,237.6,339.2,246.2,338.7,255.9z M176.4,358.4c3.8,0.1,7.6,0,12,0V386c-27.3,4.6-49.7-3.1-55.2-26.2
		c-1.9-8.5-3-17.1-3.5-25.8c-0.6-9.2,0.4-18.5-0.3-27.6c-1.9-25.2-5.2-33.8-29.4-35V240c1.7-0.4,3.5-0.7,5.3-0.9
		c13.3-0.7,18.9-4.7,21.8-17.8c1.4-7.3,2.2-14.8,2.4-22.2c1.1-14.4,0.7-29.1,3.1-43.3c3.5-20.5,16.2-30.5,37.3-31.6
		c6-0.3,12,0,18.8,0v28.2c-2.8,0.2-5.4,0.6-7.9,0.5c-17.2-0.5-18,5.3-19.3,19.5c-0.8,8.9,0.3,18-0.3,26.9
		c-0.6,8.9-1.8,17.7-3.6,26.5c-2.5,12.7-10.3,22.1-21.1,30.1c21,13.6,23.4,34.8,24.7,56.4c0.7,11.6,0.4,23.2,1.6,34.7
		C163.7,355.9,167.2,358.2,176.4,358.4z M194.1,237.6h0.3c10,0.2,18,8.4,17.9,18.5c0,0.3,0,0.7,0,1c-0.6,9.8-9,17.3-18.8,16.7
		c-0.4,0-0.8,0-1.2,0c-10-0.5-17.7-9-17.2-19C175.6,244.8,184.1,237.1,194.1,237.6z M256.5,237.6c11-0.1,18.2,7,18.3,17.9
		c0.1,11.1-6.8,18.3-17.7,18.3c-11.1,0-18.4-7-18.4-17.7c0-0.5,0-1.1,0-1.7C239,244.8,247,237.3,256.5,237.6z M387.3,223.8
		c2.9,10.9,8.6,14.7,20.1,15.2c1.9,0.1,3.8,0.4,6.3,0.7v31.4c-1.4,0.5-2.8,0.8-4.3,1c-15.4,1-22.4,7.3-23.9,22.7
		c-1,9.8-0.9,19.8-1.6,29.7c-0.3,10.8-1.3,21.6-3,32.4c-3.9,19.4-16,29.1-36.1,30.3c-6.4,0.4-12.9,0.1-19.9,0.1v-28.1
		c3.7-0.2,7-0.6,10.3-0.6c12-0.3,16.2-4.1,16.8-16c0.6-13.1,0.9-26.1,1.5-39.2c0.8-18.9,6-35.7,23.6-47.5
		c-10.1-7.2-18.1-15.9-20.2-27.6c-2.5-14.2-3.3-28.7-4.7-43.1c-0.7-7.2-0.6-14.5-1.3-21.6c-0.8-7.8-6.1-10.4-13.2-10.6
		c-4-0.1-8.1,0-13.3,0v-27.4c33-5.5,55.8,5.5,57.9,37.1c0.9,13.3,0.8,26.6,1.6,39.9C384.5,209.7,385.6,216.8,387.3,223.8z"/>
</g>
</svg>
