<svg xmlns="http://www.w3.org/2000/svg" xmlns:xlink="http://www.w3.org/1999/xlink" viewBox="0 0 67 66" fill="#fff" fill-rule="evenodd" stroke="#000" stroke-linecap="round" stroke-linejoin="round"><use xlink:href="#A" x="1" y="1"/><symbol id="A" overflow="visible"><g stroke="none" fill-rule="nonzero"><path d="M64 32c0 17.672-14.328 32-32 32S0 49.672 0 32 14.328 0 32 0s32 14.328 32 32z" fill="#dd4814"/><path d="M10.24 27.728c-2.36 0-4.274 1.912-4.274 4.274a4.27 4.27 0 0 0 4.274 4.272c2.362 0 4.274-1.914 4.274-4.274s-1.914-4.272-4.274-4.272zm30.504 19.4C38.7 48.328 38 50.92 39.18 52.962a4.27 4.27 0 1 0 7.398-4.27c-1.18-2.044-3.792-2.74-5.834-1.564zM19.52 32a12.46 12.46 0 0 1 5.306-10.21l-3.12-5.23a18.6 18.6 0 0 0-7.676 10.788c1.37 1.1 2.2 2.772 2.2 4.652s-.864 3.552-2.212 4.652a18.58 18.58 0 0 0 7.676 10.79l3.124-5.232A12.46 12.46 0 0 1 19.522 32zM32 19.52a12.48 12.48 0 0 1 12.43 11.374l6.088-.1a18.5 18.5 0 0 0-5.514-12.038 5.98 5.98 0 0 1-8.042-4.652c-1.616-.447-3.285-.674-4.962-.674a18.51 18.51 0 0 0-8.226 1.92l2.968 5.32a12.5 12.5 0 0 1 5.256-1.16zm0 24.96a12.46 12.46 0 0 1-5.256-1.16l-2.968 5.32c2.48 1.228 5.272 1.92 8.226 1.92a18.56 18.56 0 0 0 4.958-.676 6 6 0 0 1 2.92-4.236c1.6-.94 3.5-1.028 5.12-.414a18.5 18.5 0 0 0 5.514-12.038l-6.1-.1A12.48 12.48 0 0 1 32 44.48zm8.744-27.626c2.044 1.2 4.656.48 5.834-1.56a4.28 4.28 0 0 0-1.56-5.836c-2.04-1.2-4.656-.48-5.836 1.566a4.27 4.27 0 0 0 1.564 5.834z"/></g></symbol></svg>